# This file uses centimeters as units for non-parametric coordinates.

v -2.032557 0.883977 -0.479054
v -2.133666 0.897059 -0.275943
v -1.852486 0.784019 -0.382977
v -1.953594 0.797101 -0.179866
v -2.622033 0.770635 -0.792051
v -2.815333 0.783717 -0.673256
v -2.520122 0.670677 -0.615216
v -2.713421 0.683759 -0.496421
v -2.710773 0.875587 -0.093169
v -2.845114 1.056695 -0.121459
v -2.757602 0.875587 0.129216
v -2.891944 1.056695 0.100926
v -2.702389 0.792477 0.368453
v -2.775796 0.923348 0.539134
v -2.514749 0.743297 0.486861
v -2.588156 0.874169 0.657543
v -1.969838 0.875587 0.117510
v -1.832550 1.056695 0.117510
v -1.969838 0.875587 -0.109752
v -1.832550 1.056695 -0.109752
vt 0.000000 0.000000
vt 1.000000 0.000000
vt 0.000000 1.000000
vt 1.000000 1.000000
vt 0.000000 0.000000
vt 1.000000 0.000000
vt 1.000000 1.000000
vt 0.000000 1.000000
vt 0.000000 0.000000
vt 1.000000 0.000000
vt 1.000000 1.000000
vt 0.000000 1.000000
vt 0.000000 0.000000
vt 1.000000 0.000000
vt 1.000000 1.000000
vt 0.000000 1.000000
vt 0.000000 0.000000
vt 1.000000 0.000000
vt 1.000000 1.000000
vt 0.000000 1.000000
vn 0.417428 0.896233 0.150070
vn 0.417428 0.896233 0.150070
vn 0.417428 0.896233 0.150070
vn 0.417428 0.896233 0.150070
vn 0.274701 0.896233 0.348290
vn 0.274701 0.896233 0.348290
vn 0.274701 0.896233 0.348290
vn 0.274701 0.896233 0.348290
vn 0.779810 0.604095 0.164212
vn 0.779810 0.604095 0.164212
vn 0.779810 0.604095 0.164212
vn 0.779810 0.604095 0.164212
vn 0.462558 0.788389 -0.405565
vn 0.462558 0.788389 -0.405565
vn 0.462558 0.788389 -0.405565
vn 0.462558 0.788389 -0.405565
vn -0.796912 0.604095 0.000000
vn -0.796912 0.604095 0.000000
vn -0.796912 0.604095 0.000000
vn -0.796912 0.604095 0.000000
s off
f 1/1/1 2/2/2 4/4/3 3/3/4
f 5/5/5 6/6/6 8/7/7 7/8/8
f 9/9/9 10/10/10 12/11/11 11/12/12
f 13/13/13 14/14/14 16/15/15 15/16/16
f 17/17/17 18/18/18 20/19/19 19/20/20
