# This file uses centimeters as units for non-parametric coordinates.

mtllib Mond.mtl
g default
v 1.116778 0.869868 -0.141082
v 1.090290 0.869868 -0.279939
v 1.046607 0.869868 -0.414381
v 0.986418 0.869868 -0.542288
v 0.910673 0.869868 -0.661643
v 0.820566 0.869868 -0.770563
v 0.717519 0.869868 -0.867331
v 0.603155 0.869868 -0.950421
v 0.479280 0.869868 -1.018522
v 0.347846 0.869868 -1.070560
v 0.210926 0.869868 -1.105716
v 0.070680 0.869868 -1.123433
v -0.070680 0.869868 -1.123433
v -0.210927 0.869868 -1.105716
v -0.347846 0.869868 -1.070560
v -0.479280 0.869868 -1.018522
v -0.603155 0.869868 -0.950421
v -0.717519 0.869868 -0.867331
v -0.820566 0.869868 -0.770563
v -0.910673 0.869868 -0.661642
v -0.986418 0.869868 -0.542288
v -1.046606 0.869868 -0.414381
v -1.090289 0.869868 -0.279939
v -1.116778 0.869868 -0.141082
v -1.125654 0.869868 0.000000
v -1.116778 0.869868 0.141082
v -1.090289 0.869868 0.279939
v -1.046606 0.869868 0.414381
v -0.986418 0.869868 0.542288
v -0.910673 0.869868 0.661643
v -0.820566 0.869868 0.770563
v -0.717518 0.869868 0.867331
v -0.603155 0.869868 0.950421
v -0.479280 0.869868 1.018522
v -0.347846 0.869868 1.070560
v -0.210926 0.869868 1.105715
v -0.070680 0.869868 1.123432
v 0.070680 0.869868 1.123432
v 0.210927 0.869868 1.105715
v 0.347846 0.869868 1.070560
v 0.479280 0.869868 1.018521
v 0.603155 0.869868 0.950420
v 0.717518 0.869868 0.867331
v 0.820566 0.869868 0.770563
v 0.910672 0.869868 0.661642
v 0.986417 0.869868 0.542287
v 1.046606 0.869868 0.414381
v 1.090289 0.869868 0.279939
v 1.116777 0.869868 0.141082
v 1.125653 0.869868 0.000000
v 0.992116 0.971953 -0.125333
v 0.968584 0.971953 -0.248690
v 0.929777 0.971953 -0.368125
v 0.876307 0.971953 -0.481754
v 0.809018 0.971953 -0.587786
v 0.728969 0.971953 -0.684548
v 0.637425 0.971953 -0.770514
v 0.535827 0.971953 -0.844329
v 0.425780 0.971953 -0.904828
v 0.309017 0.971953 -0.951057
v 0.187381 0.971953 -0.982288
v 0.062790 0.971953 -0.998028
v -0.062791 0.971953 -0.998028
v -0.187382 0.971953 -0.982288
v -0.309017 0.971953 -0.951057
v -0.425780 0.971953 -0.904828
v -0.535827 0.971953 -0.844328
v -0.637424 0.971953 -0.770514
v -0.728969 0.971953 -0.684547
v -0.809018 0.971953 -0.587786
v -0.876307 0.971953 -0.481754
v -0.929777 0.971953 -0.368125
v -0.968584 0.971953 -0.248690
v -0.992115 0.971953 -0.125333
v -1.000001 0.971953 0.000000
v -0.992115 0.971953 0.125333
v -0.968584 0.971953 0.248690
v -0.929777 0.971953 0.368125
v -0.876307 0.971953 0.481754
v -0.809017 0.971953 0.587786
v -0.728969 0.971953 0.684547
v -0.637424 0.971953 0.770514
v -0.535827 0.971953 0.844328
v -0.425779 0.971953 0.904827
v -0.309017 0.971953 0.951057
v -0.187381 0.971953 0.982288
v -0.062790 0.971953 0.998027
v 0.062791 0.971953 0.998027
v 0.187381 0.971953 0.982287
v 0.309017 0.971953 0.951057
v 0.425779 0.971953 0.904827
v 0.535827 0.971953 0.844328
v 0.637424 0.971953 0.770513
v 0.728969 0.971953 0.684547
v 0.809017 0.971953 0.587785
v 0.876307 0.971953 0.481754
v 0.929776 0.971953 0.368125
v 0.968583 0.971953 0.248690
v 0.992115 0.971953 0.125333
v 1.000000 0.971953 0.000000
v 0.000000 1.151769 0.000000
v 0.614561 1.074041 -0.077637
v 0.599984 1.074041 -0.154050
v 0.575945 1.074041 -0.228033
v 0.542824 1.074041 -0.298420
v 0.501142 1.074041 -0.364101
v 0.451556 1.074041 -0.424040
v 0.394849 1.074041 -0.477291
v 0.331915 1.074041 -0.523015
v 0.263747 1.074041 -0.560491
v 0.191419 1.074041 -0.589127
v 0.116072 1.074041 -0.608473
v 0.038895 1.074041 -0.618223
v -0.038895 1.074041 -0.618223
v -0.116072 1.074041 -0.608473
v -0.191419 1.074041 -0.589127
v -0.263747 1.074041 -0.560491
v -0.331915 1.074041 -0.523015
v -0.394849 1.074041 -0.477291
v -0.451556 1.074041 -0.424039
v -0.501142 1.074041 -0.364101
v -0.542824 1.074041 -0.298420
v -0.575945 1.074041 -0.228033
v -0.599984 1.074041 -0.154050
v -0.614561 1.074041 -0.077637
v -0.619445 1.074041 0.000000
v -0.614561 1.074041 0.077637
v -0.599984 1.074041 0.154050
v -0.575945 1.074041 0.228033
v -0.542824 1.074041 0.298420
v -0.501142 1.074041 0.364101
v -0.451556 1.074041 0.424039
v -0.394849 1.074041 0.477291
v -0.331915 1.074041 0.523015
v -0.263747 1.074041 0.560490
v -0.191419 1.074041 0.589127
v -0.116072 1.074041 0.608473
v -0.038895 1.074041 0.618223
v 0.038895 1.074041 0.618223
v 0.116072 1.074041 0.608473
v 0.191419 1.074041 0.589127
v 0.263747 1.074041 0.560490
v 0.331915 1.074041 0.523014
v 0.394849 1.074041 0.477290
v 0.451556 1.074041 0.424039
v 0.501141 1.074041 0.364100
v 0.542824 1.074041 0.298420
v 0.575945 1.074041 0.228033
v 0.599984 1.074041 0.154050
v 0.614560 1.074041 0.077637
v 0.619445 1.074041 0.000000
vt 0.981542 0.560953
vt 0.970120 0.620945
vt 0.917642 0.607444
vt 0.927789 0.554149
vt 0.951285 0.679029
vt 0.900909 0.659045
vt 0.925332 0.734290
vt 0.877854 0.708137
vt 0.892672 0.785856
vt 0.848839 0.753947
vt 0.853819 0.832914
vt 0.814323 0.795752
vt 0.809386 0.874722
vt 0.774850 0.832893
vt 0.760074 0.910620
vt 0.731043 0.864784
vt 0.706660 0.940043
vt 0.683591 0.890922
vt 0.649987 0.962525
vt 0.633245 0.910895
vt 0.590949 0.977714
vt 0.580797 0.924388
vt 0.530477 0.985368
vt 0.527075 0.931188
vt 0.469523 0.985368
vt 0.472926 0.931188
vt 0.409051 0.977714
vt 0.419203 0.924388
vt 0.350013 0.962525
vt 0.366755 0.910895
vt 0.293340 0.940043
vt 0.316409 0.890922
vt 0.239927 0.910620
vt 0.268958 0.864784
vt 0.190614 0.874722
vt 0.225150 0.832893
vt 0.146182 0.832914
vt 0.185677 0.795752
vt 0.107329 0.785856
vt 0.151161 0.753947
vt 0.074668 0.734290
vt 0.122147 0.708137
vt 0.048716 0.679029
vt 0.099091 0.659045
vt 0.029880 0.620945
vt 0.082358 0.607444
vt 0.018459 0.560953
vt 0.072212 0.554149
vt 0.014631 0.500000
vt 0.068812 0.500000
vt 0.018459 0.439047
vt 0.072212 0.445851
vt 0.029880 0.379055
vt 0.082358 0.392556
vt 0.048716 0.320970
vt 0.099091 0.340955
vt 0.074668 0.265709
vt 0.122147 0.291863
vt 0.107329 0.214143
vt 0.151161 0.246053
vt 0.146182 0.167085
vt 0.185677 0.204247
vt 0.190615 0.125278
vt 0.225150 0.167107
vt 0.239927 0.089379
vt 0.268958 0.135216
vt 0.293340 0.059957
vt 0.316409 0.109078
vt 0.350013 0.037474
vt 0.366756 0.089105
vt 0.409051 0.022286
vt 0.419204 0.075612
vt 0.469524 0.014631
vt 0.472926 0.068812
vt 0.530477 0.014631
vt 0.527075 0.068812
vt 0.590949 0.022286
vt 0.580797 0.075612
vt 0.649987 0.037475
vt 0.633245 0.089105
vt 0.706660 0.059957
vt 0.683591 0.109078
vt 0.760074 0.089380
vt 0.731042 0.135216
vt 0.809386 0.125278
vt 0.774850 0.167107
vt 0.853819 0.167086
vt 0.814323 0.204248
vt 0.892671 0.214143
vt 0.848839 0.246053
vt 0.925332 0.265710
vt 0.877853 0.291863
vt 0.951284 0.320971
vt 0.900909 0.340955
vt 0.970120 0.379055
vt 0.917642 0.392556
vt 0.981541 0.439047
vt 0.927788 0.445851
vt 0.985368 0.500000
vt 0.931188 0.500000
vt 0.764992 0.533542
vt 0.758706 0.566556
vt 0.500000 0.500000
vt 0.748341 0.598519
vt 0.734059 0.628929
vt 0.716087 0.657306
vt 0.694706 0.683202
vt 0.670254 0.706209
vt 0.643118 0.725964
vt 0.613725 0.742155
vt 0.582538 0.754527
vt 0.550049 0.762885
vt 0.516771 0.767097
vt 0.483229 0.767097
vt 0.449951 0.762885
vt 0.417462 0.754527
vt 0.386276 0.742155
vt 0.356882 0.725964
vt 0.329746 0.706209
vt 0.305294 0.683202
vt 0.283914 0.657306
vt 0.265941 0.628929
vt 0.251659 0.598519
vt 0.241294 0.566556
vt 0.235009 0.533542
vt 0.232903 0.500000
vt 0.235009 0.466457
vt 0.241294 0.433444
vt 0.251659 0.401480
vt 0.265941 0.371070
vt 0.283914 0.342694
vt 0.305295 0.316798
vt 0.329746 0.293791
vt 0.356882 0.274036
vt 0.386276 0.257845
vt 0.417463 0.245473
vt 0.449951 0.237115
vt 0.483229 0.232902
vt 0.516771 0.232903
vt 0.550049 0.237115
vt 0.582538 0.245473
vt 0.613725 0.257845
vt 0.643118 0.274036
vt 0.670254 0.293791
vt 0.694706 0.316798
vt 0.716086 0.342694
vt 0.734059 0.371070
vt 0.748341 0.401480
vt 0.758706 0.433444
vt 0.764991 0.466457
vt 0.767097 0.500000
vn 0.625590 0.776139 -0.079028
vn 0.610752 0.776139 -0.156814
vn 0.390779 0.915000 -0.100335
vn 0.400273 0.915000 -0.050565
vn 0.586282 0.776139 -0.232125
vn 0.375122 0.915000 -0.148521
vn 0.552566 0.776139 -0.303775
vn 0.353550 0.915000 -0.194365
vn 0.510135 0.776139 -0.370635
vn 0.326401 0.915000 -0.237145
vn 0.459660 0.776139 -0.431649
vn 0.294105 0.915000 -0.276183
vn 0.401935 0.776139 -0.485856
vn 0.257171 0.915000 -0.310866
vn 0.337872 0.776139 -0.532401
vn 0.216181 0.915000 -0.340648
vn 0.268480 0.776139 -0.570550
vn 0.171782 0.915000 -0.365056
vn 0.194854 0.776139 -0.599700
vn 0.124674 0.915000 -0.383708
vn 0.118156 0.776139 -0.619393
vn 0.075600 0.915000 -0.396308
vn 0.039593 0.776139 -0.629317
vn 0.025333 0.915000 -0.402658
vn -0.039593 0.776139 -0.629317
vn -0.025333 0.915000 -0.402658
vn -0.118156 0.776139 -0.619392
vn -0.075600 0.915000 -0.396308
vn -0.194855 0.776139 -0.599700
vn -0.124674 0.915000 -0.383708
vn -0.268480 0.776139 -0.570549
vn -0.171783 0.915000 -0.365056
vn -0.337872 0.776139 -0.532401
vn -0.216182 0.915000 -0.340648
vn -0.401935 0.776139 -0.485856
vn -0.257172 0.915000 -0.310867
vn -0.459660 0.776139 -0.431649
vn -0.294106 0.915000 -0.276183
vn -0.510136 0.776139 -0.370635
vn -0.326401 0.915000 -0.237144
vn -0.552566 0.776139 -0.303776
vn -0.353550 0.915000 -0.194366
vn -0.586282 0.776139 -0.232125
vn -0.375122 0.915000 -0.148521
vn -0.610752 0.776139 -0.156814
vn -0.390779 0.915000 -0.100335
vn -0.625590 0.776139 -0.079030
vn -0.400273 0.915000 -0.050566
vn -0.630562 0.776139 0.000000
vn -0.403454 0.915000 -0.000000
vn -0.625590 0.776139 0.079030
vn -0.400273 0.915000 0.050566
vn -0.610752 0.776139 0.156814
vn -0.390779 0.915000 0.100335
vn -0.586281 0.776139 0.232125
vn -0.375122 0.915000 0.148522
vn -0.552565 0.776139 0.303776
vn -0.353550 0.915000 0.194366
vn -0.510135 0.776139 0.370635
vn -0.326401 0.915000 0.237145
vn -0.459660 0.776139 0.431650
vn -0.294105 0.915000 0.276184
vn -0.401935 0.776139 0.485856
vn -0.257171 0.915000 0.310867
vn -0.337872 0.776139 0.532401
vn -0.216181 0.915000 0.340648
vn -0.268480 0.776139 0.570549
vn -0.171782 0.915000 0.365056
vn -0.194854 0.776139 0.599700
vn -0.124674 0.915000 0.383708
vn -0.118155 0.776139 0.619393
vn -0.075600 0.915000 0.396308
vn -0.039593 0.776139 0.629317
vn -0.025333 0.915000 0.402658
vn 0.039594 0.776139 0.629317
vn 0.025333 0.915000 0.402658
vn 0.118156 0.776139 0.619392
vn 0.075600 0.915000 0.396308
vn 0.194855 0.776139 0.599700
vn 0.124674 0.915000 0.383708
vn 0.268480 0.776139 0.570549
vn 0.171783 0.915000 0.365056
vn 0.337872 0.776139 0.532401
vn 0.216182 0.915000 0.340648
vn 0.401936 0.776139 0.485856
vn 0.257172 0.915000 0.310867
vn 0.459660 0.776139 0.431649
vn 0.294106 0.915000 0.276183
vn 0.510135 0.776139 0.370635
vn 0.326402 0.915000 0.237144
vn 0.552566 0.776139 0.303776
vn 0.353550 0.915000 0.194366
vn 0.586282 0.776139 0.232125
vn 0.375123 0.915000 0.148521
vn 0.610752 0.776139 0.156814
vn 0.390779 0.915000 0.100335
vn 0.625590 0.776139 0.079030
vn 0.400273 0.915000 0.050566
vn 0.630562 0.776139 0.000002
vn 0.403454 0.915000 0.000002
vn 0.209555 0.977438 -0.026472
vn 0.204584 0.977438 -0.052529
vn 0.000000 1.000000 -0.000000
vn 0.196388 0.977439 -0.077755
vn 0.185094 0.977439 -0.101756
vn 0.170881 0.977438 -0.124154
vn 0.153973 0.977438 -0.144591
vn 0.134637 0.977439 -0.162747
vn 0.113177 0.977439 -0.178339
vn 0.089933 0.977439 -0.191118
vn 0.065271 0.977439 -0.200883
vn 0.039579 0.977438 -0.207479
vn 0.013263 0.977438 -0.210804
vn -0.013263 0.977439 -0.210804
vn -0.039579 0.977439 -0.207479
vn -0.065271 0.977438 -0.200883
vn -0.089933 0.977438 -0.191118
vn -0.113178 0.977438 -0.178339
vn -0.134637 0.977438 -0.162748
vn -0.153973 0.977439 -0.144590
vn -0.170881 0.977438 -0.124152
vn -0.185094 0.977438 -0.101757
vn -0.196388 0.977439 -0.077755
vn -0.204585 0.977439 -0.052528
vn -0.209555 0.977438 -0.026474
vn -0.211220 0.977439 -0.000001
vn -0.209555 0.977438 0.026473
vn -0.204585 0.977438 0.052529
vn -0.196388 0.977438 0.077756
vn -0.185094 0.977438 0.101757
vn -0.170881 0.977438 0.124152
vn -0.153973 0.977439 0.144590
vn -0.134637 0.977438 0.162748
vn -0.113177 0.977439 0.178339
vn -0.089933 0.977439 0.191118
vn -0.065271 0.977439 0.200883
vn -0.039579 0.977439 0.207479
vn -0.013263 0.977438 0.210804
vn 0.013263 0.977438 0.210804
vn 0.039579 0.977438 0.207479
vn 0.065271 0.977439 0.200883
vn 0.089933 0.977439 0.191118
vn 0.113178 0.977438 0.178339
vn 0.134637 0.977439 0.162748
vn 0.153973 0.977438 0.144591
vn 0.170881 0.977438 0.124152
vn 0.185094 0.977439 0.101756
vn 0.196388 0.977439 0.077754
vn 0.204585 0.977439 0.052527
vn 0.209555 0.977439 0.026473
vn 0.211220 0.977439 0.000002
s 1
g pCylinder1
usemtl initialShadingGroup
f 1/1/1 2/2/2 52/3/3 51/4/4
f 2/2/2 3/5/5 53/6/6 52/3/3
f 3/5/5 4/7/7 54/8/8 53/6/6
f 4/7/7 5/9/9 55/10/10 54/8/8
f 5/9/9 6/11/11 56/12/12 55/10/10
f 6/11/11 7/13/13 57/14/14 56/12/12
f 7/13/13 8/15/15 58/16/16 57/14/14
f 8/15/15 9/17/17 59/18/18 58/16/16
f 9/17/17 10/19/19 60/20/20 59/18/18
f 10/19/19 11/21/21 61/22/22 60/20/20
f 11/21/21 12/23/23 62/24/24 61/22/22
f 12/23/23 13/25/25 63/26/26 62/24/24
f 13/25/25 14/27/27 64/28/28 63/26/26
f 14/27/27 15/29/29 65/30/30 64/28/28
f 15/29/29 16/31/31 66/32/32 65/30/30
f 16/31/31 17/33/33 67/34/34 66/32/32
f 17/33/33 18/35/35 68/36/36 67/34/34
f 18/35/35 19/37/37 69/38/38 68/36/36
f 19/37/37 20/39/39 70/40/40 69/38/38
f 20/39/39 21/41/41 71/42/42 70/40/40
f 21/41/41 22/43/43 72/44/44 71/42/42
f 22/43/43 23/45/45 73/46/46 72/44/44
f 23/45/45 24/47/47 74/48/48 73/46/46
f 24/47/47 25/49/49 75/50/50 74/48/48
f 25/49/49 26/51/51 76/52/52 75/50/50
f 26/51/51 27/53/53 77/54/54 76/52/52
f 27/53/53 28/55/55 78/56/56 77/54/54
f 28/55/55 29/57/57 79/58/58 78/56/56
f 29/57/57 30/59/59 80/60/60 79/58/58
f 30/59/59 31/61/61 81/62/62 80/60/60
f 31/61/61 32/63/63 82/64/64 81/62/62
f 32/63/63 33/65/65 83/66/66 82/64/64
f 33/65/65 34/67/67 84/68/68 83/66/66
f 34/67/67 35/69/69 85/70/70 84/68/68
f 35/69/69 36/71/71 86/72/72 85/70/70
f 36/71/71 37/73/73 87/74/74 86/72/72
f 37/73/73 38/75/75 88/76/76 87/74/74
f 38/75/75 39/77/77 89/78/78 88/76/76
f 39/77/77 40/79/79 90/80/80 89/78/78
f 40/79/79 41/81/81 91/82/82 90/80/80
f 41/81/81 42/83/83 92/84/84 91/82/82
f 42/83/83 43/85/85 93/86/86 92/84/84
f 43/85/85 44/87/87 94/88/88 93/86/86
f 44/87/87 45/89/89 95/90/90 94/88/88
f 45/89/89 46/91/91 96/92/92 95/90/90
f 46/91/91 47/93/93 97/94/94 96/92/92
f 47/93/93 48/95/95 98/96/96 97/94/94
f 48/95/95 49/97/97 99/98/98 98/96/96
f 49/97/97 50/99/99 100/100/100 99/98/98
f 50/99/99 1/1/1 51/4/4 100/100/100
f 102/101/101 103/102/102 101/103/103
f 103/102/102 104/104/104 101/103/103
f 104/104/104 105/105/105 101/103/103
f 105/105/105 106/106/106 101/103/103
f 106/106/106 107/107/107 101/103/103
f 107/107/107 108/108/108 101/103/103
f 108/108/108 109/109/109 101/103/103
f 109/109/109 110/110/110 101/103/103
f 110/110/110 111/111/111 101/103/103
f 111/111/111 112/112/112 101/103/103
f 112/112/112 113/113/113 101/103/103
f 113/113/113 114/114/114 101/103/103
f 114/114/114 115/115/115 101/103/103
f 115/115/115 116/116/116 101/103/103
f 116/116/116 117/117/117 101/103/103
f 117/117/117 118/118/118 101/103/103
f 118/118/118 119/119/119 101/103/103
f 119/119/119 120/120/120 101/103/103
f 120/120/120 121/121/121 101/103/103
f 121/121/121 122/122/122 101/103/103
f 122/122/122 123/123/123 101/103/103
f 123/123/123 124/124/124 101/103/103
f 124/124/124 125/125/125 101/103/103
f 125/125/125 126/126/126 101/103/103
f 126/126/126 127/127/127 101/103/103
f 127/127/127 128/128/128 101/103/103
f 128/128/128 129/129/129 101/103/103
f 129/129/129 130/130/130 101/103/103
f 130/130/130 131/131/131 101/103/103
f 131/131/131 132/132/132 101/103/103
f 132/132/132 133/133/133 101/103/103
f 133/133/133 134/134/134 101/103/103
f 134/134/134 135/135/135 101/103/103
f 135/135/135 136/136/136 101/103/103
f 136/136/136 137/137/137 101/103/103
f 137/137/137 138/138/138 101/103/103
f 138/138/138 139/139/139 101/103/103
f 139/139/139 140/140/140 101/103/103
f 140/140/140 141/141/141 101/103/103
f 141/141/141 142/142/142 101/103/103
f 142/142/142 143/143/143 101/103/103
f 143/143/143 144/144/144 101/103/103
f 144/144/144 145/145/145 101/103/103
f 145/145/145 146/146/146 101/103/103
f 146/146/146 147/147/147 101/103/103
f 147/147/147 148/148/148 101/103/103
f 148/148/148 149/149/149 101/103/103
f 149/149/149 150/150/150 101/103/103
f 150/150/150 151/151/151 101/103/103
f 151/151/151 102/101/101 101/103/103
f 100/100/100 51/4/4 102/101/101 151/151/151
f 51/4/4 52/3/3 103/102/102 102/101/101
f 52/3/3 53/6/6 104/104/104 103/102/102
f 53/6/6 54/8/8 105/105/105 104/104/104
f 54/8/8 55/10/10 106/106/106 105/105/105
f 55/10/10 56/12/12 107/107/107 106/106/106
f 56/12/12 57/14/14 108/108/108 107/107/107
f 57/14/14 58/16/16 109/109/109 108/108/108
f 58/16/16 59/18/18 110/110/110 109/109/109
f 59/18/18 60/20/20 111/111/111 110/110/110
f 60/20/20 61/22/22 112/112/112 111/111/111
f 61/22/22 62/24/24 113/113/113 112/112/112
f 62/24/24 63/26/26 114/114/114 113/113/113
f 63/26/26 64/28/28 115/115/115 114/114/114
f 64/28/28 65/30/30 116/116/116 115/115/115
f 65/30/30 66/32/32 117/117/117 116/116/116
f 66/32/32 67/34/34 118/118/118 117/117/117
f 67/34/34 68/36/36 119/119/119 118/118/118
f 68/36/36 69/38/38 120/120/120 119/119/119
f 69/38/38 70/40/40 121/121/121 120/120/120
f 70/40/40 71/42/42 122/122/122 121/121/121
f 71/42/42 72/44/44 123/123/123 122/122/122
f 72/44/44 73/46/46 124/124/124 123/123/123
f 73/46/46 74/48/48 125/125/125 124/124/124
f 74/48/48 75/50/50 126/126/126 125/125/125
f 75/50/50 76/52/52 127/127/127 126/126/126
f 76/52/52 77/54/54 128/128/128 127/127/127
f 77/54/54 78/56/56 129/129/129 128/128/128
f 78/56/56 79/58/58 130/130/130 129/129/129
f 79/58/58 80/60/60 131/131/131 130/130/130
f 80/60/60 81/62/62 132/132/132 131/131/131
f 81/62/62 82/64/64 133/133/133 132/132/132
f 82/64/64 83/66/66 134/134/134 133/133/133
f 83/66/66 84/68/68 135/135/135 134/134/134
f 84/68/68 85/70/70 136/136/136 135/135/135
f 85/70/70 86/72/72 137/137/137 136/136/136
f 86/72/72 87/74/74 138/138/138 137/137/137
f 87/74/74 88/76/76 139/139/139 138/138/138
f 88/76/76 89/78/78 140/140/140 139/139/139
f 89/78/78 90/80/80 141/141/141 140/140/140
f 90/80/80 91/82/82 142/142/142 141/141/141
f 91/82/82 92/84/84 143/143/143 142/142/142
f 92/84/84 93/86/86 144/144/144 143/143/143
f 93/86/86 94/88/88 145/145/145 144/144/144
f 94/88/88 95/90/90 146/146/146 145/145/145
f 95/90/90 96/92/92 147/147/147 146/146/146
f 96/92/92 97/94/94 148/148/148 147/147/147
f 97/94/94 98/96/96 149/149/149 148/148/148
f 98/96/96 99/98/98 150/150/150 149/149/149
f 99/98/98 100/100/100 151/151/151 150/150/150
