# Blender v2.93.5 OBJ File: 'Dachwand.blend'
# www.blender.org
mtllib Dachbalken_anDachfenster_Planke.mtl
o Plank05_LP.001_Test_no_back_Plank_05_NEU:006.008
v 3.362969 0.204810 -1.090016
v 3.253800 0.132237 -1.071782
v 3.091531 0.031534 -1.085621
v 3.091249 0.031864 -1.241047
v 3.093799 0.031468 -1.424366
v 3.266054 0.140421 -1.239506
v 3.424370 0.252773 -1.181813
v 3.405672 0.233268 -1.148167
v 3.239938 0.122980 -1.982670
v 3.127667 0.055693 -1.985752
v 3.417642 0.256211 -1.973820
v 3.225773 0.113536 -2.348820
v 3.094507 0.036838 -2.222370
v 3.420931 0.251182 -2.324482
v 3.253190 0.131830 -3.302403
v 3.416881 0.252335 -3.288472
v 3.091754 0.026614 -3.311879
v 3.131073 0.047523 -3.424610
v 3.148050 0.061035 -3.415120
v 3.149095 0.059233 -3.539296
v 3.162009 0.069022 -3.534504
v 3.167494 0.072996 -3.714573
v 3.114438 0.037793 -3.583714
v 3.094338 0.028106 -3.582936
v 3.098405 0.033869 -3.715962
v 3.237823 0.121566 -3.444691
v 3.406462 0.259186 -3.443043
v 3.184057 0.085481 -3.713292
v 3.185942 0.086914 -3.808537
v 3.178531 0.081808 -3.811589
v 3.104152 0.036311 -3.816731
v 3.248732 0.128853 -4.066349
v 3.245066 0.126404 -3.799977
v 3.324429 0.206975 -5.372700
v 3.398745 0.258630 -5.365269
v 3.401562 0.250819 -5.360508
v 3.339519 0.198072 -5.366581
v 3.251896 0.155179 -5.371434
v 3.259036 0.142545 -5.364430
v 3.227348 0.114888 -5.264637
v 3.223368 0.117654 -5.335011
v 3.273983 0.145738 -5.282719
v 3.356993 0.201271 -5.283146
v 3.415170 0.250378 -5.298527
v 3.081602 0.015468 -5.366246
v 3.090233 0.025041 -5.416813
v 3.207026 0.112471 -5.371296
v 3.180585 0.075860 -5.310871
v 3.283195 0.151873 -5.091420
v 3.185610 0.082995 -5.101338
v 3.216609 0.132202 -5.339421
v 3.201235 0.125361 -5.372807
v 3.075632 0.031974 -5.419850
v 3.191654 0.140686 -5.371189
v 3.068083 0.042386 -5.419834
v 3.398452 0.235533 -3.785786
v 3.411004 0.242596 -4.054997
v 3.246785 0.127552 -4.605229
v 3.420926 0.251320 -4.609349
v 3.103548 0.039604 -4.069218
v 3.085790 0.043648 -4.611088
v 3.244854 0.173370 -5.373524
v 3.306816 0.217367 -5.374211
v 3.385502 0.270451 -5.359516
v 3.205741 0.150858 -5.340794
v 3.071213 0.027580 -5.362629
v 3.061656 0.045184 -5.358326
v 3.089908 0.021314 -5.099171
v 3.093353 0.037923 -4.835240
v 3.068703 0.049343 -5.149540
v 3.158753 0.111505 1.073558
v 3.169419 0.095788 1.074077
v 3.202363 0.120539 1.066967
v 3.191004 0.132584 1.068645
v 3.080901 0.060577 1.059963
v 3.089273 0.047977 1.060787
v 3.069942 0.058299 0.943248
v 3.078527 0.038752 0.952068
v 3.080712 0.041618 1.018993
v 3.070826 0.057027 1.017192
v 3.158408 0.118558 1.031276
v 3.170707 0.126787 0.997127
v 3.194387 0.147903 -5.211552
v 3.076749 0.065678 -4.612477
v 3.073695 0.061191 -4.842961
v 3.187551 0.143486 -4.612461
v 3.189673 0.144866 -4.908940
v 3.283785 0.207764 -4.606556
v 3.290866 0.212494 -4.920384
v 3.417745 0.249913 -5.102482
v 3.410057 0.263253 -5.301960
v 3.397959 0.279697 -5.304600
v 3.398967 0.279754 -4.918934
v 3.394313 0.278756 -4.600865
v 3.296259 0.216077 -5.290226
v 3.400120 0.278228 -5.106816
v 3.231311 0.144479 1.029338
v 3.219469 0.157270 1.033550
v 3.090913 0.027905 1.015514
v 3.097542 0.039468 1.058818
v 3.332195 0.190368 1.060207
v 3.320651 0.177348 0.850078
v 3.340878 0.186839 0.859127
v 3.178006 0.088760 1.073940
v 3.206114 0.106314 1.060955
v 3.235840 0.132577 1.026638
v 3.250082 0.162303 0.959911
v 3.260566 0.151920 0.958309
v 3.086942 0.025485 0.952724
v 3.249877 0.129685 0.837520
v 3.428869 0.256965 1.088161
v 3.417775 0.242293 1.090343
v 3.438209 0.264732 1.056469
v 3.428879 0.250844 0.863964
v 3.423740 0.267051 1.088741
v 3.432524 0.273504 1.061306
v 3.259814 0.136254 -0.933232
v 3.091823 0.031228 -0.944142
v 3.248265 0.128540 -0.593113
v 3.092296 0.030546 -0.596867
v 3.363878 0.204791 -1.022786
v 3.348844 0.195458 -0.758290
v 3.378082 0.213876 -0.461811
v 3.347503 0.193737 -0.463780
v 3.380860 0.214241 -1.020192
v 3.392431 0.221819 -1.086506
v 3.393969 0.223251 -1.019398
v 3.433134 0.256154 -1.151707
v 3.429093 0.253722 -1.017125
v 3.081109 0.064819 0.291515
v 3.073068 0.058773 0.664913
v 3.242837 0.180412 0.658229
v 3.237058 0.176552 0.297680
v 3.414041 0.276570 0.656673
v 3.400612 0.275316 0.300777
v 3.421896 0.257475 -0.363026
v 3.336853 0.185739 0.654430
v 3.433291 0.251582 0.656826
v 3.326823 0.180783 -0.365757
v 3.417526 0.244709 0.190929
v 3.335298 0.185600 0.193264
v 3.091932 0.032080 0.667690
v 3.092168 0.050382 0.249584
v 3.090210 0.028021 0.818508
v 3.100771 0.034277 -0.208683
v 3.323065 0.203290 1.061092
v 3.407427 0.252949 1.094951
v 3.244021 0.174371 0.955806
v 3.414024 0.277318 1.085613
v 3.395084 0.266186 1.091213
v 3.317346 0.220592 1.052974
v 3.411960 0.275234 0.886638
v 3.344459 0.243140 0.843914
v 3.425959 0.281399 1.063045
vt 0.519676 0.491528
vt 0.498674 0.494430
vt 0.468075 0.492166
vt 0.468102 0.467247
vt 0.468444 0.437867
vt 0.501081 0.467532
vt 0.532191 0.476797
vt 0.527914 0.482228
vt 0.496159 0.348412
vt 0.475181 0.347899
vt 0.531754 0.349864
vt 0.493479 0.289722
vt 0.469098 0.309971
vt 0.531752 0.293656
vt 0.498893 0.136886
vt 0.531470 0.139159
vt 0.468007 0.135352
vt 0.475113 0.117284
vt 0.478586 0.118813
vt 0.478537 0.098916
vt 0.481135 0.099682
vt 0.482176 0.070821
vt 0.471998 0.091805
vt 0.468421 0.091929
vt 0.469449 0.070602
vt 0.495936 0.114068
vt 0.530822 0.114320
vt 0.485501 0.071022
vt 0.485859 0.055755
vt 0.484416 0.055267
vt 0.470440 0.054452
vt 0.497913 0.014419
vt 0.497256 0.057113
vt 0.614158 0.028542
vt 0.602288 0.034415
vt 0.601193 0.033946
vt 0.611757 0.026511
vt 0.628415 0.025967
vt 0.628320 0.023478
vt 0.562821 0.040135
vt 0.565479 0.028674
vt 0.573615 0.025791
vt 0.572109 0.039273
vt 0.589047 0.029214
vt 0.586957 0.042783
vt 0.598266 0.043526
vt 0.669420 0.032349
vt 0.666653 0.023602
vt 0.691245 0.024929
vt 0.687595 0.036432
vt 0.569058 0.072055
vt 0.695510 0.030458
vt 0.697675 0.042812
vt 0.690329 0.071102
vt 0.709553 0.072512
vt 0.637138 0.023406
vt 0.637166 0.026147
vt 0.643341 0.024768
vt 0.643870 0.022612
vt 0.666088 0.025265
vt 0.642887 0.027641
vt 0.664998 0.026632
vt 0.527429 0.059350
vt 0.602300 0.239502
vt 0.569963 0.239913
vt 0.562821 0.152367
vt 0.596974 0.150861
vt 0.529674 0.016200
vt 0.470600 0.013982
vt 0.668773 0.150787
vt 0.697962 0.153438
vt 0.690001 0.240782
vt 0.662633 0.238041
vt 0.628172 0.028903
vt 0.616648 0.030879
vt 0.604527 0.036084
vt 0.637663 0.030748
vt 0.667179 0.033440
vt 0.664272 0.034757
vt 0.672142 0.072046
vt 0.671393 0.114442
vt 0.666053 0.064640
vt 0.618426 0.290410
vt 0.617284 0.287607
vt 0.623971 0.286823
vt 0.623720 0.289214
vt 0.605676 0.297071
vt 0.604428 0.294977
vt 0.612238 0.313792
vt 0.608351 0.313309
vt 0.605419 0.303678
vt 0.608046 0.303364
vt 0.621962 0.296275
vt 0.603058 0.297541
vt 0.626819 0.300209
vt 0.640069 0.054004
vt 0.664966 0.150373
vt 0.666370 0.113245
vt 0.643142 0.150480
vt 0.642630 0.103158
vt 0.624433 0.151424
vt 0.622880 0.101615
vt 0.596281 0.072914
vt 0.600248 0.043425
vt 0.603210 0.043561
vt 0.602274 0.101767
vt 0.603190 0.152035
vt 0.621434 0.043582
vt 0.601859 0.072518
vt 0.632454 0.289367
vt 0.631262 0.291559
vt 0.603248 0.304724
vt 0.601114 0.298285
vt 0.704516 0.286471
vt 0.706179 0.319447
vt 0.702599 0.317939
vt 0.617130 0.285835
vt 0.623530 0.284473
vt 0.603733 0.293186
vt 0.632861 0.287389
vt 0.644120 0.296880
vt 0.644068 0.294402
vt 0.605780 0.313831
vt 0.585165 0.297665
vt 0.574770 0.306968
vt 0.580202 0.300524
vt 0.578476 0.336935
vt 0.571570 0.318588
vt 0.719904 0.321859
vt 0.717076 0.302514
vt 0.686032 0.281883
vt 0.688959 0.281517
vt 0.684177 0.287063
vt 0.684663 0.317335
vt 0.680922 0.281936
vt 0.682100 0.280619
vt 0.682596 0.286603
vt 0.499823 0.516639
vt 0.468066 0.514850
vt 0.497531 0.571148
vt 0.468007 0.570512
vt 0.519786 0.502302
vt 0.516959 0.544695
vt 0.522362 0.592213
vt 0.516507 0.591891
vt 0.522898 0.502719
vt 0.525121 0.492103
vt 0.525446 0.502847
vt 0.533644 0.481646
vt 0.532894 0.503223
vt 0.626739 0.415428
vt 0.618425 0.356419
vt 0.651592 0.351664
vt 0.656941 0.410841
vt 0.682242 0.349840
vt 0.687096 0.407188
vt 0.532264 0.608047
vt 0.560741 0.337148
vt 0.564548 0.337778
vt 0.568043 0.368578
vt 0.705936 0.349333
vt 0.687245 0.349609
vt 0.512610 0.607612
vt 0.694287 0.424410
vt 0.710527 0.423028
vt 0.719904 0.512490
vt 0.700347 0.513693
vt 0.613208 0.356918
vt 0.624961 0.422588
vt 0.582340 0.439462
vt 0.609274 0.333906
vt 0.469413 0.632742
vt 0.635309 0.495880
vt 0.596432 0.526829
vt 0.660741 0.281631
vt 0.661310 0.284136
vt 0.678763 0.277612
vt 0.677885 0.279847
vt 0.644574 0.299622
vt 0.679539 0.283336
vt 0.676798 0.282512
vt 0.661978 0.287308
vt 0.679480 0.313882
vt 0.666758 0.320291
vt 0.681069 0.286638
vt 0.680917 0.516335
vt 0.634776 0.238377
vn 0.5378 -0.8429 -0.0166
vn 0.5274 -0.8495 0.0158
vn 0.5731 -0.8183 -0.0442
vn 0.5272 -0.8497 -0.0013
vn 0.5907 -0.8068 -0.0053
vn 0.5909 -0.8067 -0.0048
vn 0.5881 -0.8088 0.0075
vn 0.5091 -0.8607 0.0004
vn 0.5873 -0.8093 0.0070
vn 0.5843 -0.8115 -0.0009
vn 0.5841 -0.8117 -0.0011
vn 0.6003 -0.7974 0.0615
vn 0.6098 -0.7924 0.0166
vn 0.5287 -0.8488 0.0030
vn 0.5329 -0.8461 -0.0074
vn 0.4607 -0.8875 0.0019
vn 0.4800 -0.8767 -0.0322
vn 0.5512 -0.8343 0.0098
vn 0.6141 -0.7880 -0.0443
vn 0.5686 -0.8226 0.0012
vn 0.6028 -0.7979 0.0008
vn 0.5924 -0.8056 -0.0037
vn 0.5973 -0.8020 -0.0012
vn 0.5920 -0.8060 -0.0032
vn 0.5082 -0.8612 -0.0059
vn 0.5567 -0.8307 0.0005
vn 0.5568 -0.8307 0.0001
vn 0.5567 -0.8307 -0.0003
vn 0.5568 -0.8307 -0.0003
vn 0.2999 -0.2736 -0.9139
vn 0.2154 -0.3363 -0.9168
vn 0.5340 -0.8431 -0.0641
vn 0.5594 -0.8253 -0.0779
vn 0.6361 -0.7619 -0.1215
vn 0.6026 -0.7863 -0.1367
vn 0.5545 -0.8322 -0.0000
vn 0.6623 -0.7412 -0.1094
vn 0.5995 -0.8004 -0.0031
vn -0.3425 -0.5072 -0.7908
vn 0.2975 0.0879 -0.9507
vn 0.8497 0.2942 -0.4376
vn 0.2120 0.2018 -0.9562
vn 0.6074 -0.7941 0.0207
vn 0.5768 -0.8169 -0.0013
vn 0.5833 -0.8122 0.0012
vn 0.5802 -0.8145 -0.0003
vn 0.5766 -0.8170 0.0030
vn 0.5233 -0.8520 -0.0127
vn 0.4925 -0.8703 -0.0112
vn 0.0464 -0.0854 -0.9953
vn 0.0070 0.1969 -0.9804
vn 0.7545 0.4575 -0.4706
vn -0.5030 -0.3200 -0.8029
vn -0.5994 -0.7813 -0.1738
vn -0.8562 -0.5096 -0.0851
vn -0.5949 0.8013 -0.0635
vn 0.5296 -0.8482 0.0083
vn 0.4955 -0.8686 0.0079
vn 0.5575 -0.8285 0.0530
vn -0.8741 -0.4841 0.0391
vn -0.8050 -0.5918 0.0420
vn -0.8090 -0.5861 0.0435
vn -0.8079 -0.5878 0.0431
vn 0.1357 0.0664 0.9885
vn -0.1392 -0.0466 0.9892
vn -0.8870 -0.4612 0.0245
vn -0.5496 0.8233 0.1418
vn -0.8231 -0.5139 0.2416
vn -0.5781 0.8153 0.0329
vn -0.6055 0.7957 -0.0110
vn -0.6047 0.7964 -0.0105
vn -0.6049 0.7962 -0.0106
vn -0.8451 -0.5347 0.0036
vn -0.5808 0.8141 -0.0038
vn -0.8039 -0.5934 0.0415
vn -0.6058 0.7955 -0.0112
vn -0.5557 0.8314 -0.0001
vn -0.5555 0.8315 -0.0001
vn -0.5558 0.8313 -0.0001
vn 0.6076 -0.7942 0.0095
vn 0.7138 0.6644 -0.2215
vn 0.9391 0.2823 -0.1962
vn 0.9304 0.3665 -0.0114
vn 0.5836 -0.8121 0.0008
vn 0.7855 0.6188 0.0011
vn -0.5344 0.8452 -0.0023
vn -0.5632 0.8243 -0.0581
vn -0.5636 0.8241 -0.0568
vn -0.5665 0.8227 -0.0475
vn -0.5665 0.8227 -0.0471
vn -0.5299 0.8481 0.0046
vn -0.5560 0.8312 -0.0002
vn -0.5192 0.8546 -0.0029
vn 0.8331 0.5532 -0.0000
vn 0.8489 0.5285 0.0009
vn 0.5867 0.3782 0.7161
vn -0.7089 -0.6540 0.2643
vn 0.4121 -0.9105 0.0338
vn 0.3526 -0.0654 0.9335
vn -0.0562 -0.1937 0.9795
vn 0.7650 0.0279 0.6434
vn 0.7999 0.4659 0.3783
vn -0.8184 -0.5712 0.0621
vn 0.5466 -0.8356 0.0555
vn 0.5839 -0.8110 -0.0373
vn 0.5866 -0.8080 0.0559
vn 0.4802 -0.8751 0.0610
vn 0.5915 -0.7891 -0.1659
vn 0.5802 -0.8138 0.0351
vn 0.8516 0.3866 0.3540
vn 0.5300 -0.8480 -0.0012
vn 0.5299 -0.8481 -0.0012
vn 0.5288 -0.8488 -0.0007
vn 0.5332 -0.8460 -0.0012
vn 0.5390 -0.8423 0.0009
vn 0.5513 -0.8343 -0.0018
vn 0.5510 -0.8345 -0.0023
vn 0.5524 -0.8336 0.0003
vn 0.5500 -0.8352 -0.0019
vn 0.5501 -0.8351 -0.0024
vn 0.5501 -0.8351 -0.0021
vn 0.4866 -0.8736 -0.0032
vn 0.4867 -0.8735 -0.0038
vn 0.4863 -0.8738 -0.0042
vn 0.4960 -0.8683 -0.0098
vn 0.5662 -0.8242 0.0046
vn 0.6298 -0.7707 -0.0968
vn 0.5737 -0.8186 -0.0288
vn 0.5526 -0.8334 0.0008
vn 0.6322 -0.7744 0.0268
vn 0.6518 -0.7584 0.0043
vn -0.5824 0.8129 0.0006
vn -0.5032 0.8641 0.0073
vn 0.6370 -0.7708 0.0032
vn 0.4261 -0.9047 -0.0035
vn 0.5743 -0.8186 -0.0017
vn 0.5744 -0.8186 -0.0016
vn 0.5756 -0.8177 0.0013
vn 0.6084 -0.7920 0.0518
vn 0.5476 -0.8367 -0.0002
vn 0.5731 -0.8195 -0.0045
vn 0.6081 -0.7939 -0.0079
vn 0.5375 -0.8433 -0.0029
vn 0.5377 -0.8431 -0.0027
vn 0.5379 -0.8430 -0.0090
vn 0.5073 -0.8616 -0.0186
vn 0.5379 -0.8429 -0.0101
vn 0.5392 -0.8422 0.0004
vn 0.5206 -0.8536 0.0176
vn -0.5358 0.8402 0.0840
vn -0.5682 -0.5441 0.6174
vn -0.1476 -0.3385 0.9293
vn 0.3038 -0.0116 0.9527
vn -0.5628 0.8266 -0.0002
vn -0.5687 0.8225 0.0074
vn -0.5615 0.8274 -0.0019
vn -0.5383 0.8426 0.0154
vn 0.7599 0.5457 0.3532
vn -0.5614 0.8275 -0.0020
vn 0.0706 0.3402 0.9377
vn -0.7898 -0.0628 0.6102
vn -0.4709 0.8820 -0.0175
vn -0.5504 0.8347 0.0189
vn -0.4885 0.8701 -0.0654
vn -0.4452 0.0828 0.8916
vn -0.4715 0.8816 0.0214
vn 0.6643 0.6267 0.4073
vn 0.7572 0.6479 -0.0827
vn 0.7894 0.6081 -0.0844
vn 0.8099 0.5864 0.0148
vn 0.8053 0.5918 -0.0345
vn -0.7838 -0.6210 0.0071
vn -0.8201 -0.5717 -0.0262
vn -0.8825 -0.4686 -0.0395
vn -0.8391 -0.5438 -0.0152
vn 0.8999 0.4358 0.0171
vn -0.5597 0.8268 -0.0553
vn -0.5781 0.8127 -0.0727
vn -0.9254 -0.3780 0.0275
vn 0.7212 0.6923 0.0238
vn -0.5571 0.8262 0.0842
vn -0.5583 0.8255 0.0828
vn -0.5623 0.8232 0.0777
vn -0.5456 0.8347 0.0753
vn -0.5570 0.8262 0.0845
usemtl Default_OBJ:016
s 1
f 1/1/1 2/2/1 3/3/1 4/4/1
f 1/1/2 4/4/2 5/5/2 6/6/2
f 7/7/3 8/8/3 1/1/3 6/6/3
f 9/9/4 6/6/4 5/5/4 10/10/4
f 7/7/5 6/6/5 9/9/6 11/11/7
f 12/12/8 9/9/8 10/10/8 13/13/8
f 11/11/7 9/9/6 12/12/9 14/14/10
f 14/14/10 12/12/9 15/15/11 16/16/11
f 17/17/12 18/18/12 19/19/12
f 18/18/13 20/20/13 21/21/13 19/19/13
f 15/15/14 12/12/14 13/13/14 17/17/14
f 22/22/15 20/20/15 18/18/15 23/23/15
f 23/23/16 18/18/16 17/17/16 24/24/16
f 25/25/17 22/22/17 23/23/17 24/24/17
f 15/15/18 17/17/18 19/19/18 26/26/18
f 27/27/19 16/16/19 15/15/19 26/26/19
f 26/26/20 19/19/20 21/21/20 28/28/20
f 21/21/21 20/20/21 22/22/22 28/28/23
f 29/29/24 28/28/23 22/22/22 30/30/24
f 30/30/25 22/22/25 25/25/25 31/31/25
f 30/30/26 32/32/26 33/33/27 29/29/28
f 33/33/27 26/26/29 28/28/29 29/29/28
f 34/34/30 35/35/30 36/36/30 37/37/30
f 38/38/31 34/34/31 37/37/31 39/39/31
f 40/40/32 41/41/32 39/42/32 42/43/32
f 42/43/33 39/42/33 37/44/33 43/45/33
f 43/45/34 37/44/34 36/36/34 44/46/34
f 45/47/35 46/48/35 47/49/35 48/50/35
f 40/40/36 42/43/36 43/45/36 49/51/36
f 47/49/37 41/52/37 40/53/37 48/50/37
f 50/54/38 48/50/38 40/53/38 49/55/38
f 38/38/39 39/39/39 41/56/39 51/57/39
f 52/58/40 47/59/40 46/48/40 53/60/40
f 51/57/41 41/56/41 47/59/41 52/58/41
f 54/61/42 52/58/42 53/60/42 55/62/42
f 27/27/43 26/26/43 33/33/43 56/63/43
f 57/64/44 32/65/44 58/66/45 59/67/46
f 56/63/47 33/33/47 32/32/47 57/68/47
f 32/32/48 30/30/48 31/31/48 60/69/48
f 61/70/49 58/71/49 32/72/49 60/73/49
f 62/74/50 63/75/50 34/34/50 38/38/50
f 35/35/51 34/34/51 63/75/51 64/76/51
f 51/57/52 52/58/52 54/61/52 65/77/52
f 62/74/53 38/38/53 51/57/53 65/77/53
f 53/60/54 46/48/54 45/47/54 66/78/54
f 67/79/55 55/62/55 53/60/55 66/78/55
f 65/77/56 54/61/56 55/62/56 67/79/56
f 68/80/57 45/47/57 48/50/57 50/54/57
f 49/55/58 58/71/58 61/70/58 69/81/58
f 69/81/59 68/80/59 50/54/59 49/55/59
f 70/82/60 67/79/60 66/78/60
f 70/82/61 66/78/62 45/47/62 68/80/63
f 71/83/64 72/84/64 73/85/64 74/86/64
f 75/87/65 76/88/65 72/84/65 71/83/65
f 77/89/66 78/90/66 79/91/66 80/92/66
f 75/87/67 71/83/67 74/86/67 81/93/67
f 80/92/68 79/91/68 76/94/68 75/87/68
f 80/92/69 75/87/69 81/93/69 82/95/69
f 83/96/70 65/77/71 67/79/71 70/82/72
f 69/81/73 61/70/73 84/97/73 85/98/73
f 85/98/74 84/97/74 86/99/74 87/100/74
f 85/98/75 70/82/61 68/80/63 69/81/75
f 87/100/76 83/96/70 70/82/72 85/98/76
f 87/100/77 86/99/78 88/101/78 89/102/79
f 49/51/80 43/45/80 44/46/80 90/103/80
f 91/104/81 35/35/81 64/76/81 92/105/81
f 91/104/82 44/46/82 36/36/82 35/35/82
f 90/103/83 44/46/83 91/104/83
f 59/67/46 58/66/45 49/51/84 90/103/84
f 93/106/85 94/107/85 59/67/85 90/103/85
f 93/106/86 89/102/86 88/101/86 94/107/86
f 64/76/87 63/75/87 62/74/88 95/108/89
f 95/108/89 62/74/88 65/77/90 83/96/90
f 96/109/91 92/105/91 64/76/91 95/108/91
f 95/108/92 83/96/92 87/100/77 89/102/79
f 95/108/93 89/102/93 93/106/93 96/109/93
f 90/103/94 91/104/94 92/105/94 96/109/94
f 93/106/95 90/103/95 96/109/95
f 97/110/96 98/111/96 74/86/96 73/85/96
f 76/94/97 79/91/97 99/112/97 100/113/97
f 101/114/98 102/115/98 103/116/98
f 104/117/99 105/118/99 73/85/99 72/84/99
f 72/84/100 76/88/100 100/119/100 104/117/100
f 97/110/101 73/85/101 105/118/101 106/120/101
f 107/121/102 97/110/102 106/120/102 108/122/102
f 109/123/103 99/112/103 79/91/103 78/90/103
f 104/124/104 100/113/104 99/112/104 109/123/104
f 106/125/105 105/126/105 104/124/105 109/123/105
f 110/127/106 108/128/106 106/125/106 109/123/106
f 110/129/107 102/115/107 101/114/107 108/130/107
f 111/131/108 112/132/108 101/114/108 113/133/108
f 113/133/109 101/114/109 103/116/109 114/134/109
f 115/135/110 111/136/110 113/133/110 116/137/110
f 117/138/111 118/139/112 3/3/113 2/2/113
f 117/138/111 119/140/114 120/141/115 118/139/112
f 117/138/116 2/2/117 1/1/117 121/142/118
f 122/143/119 123/144/120 124/145/121
f 122/143/122 121/142/123 125/146/124
f 125/146/124 121/142/123 1/1/125 126/147/125
f 127/148/126 125/146/126 126/147/126
f 8/8/127 7/7/127 128/149/127
f 128/149/128 126/147/128 1/1/128 8/8/128
f 122/143/129 119/140/129 117/138/116 121/142/118
f 122/143/130 125/146/130 127/148/130 129/150/130
f 129/150/131 127/148/131 126/147/131 128/149/131
f 130/151/132 131/152/132 132/153/132 133/154/132
f 133/154/133 132/153/133 134/155/133 135/156/133
f 136/157/134 123/144/134 122/143/134 129/150/134
f 103/158/135 102/159/135 137/160/135
f 137/161/136 138/162/137 114/134/138 103/116/138
f 124/145/139 123/144/139 136/157/139 139/163/139
f 139/163/140 119/140/114 122/143/119 124/145/121
f 140/164/141 138/162/137 137/161/136 141/165/141
f 139/166/142 136/167/142 140/164/142 141/165/142
f 142/168/143 137/160/144 102/159/144 110/127/145
f 143/169/146 141/170/146 137/160/146 142/168/146
f 142/168/143 110/127/145 109/123/147 144/171/147
f 120/141/115 119/140/114 139/163/140 145/172/148
f 145/173/149 139/174/149 141/170/149 143/169/149
f 82/95/150 81/93/150 74/86/150 98/111/150
f 107/121/151 108/122/151 101/175/151 146/176/151
f 146/176/152 101/175/152 112/177/152 147/178/152
f 147/178/153 112/177/153 111/136/153 115/135/153
f 148/179/154 132/153/155 131/152/155 77/89/156
f 148/179/157 82/95/157 98/111/157
f 98/111/158 97/110/158 107/121/158 148/179/158
f 148/179/154 77/89/156 80/92/159 82/95/159
f 147/178/160 115/135/160 149/180/160 150/181/160
f 151/182/161 148/179/161 107/121/161 146/176/161
f 152/183/162 134/155/162 132/153/162 153/184/162
f 153/184/163 132/153/163 148/179/163 151/182/163
f 151/182/164 150/181/164 149/180/164 154/185/164
f 146/176/165 147/178/165 150/181/165 151/182/165
f 154/185/166 152/183/166 153/184/166 151/182/166
f 154/185/167 149/180/167 115/135/167 116/137/167
f 154/185/168 116/137/168 152/183/168
f 114/134/169 152/183/169 116/137/169 113/133/169
f 114/134/170 138/162/170 134/155/170 152/183/170
f 135/156/171 134/155/171 138/162/171 140/164/171
f 130/151/172 145/173/172 143/169/172
f 130/151/173 143/169/173 142/168/173 131/152/173
f 77/89/174 144/171/174 109/123/174 78/90/174
f 77/89/175 131/152/175 142/168/175 144/171/175
f 140/164/176 136/167/176 135/156/176
f 139/186/177 133/154/177 135/156/177 136/167/177
f 145/173/178 130/151/178 133/154/178 139/186/178
f 61/70/179 60/73/179 84/97/179
f 59/67/180 94/107/180 57/64/180
f 88/101/181 32/187/182 57/64/183 94/107/183
f 32/187/184 86/99/184 84/97/184 60/73/184
f 86/99/185 32/187/182 88/101/181
