# Blender v2.93.5 OBJ File: 'Build.blend'
# www.blender.org
mtllib Dachfenster_Giebel_LP.mtl
o Dachfenster_Wand_LP_Dachfensterchen_Wand:002_Cube:035.002
v 1.000000 1.500000 0.000000
v 0.000000 1.500000 0.000000
v 0.500000 2.100000 0.000000
v 1.000000 1.306133 0.122141
v 1.000000 1.306133 0.000000
v 1.000000 1.306133 0.000000
v 1.114260 1.182091 0.000000
v 1.114260 1.182091 0.122141
v 0.000000 1.500000 0.122141
v -0.115749 1.352668 0.000000
v -0.115770 1.352646 0.122141
v 1.000000 1.330165 0.142827
v 1.113001 1.207464 0.142827
v 1.113001 1.353306 0.142827
v 1.000000 1.475969 0.142827
v 0.500000 2.100000 0.122141
v 0.500000 2.075931 0.142827
v 0.000000 1.475899 0.142827
v 0.000000 1.330235 0.142827
v 0.500000 1.930202 0.142827
v 1.000000 1.500000 0.122141
v 1.114260 1.375958 0.122141
v 1.114260 1.375957 0.000000
v 0.000000 1.306133 0.000000
v 0.500000 1.906133 0.000000
v 0.500000 1.906133 0.122141
v 0.000000 1.306133 0.122141
v -0.115770 1.158780 0.122141
v -0.115749 1.158801 0.000000
v -0.114569 1.330060 0.142827
v -0.114569 1.184428 0.142827
v -0.124910 1.167833 0.020686
v -0.124910 1.167833 0.122141
v -0.124910 1.320328 0.122141
v -0.124910 1.320328 0.020686
v 1.120680 1.362920 0.000000
v 1.123350 1.345403 0.000000
v 1.123350 1.192908 0.000000
v 1.120680 1.181171 0.000000
v 1.123350 1.345403 0.122141
v 1.123350 1.192908 0.122141
v -0.115170 1.345637 0.136768
v -0.120800 1.336786 0.134084
v -0.121630 1.322785 0.136768
v -0.122490 1.338756 0.122141
v -0.114019 1.168084 0.136771
v -0.120560 1.162726 0.134084
v -0.122250 1.156648 0.122141
v -0.121880 1.176130 0.136768
v 1.120680 1.362920 0.122141
v 1.119450 1.361353 0.134084
v 1.120310 1.349354 0.136768
v 1.114660 1.368495 0.136761
v 1.120060 1.198142 0.136768
v 1.119240 1.186126 0.134084
v 1.120941 1.180200 0.122141
v 1.113630 1.190493 0.136768
v 0.500000 2.092950 0.136768
v 1.000000 1.492962 0.136768
v 0.000000 1.492941 0.136768
v 0.500000 1.913183 0.136768
v 1.000000 1.313172 0.136768
v 0.000000 1.313193 0.136768
v -0.122231 1.156619 0.006059
v -0.122231 1.338368 0.006059
vt 0.610113 0.451411
vt 0.594215 0.441950
vt 0.594217 0.441950
vt 0.609467 0.415711
vt 0.626866 0.427718
vt 0.433966 0.592573
vt 0.431765 0.613618
vt 0.396527 0.609171
vt 0.403493 0.589416
vt 0.612560 0.456463
vt 0.627187 0.433720
vt 0.630929 0.456368
vt 0.617595 0.480057
vt 0.568451 0.610588
vt 0.558729 0.592840
vt 0.555999 0.588128
vt 0.431394 0.587465
vt 0.413291 0.571269
vt 0.545447 0.569946
vt 0.640868 0.494162
vt 0.620721 0.484804
vt 0.634015 0.459967
vt 0.653661 0.462306
vt 0.410111 0.546113
vt 0.532232 0.546964
vt 0.542561 0.564986
vt 0.410094 0.566627
vt 0.377637 0.566796
vt 0.377401 0.545623
vt 0.401642 0.584960
vt 0.381676 0.571330
vt 0.368445 0.588401
vt 0.377129 0.573251
vt 0.398580 0.587353
vt 0.392475 0.602644
vt 0.569719 0.465077
vt 0.571761 0.435842
vt 0.572643 0.433475
vt 0.574538 0.431048
vt 0.593806 0.412856
vt 0.595607 0.411793
vt 0.596257 0.412714
vt 0.648939 0.425648
vt 0.654788 0.455108
vt 0.634536 0.454848
vt 0.629867 0.430380
vt 0.398928 0.630615
vt 0.366784 0.624366
vt 0.403221 0.586939
vt 0.401628 0.586841
vt 0.399949 0.585512
vt 0.401211 0.588597
vt 0.374711 0.571160
vt 0.379114 0.569418
vt 0.377730 0.570857
vt 0.375550 0.572033
vt 0.379649 0.571832
vt 0.634405 0.457667
vt 0.632685 0.457319
vt 0.632304 0.455605
vt 0.632069 0.458472
vt 0.628140 0.431910
vt 0.627749 0.430068
vt 0.628051 0.428575
vt 0.627130 0.430725
vt 0.557323 0.590413
vt 0.618626 0.482851
vt 0.433327 0.589766
vt 0.544047 0.567537
vt 0.611847 0.453536
vt 0.411047 0.569197
vt 0.365368 0.589560
vt 0.364157 0.590443
vt 0.394537 0.606523
vt 0.647531 0.422583
vt 0.648008 0.423616
vt 0.654245 0.459065
vn -0.7355 -0.6775 0.0000
vn -0.7863 0.6178 -0.0000
vn -0.0000 -0.0000 1.0000
vn -0.7682 0.6402 0.0000
vn 0.7355 0.6775 -0.0000
vn 0.7682 -0.6402 0.0000
vn 0.7863 -0.6178 0.0000
vn -0.7682 -0.6402 0.0000
vn -1.0000 0.0000 0.0000
vn 0.0000 0.0000 -1.0000
vn 1.0000 -0.0000 0.0000
vn -0.7170 0.2027 0.6669
vn -0.9770 0.1129 0.1807
vn -0.8675 0.4437 0.2248
vn -0.8675 0.4438 0.2248
vn -0.8674 0.4440 0.2248
vn -0.8674 0.4440 0.2249
vn 0.3839 -0.8198 0.4249
vn -0.9461 -0.1826 0.2673
vn -0.9464 -0.1823 0.2667
vn -0.2935 -0.2864 0.9120
vn 0.9806 0.1306 0.1459
vn 0.6890 0.2036 0.6956
vn 0.8695 0.4587 0.1831
vn 0.9580 -0.1516 0.2436
vn -0.3356 -0.8411 0.4241
vn 0.3270 -0.2749 0.9042
vn 0.7341 0.6118 0.2946
vn 0.3736 0.3113 0.8738
vn -0.7495 0.5910 0.2982
vn -0.7357 0.6095 0.2954
vn -0.7340 0.6117 0.2950
vn -0.3940 0.3125 0.8644
vn -0.3783 0.3114 0.8717
vn -0.3732 0.3110 0.8741
vn -0.3736 -0.3113 0.8738
vn -0.7341 -0.6118 0.2946
vn 0.3883 -0.3087 0.8683
vn 0.3769 -0.3104 0.8727
vn 0.3732 -0.3110 0.8741
vn 0.7516 -0.5939 0.2869
vn 0.7360 -0.6098 0.2942
vn 0.7340 -0.6117 0.2950
vn -0.9728 -0.2318 -0.0001
vn 0.3158 -0.9488 0.0001
vn -0.6450 0.0006 0.7642
vn -0.9776 0.0008 0.2106
vn -0.9777 0.0007 0.2101
vn -0.9904 0.1379 -0.0014
vn -0.9057 0.4238 -0.0017
vn -0.7512 0.5887 0.2985
vn -0.3992 0.3128 0.8619
vn 0.3921 -0.3081 0.8668
vn 0.7535 -0.5920 0.2860
vn -0.2098 -0.9777 -0.0037
vn 0.9791 -0.2034 -0.0019
vn 0.8969 0.4422 -0.0000
vn 0.9886 0.1507 0.0000
vn 0.3427 0.3157 0.8848
vn 0.6993 0.6442 0.3098
vn -0.3474 -0.3208 0.8811
vn -0.6950 -0.6419 0.3239
vn 0.6444 -0.0005 0.7647
vn 0.9773 -0.0008 0.2117
vn -0.9836 0.0000 -0.1802
vn -0.6834 0.0000 -0.7301
vn 0.7682 0.6402 0.0000
usemtl None:003
s 1
f 4/1/1 5/2/1 6/3/1 7/4/1 8/5/1
f 9/6/2 2/7/2 10/8/2 11/9/2
f 12/10/3 13/11/3 14/12/3 15/13/3
f 3/14/4 2/7/4 9/6/4 16/15/4
f 17/16/3 18/17/3 19/18/3 20/19/3
f 1/20/5 21/21/5 22/22/5 23/23/5
f 17/16/3 20/19/3 12/10/3 15/13/3
f 24/24/6 25/25/6 26/26/6 27/27/6
f 27/27/7 28/28/7 29/29/7 24/24/7
f 19/18/3 18/17/3 30/30/3 31/31/3
f 5/2/8 4/1/8 26/26/8 25/25/8
f 32/32/9 33/33/9 34/34/9 35/35/9
f 6/3/10 5/2/10 1/36/10 23/37/10 36/38/10 37/39/10 38/40/10 39/41/10 7/42/10
f 38/43/11 37/44/11 40/45/11 41/46/11
f 24/47/10 29/48/10 10/8/10 2/7/10
f 30/30/12 42/49/12 43/50/12 44/51/12
f 34/34/13 44/51/13 43/50/13 45/52/13
f 11/9/14 45/52/15 43/50/16 42/49/17
f 28/53/18 46/54/18 47/55/18 48/56/18
f 33/33/19 48/56/19 47/55/20 49/57/19
f 31/31/21 49/57/21 47/55/21 46/54/21
f 40/45/22 50/58/22 51/59/22 52/60/22
f 14/12/23 52/60/23 51/59/23 53/61/23
f 22/22/24 53/61/24 51/59/24 50/58/24
f 41/46/25 54/62/25 55/63/25 56/64/25
f 8/5/26 56/64/26 55/63/26 57/65/26
f 13/11/27 57/65/27 55/63/27 54/62/27
f 16/15/28 58/66/28 59/67/28 21/21/28
f 58/66/29 17/16/29 15/13/29 59/67/29
f 9/6/30 60/68/31 58/66/32 16/15/32
f 60/68/33 18/17/34 17/16/35 58/66/35
f 20/19/36 61/69/36 62/70/36 12/10/36
f 61/69/37 26/26/37 4/1/37 62/70/37
f 19/18/38 63/71/39 61/69/40 20/19/40
f 63/71/41 27/27/42 26/26/43 61/69/43
f 32/32/44 64/72/44 48/56/44 33/33/44
f 64/72/45 29/73/45 28/53/45 48/56/45
f 30/30/46 44/51/46 49/57/46 31/31/46
f 44/51/47 34/34/48 33/33/47 49/57/47
f 34/34/49 45/52/49 65/74/49 35/35/49
f 45/52/50 11/9/50 10/8/50 65/74/50
f 11/9/51 42/49/51 60/68/31 9/6/30
f 42/49/52 30/30/52 18/17/34 60/68/33
f 31/31/53 46/54/53 63/71/39 19/18/38
f 46/54/54 28/28/54 27/27/42 63/71/41
f 7/75/55 39/76/55 56/64/55 8/5/55
f 39/76/56 38/43/56 41/46/56 56/64/56
f 22/22/57 50/58/57 36/77/57 23/23/57
f 50/58/58 40/45/58 37/44/58 36/77/58
f 14/12/59 53/61/59 59/67/59 15/13/59
f 53/61/60 22/22/60 21/21/60 59/67/60
f 12/10/61 62/70/61 57/65/61 13/11/61
f 62/70/62 4/1/62 8/5/62 57/65/62
f 13/11/63 54/62/63 52/60/63 14/12/63
f 54/62/64 41/46/64 40/45/64 52/60/64
f 35/35/65 65/74/65 64/72/65 32/32/65
f 65/74/66 10/8/66 29/73/66 64/72/66
f 3/14/67 16/15/67 21/21/67 1/20/67
l 6 25
