# Blender v2.93.5 OBJ File: ''
# www.blender.org
mtllib Dachteil02_LP.mtl
o Dachteil02_LP.001
v -1.335863 1.574021 0.026467
v -1.874126 1.940304 0.028365
v -1.897824 1.917549 0.026305
v -1.387572 1.531953 0.019670
v -0.719531 1.172120 -0.477606
v -0.772268 1.105226 0.026731
v -0.789370 1.086451 0.021339
v -0.750817 1.137267 -0.493940
v -0.723324 1.177888 -0.901404
v -0.686927 1.226065 -0.896486
v -1.260599 1.591194 -0.451168
v -1.890403 1.983353 -0.025251
v -1.846618 2.068570 -0.725887
v -1.951722 2.137343 -0.653481
v -1.206892 1.613669 -0.898808
v -1.938034 2.150703 -0.800640
v -1.908227 2.139070 -0.896608
v -1.976024 2.112291 -0.809222
v -1.947994 2.094114 -0.899484
v -1.987332 2.091982 -0.665065
v -1.886225 2.020600 -0.737713
v -1.927683 1.947951 -0.024426
v -1.309592 1.554320 -0.511050
v -2.007143 2.051934 -0.259315
v -1.245463 1.570444 -0.904495
v -1.984957 2.098409 -0.254454
v 0.409962 -0.344852 0.108360
v -0.110404 0.046443 0.109746
v -0.135125 0.024865 0.107120
v 0.356404 -0.384329 0.100435
v 1.012201 -0.768657 -0.394806
v 0.950769 -0.839762 0.107967
v 0.932860 -0.857633 0.102135
v 0.979489 -0.801767 -0.411952
v 1.013392 -0.757011 -0.818499
v 1.051965 -0.710682 -0.812528
v 0.491253 -0.324833 -0.368176
v -0.124034 0.090932 0.056570
v -0.068498 0.183405 -0.642311
v -0.171037 0.256096 -0.570054
v 0.550929 -0.298901 -0.814871
v -0.155100 0.270773 -0.716862
v -0.124811 0.259035 -0.812666
v -0.194763 0.234321 -0.726377
v -0.166620 0.216055 -0.816585
v -0.208617 0.212631 -0.582643
v -0.110190 0.137528 -0.655220
v -0.162950 0.057327 0.056510
v 0.441242 -0.358536 -0.429076
v -0.234801 0.168108 -0.177721
v 0.510426 -0.340171 -0.821565
v -0.210501 0.213410 -0.171980
v 1.332689 -1.221934 0.953098
v 1.893669 -1.552261 0.962026
v 1.915528 -1.528352 0.967869
v 1.381297 -1.176713 0.962146
v 0.757798 -0.758930 0.452492
v 0.738167 -0.793140 0.962449
v 0.754267 -0.772791 0.963333
v 0.788061 -0.719896 0.447929
v 0.817778 -0.678339 0.040716
v 0.785035 -0.728351 0.030880
v 1.322557 -1.145709 0.475414
v 1.920262 -1.582617 0.904025
v 1.976040 -1.526005 0.201348
v 2.075880 -1.602441 0.273520
v 1.330203 -1.079628 0.028932
v 2.082793 -1.586348 0.126160
v 2.065037 -1.557054 0.030975
v 2.118375 -1.545057 0.130780
v 2.101098 -1.510430 0.042657
v 2.108947 -1.553870 0.276228
v 2.012879 -1.474625 0.204906
v 1.954146 -1.546216 0.917086
v 1.375885 -1.094932 0.431555
v 2.071913 -1.596043 0.680553
v 1.365592 -1.034188 0.037377
v 2.053082 -1.643633 0.673053
v 1.430850 -1.079497 -0.774194
v 2.045371 -1.507232 -0.718752
v 1.901806 -1.601737 0.187092
v 1.359545 -1.249610 0.137437
v 2.077108 -1.462940 -0.719024
v 1.932136 -1.560908 0.204743
v 1.390856 -1.208846 0.153883
v 1.458390 -1.049137 -0.768067
v 0.771350 -0.822787 0.094806
v 0.758903 -0.847587 0.073806
v 0.752730 -0.793848 0.051700
v 0.736189 -0.814416 0.036170
v 0.802039 -0.626920 -0.797531
v 0.787908 -0.657959 -0.806411
v 0.815532 -0.632095 -0.821279
v 0.823850 -0.660611 -0.831197
v -0.527077 0.790641 0.893080
v -0.503612 0.776200 0.756455
v -0.960484 1.315160 0.777852
v -0.948061 1.280169 0.915282
v -0.989940 1.271489 0.754837
v -1.005282 1.262040 0.952322
v -0.571989 0.741500 0.915636
v -0.027201 0.185676 0.865171
v 0.044501 0.114990 0.729833
v -0.037834 0.114431 0.870088
v -0.549215 0.729682 0.739885
v 0.002480 0.084292 0.723049
v 0.045545 0.173130 -0.049430
v 0.017380 0.138952 -0.053378
v -0.526455 0.803201 -0.010668
v -0.505698 0.823073 -0.015454
v -0.973811 1.349624 0.024482
v -0.959119 1.356468 0.033155
v -0.135349 0.246789 -0.230312
v 0.007680 0.120666 -0.380470
v 0.058154 0.140089 -0.372226
v -0.093705 0.291956 -0.230207
v 0.105920 0.178949 -0.814468
v -0.165152 0.406500 -0.410322
v -0.163626 0.342836 -0.070806
v -0.674679 0.874447 0.091444
v -0.001044 0.084358 0.097078
v 0.043727 0.122261 -0.143849
v 0.007708 0.088479 -0.147715
v -0.729457 0.845754 0.091520
v -0.296042 0.451572 -0.406803
v -0.254864 0.350372 -0.101213
v 0.050179 0.152927 -0.805990
v -0.019204 0.063714 0.093560
v -0.231572 0.297489 0.085482
v -0.162484 0.302480 0.101688
v -0.986357 1.287346 -0.678985
v -0.671277 0.971065 -0.832659
v -1.055121 1.220429 0.080560
v -1.021797 1.247186 0.086161
v -0.953595 1.310290 -0.689096
v -0.666111 0.999158 -0.830991
v -1.938082 2.139514 0.086363
v -1.965438 2.086038 0.156258
v -1.959315 2.053715 0.537955
v -1.929092 2.098099 0.547926
v -1.855716 2.011500 0.077018
v -1.425625 1.694287 0.024927
v -0.834822 1.226807 0.238660
v -1.221556 1.550406 0.003818
v -1.257124 1.494496 0.795398
v -1.893598 1.977918 0.885280
v -1.845087 2.009398 0.872522
v -1.400285 1.723205 0.319294
v -0.707021 1.221443 -0.033983
v -1.353396 1.704610 0.026736
v -0.815697 1.270061 0.253806
v -0.703488 1.186387 0.141768
v -1.301935 1.622302 0.654246
v -0.692784 1.181446 0.271382
v -0.732710 1.139053 0.271362
v -0.717514 1.159493 0.129730
v -0.679943 1.128486 0.745945
v -0.716811 1.101789 0.732292
v -0.866996 1.256576 0.910712
v -0.885033 1.225864 0.881649
v -1.192941 1.454766 0.942166
v -1.808167 1.909319 0.995431
v -1.228648 1.536015 0.947898
v -1.813406 1.973317 0.985534
v -0.921151 1.334867 -0.017836
v 1.010975 -0.815206 0.016492
v 1.037953 -0.778581 0.096642
v 1.009986 -0.818523 0.476639
v 0.975764 -0.861085 0.476374
v 0.939786 -0.680841 0.028204
v 0.540416 -0.322068 0.018111
v -0.023934 0.147910 0.289949
v 0.350168 -0.159001 0.015572
v 0.339301 -0.257059 0.803770
v 0.928382 -0.804092 0.828536
v 0.878445 -0.828095 0.807625
v 0.494069 -0.403667 0.299756
v -0.133189 0.216169 0.017735
v 0.467629 -0.325997 0.014443
v -0.047359 0.104476 0.295502
v -0.145177 0.217569 0.196576
v 0.382784 -0.359409 0.642836
v -0.163732 0.198881 0.324033
v -0.120653 0.236742 0.334126
v -0.128321 0.244877 0.190657
v -0.202692 0.162183 0.798707
v -0.163026 0.187546 0.792255
v -0.037318 -0.011046 0.944264
v -0.015079 0.022852 0.922593
v 0.269205 -0.240151 0.952227
v 0.841782 -0.750123 0.945690
v 0.297917 -0.323901 0.943809
v 0.842553 -0.811306 0.923846
v 0.069800 0.082917 0.021789
vt 0.102770 0.260049
vt 0.056847 0.258113
vt 0.056683 0.256082
vt 0.101681 0.255398
vt 0.155118 0.296082
vt 0.155103 0.259163
vt 0.156970 0.259262
vt 0.158615 0.296785
vt 0.158615 0.326379
vt 0.154271 0.326532
vt 0.155024 0.257280
vt 0.105871 0.294284
vt 0.053152 0.261684
vt 0.050680 0.313422
vt 0.042756 0.307409
vt 0.107708 0.326161
vt 0.043578 0.321178
vt 0.045925 0.326414
vt 0.039918 0.321471
vt 0.042201 0.328053
vt 0.038868 0.308142
vt 0.045817 0.313893
vt 0.052929 0.253001
vt 0.105673 0.217350
vt 0.043979 0.235785
vt 0.043503 0.206310
vt 0.155747 0.219816
vt 0.109041 0.188965
vt 0.052434 0.201050
vt 0.043286 0.195760
vt 0.045742 0.189311
vt 0.154182 0.330881
vt 0.107362 0.330326
vt 0.156178 0.190277
vt 0.045633 0.330718
vt 0.039848 0.277479
vt 0.043325 0.278514
vt 0.049923 0.259836
vt 0.245534 0.086157
vt 0.291953 0.088182
vt 0.292334 0.090555
vt 0.246599 0.090788
vt 0.193142 0.049985
vt 0.193117 0.086786
vt 0.191255 0.086682
vt 0.189650 0.049277
vt 0.189650 0.019718
vt 0.193994 0.019554
vt 0.193216 0.088658
vt 0.242210 0.051659
vt 0.294622 0.083943
vt 0.297911 0.032595
vt 0.305440 0.038702
vt 0.240516 0.019931
vt 0.304672 0.024582
vt 0.302116 0.019569
vt 0.308293 0.024067
vt 0.305826 0.017766
vt 0.309347 0.038039
vt 0.302889 0.032110
vt 0.297545 0.086112
vt 0.293860 0.089683
vt 0.242181 0.128886
vt 0.295326 0.094294
vt 0.304048 0.111575
vt 0.304083 0.140991
vt 0.192136 0.125973
vt 0.238421 0.157226
vt 0.295088 0.146092
vt 0.304137 0.151520
vt 0.301576 0.157925
vt 0.194088 0.015211
vt 0.240863 0.015770
vt 0.191373 0.155443
vt 0.302408 0.015265
vt 0.307961 0.068574
vt 0.304499 0.067380
vt 0.369664 0.414259
vt 0.368882 0.461203
vt 0.366539 0.461639
vt 0.364974 0.415527
vt 0.327431 0.358553
vt 0.364479 0.359772
vt 0.364350 0.361649
vt 0.326737 0.362075
vt 0.296985 0.362644
vt 0.296703 0.358261
vt 0.366217 0.361431
vt 0.260774 0.412179
vt 0.225925 0.416077
vt 0.224940 0.363055
vt 0.262002 0.362624
vt 0.229972 0.465859
vt 0.225643 0.463115
vt 0.281249 0.466443
vt 0.276044 0.475591
vt 0.293448 0.409905
vt 0.292602 0.362689
vt 0.286797 0.475145
vt 0.293775 0.472783
vt 0.302735 0.475556
vt 0.303250 0.478741
vt 0.295965 0.477141
vt 0.298119 0.473060
vt 0.316703 0.475596
vt 0.316693 0.479682
vt 0.310105 0.473164
vt 0.310605 0.468177
vt 0.362904 0.464605
vt 0.368104 0.463615
vt 0.364677 0.467899
vt 0.325999 0.412644
vt 0.346039 0.474006
vt 0.297659 0.410242
vt 0.346663 0.477662
vt 0.246866 0.476181
vt 0.424503 0.329346
vt 0.370363 0.331644
vt 0.367198 0.264834
vt 0.413419 0.263789
vt 0.362958 0.260272
vt 0.362978 0.193601
vt 0.366816 0.192882
vt 0.366767 0.260876
vt 0.412908 0.259950
vt 0.420407 0.192630
vt 0.464895 0.259222
vt 0.464944 0.261644
vt 0.467064 0.256201
vt 0.469169 0.256057
vt 0.467490 0.260024
vt 0.477049 0.196255
vt 0.479540 0.196652
vt 0.476053 0.194477
vt 0.474691 0.192813
vt 0.478337 0.193427
vt 0.420972 0.189713
vt 0.479540 0.324294
vt 0.477594 0.326731
vt 0.366960 0.188975
vt 0.467995 0.264125
vt 0.176960 0.407716
vt 0.167198 0.410093
vt 0.165737 0.360237
vt 0.175633 0.361426
vt 0.164632 0.356379
vt 0.178942 0.357622
vt 0.181988 0.408192
vt 0.180299 0.359445
vt 0.178436 0.464120
vt 0.169174 0.470698
vt 0.182379 0.467587
vt 0.043617 0.360292
vt 0.057798 0.361228
vt 0.056024 0.411505
vt 0.043518 0.409152
vt 0.054370 0.472629
vt 0.043984 0.468583
vt 0.169660 0.474338
vt 0.179818 0.469420
vt 0.113399 0.472431
vt 0.113588 0.475616
vt 0.110274 0.473060
vt 0.109893 0.411287
vt 0.111968 0.411153
vt 0.110665 0.360430
vt 0.111963 0.360688
vt 0.111388 0.359519
vt 0.462636 0.112719
vt 0.473314 0.124319
vt 0.469976 0.125324
vt 0.458015 0.112452
vt 0.470041 0.155215
vt 0.445989 0.125126
vt 0.450506 0.100332
vt 0.397564 0.087479
vt 0.471036 0.085003
vt 0.471200 0.102026
vt 0.474404 0.102724
vt 0.396356 0.083274
vt 0.437163 0.047226
vt 0.455945 0.059807
vt 0.444890 0.069530
vt 0.469134 0.017652
vt 0.469412 0.048559
vt 0.471205 0.065468
vt 0.471289 0.083031
vt 0.448996 0.083200
vt 0.452076 0.087355
vt 0.358713 0.029227
vt 0.390447 0.016974
vt 0.360655 0.084225
vt 0.360848 0.087350
vt 0.356915 0.142734
vt 0.357748 0.087375
vt 0.359654 0.143814
vt 0.389877 0.153521
vt 0.390868 0.155285
vt 0.358352 0.146473
vt 0.468461 0.159430
vt 0.474404 0.154012
vt 0.473022 0.084829
vt 0.308104 0.255611
vt 0.312126 0.260985
vt 0.312126 0.288316
vt 0.308248 0.288226
vt 0.309239 0.219916
vt 0.307807 0.248192
vt 0.297777 0.251971
vt 0.259362 0.252219
vt 0.206321 0.232962
vt 0.241309 0.252392
vt 0.246351 0.196018
vt 0.304538 0.194552
vt 0.306405 0.313546
vt 0.302493 0.311901
vt 0.260432 0.276151
vt 0.197302 0.255156
vt 0.255578 0.255814
vt 0.205678 0.276424
vt 0.195772 0.267072
vt 0.253454 0.300252
vt 0.196356 0.283591
vt 0.192552 0.283566
vt 0.201522 0.276305
vt 0.193483 0.267058
vt 0.200799 0.315562
vt 0.197431 0.315527
vt 0.196960 0.229490
vt 0.198060 0.196008
vt 0.218421 0.324130
vt 0.217104 0.326934
vt 0.199888 0.318945
vt 0.214127 0.186721
vt 0.242027 0.185007
vt 0.297431 0.186003
vt 0.248961 0.322456
vt 0.299986 0.320198
vt 0.297203 0.323883
vt 0.243761 0.325834
vt 0.302641 0.324026
vt 0.214731 0.252635
vt 0.195980 0.241590
vt 0.147698 0.086900
vt 0.145068 0.080505
vt 0.146629 0.053373
vt 0.150596 0.052690
vt 0.136460 0.084215
vt 0.098045 0.086508
vt 0.042330 0.068608
vt 0.079898 0.087296
vt 0.084920 0.031120
vt 0.142008 0.029034
vt 0.146128 0.028445
vt 0.101359 0.110475
vt 0.150596 0.118856
vt 0.146252 0.142932
vt 0.036822 0.092249
vt 0.094494 0.090238
vt 0.048219 0.112759
vt 0.037030 0.105780
vt 0.095816 0.135587
vt 0.030329 0.060892
vt 0.034321 0.061139
vt 0.038986 0.068688
vt 0.035187 0.079445
vt 0.033231 0.078910
vt 0.040893 0.150936
vt 0.037669 0.116290
vt 0.036188 0.026999
vt 0.039165 0.028811
vt 0.037436 0.025795
vt 0.055306 0.017014
vt 0.054960 0.020332
vt 0.081359 0.019985
vt 0.135569 0.020599
vt 0.086931 0.016890
vt 0.138684 0.017053
vt 0.144469 0.151496
vt 0.092003 0.157712
vt 0.059066 0.160233
vt 0.140636 0.020624
vt 0.053766 0.088796
vn -0.0488 -0.0793 0.9957
vn 0.7445 -0.6675 -0.0104
vn 0.7770 -0.6294 -0.0155
vn -0.0835 -0.1041 0.9911
vn 0.6218 0.7693 0.1469
vn 0.5773 0.8017 0.1550
vn 0.5958 0.7954 0.1111
vn 0.6020 0.7879 0.1295
vn 0.5980 0.7937 0.1119
vn -0.6718 0.6700 -0.3159
vn -0.2913 0.4469 -0.8458
vn -0.5423 0.5552 0.6306
vn -0.5994 -0.7912 -0.1214
vn -0.6050 -0.7870 -0.1206
vn -0.5920 -0.7967 -0.1217
vn -0.4732 0.2237 0.8521
vn -0.5962 -0.7942 -0.1172
vn -0.6015 -0.7884 -0.1286
vn 0.0568 0.0690 -0.9960
vn -0.5934 -0.7953 -0.1242
vn 0.0404 0.0609 -0.9973
vn -0.8461 0.5331 -0.0035
vn -0.7124 0.4928 0.4997
vn 0.5928 0.7936 0.1367
vn -0.0635 -0.0903 0.9939
vn 0.7122 -0.7018 -0.0119
vn 0.7465 -0.6652 -0.0162
vn -0.0994 -0.1133 0.9886
vn 0.6557 0.7369 0.1641
vn 0.6127 0.7713 0.1722
vn 0.6314 0.7647 0.1285
vn 0.6370 0.7567 0.1467
vn 0.6335 0.7629 0.1293
vn -0.6359 0.7052 -0.3135
vn -0.2604 0.4715 -0.8425
vn -0.5225 0.5717 0.6326
vn -0.6347 -0.7602 -0.1387
vn -0.6401 -0.7558 -0.1379
vn -0.6275 -0.7661 -0.1390
vn -0.4715 0.2344 0.8501
vn -0.6317 -0.7635 -0.1345
vn -0.6366 -0.7573 -0.1459
vn 0.0711 0.0796 -0.9943
vn -0.6288 -0.7646 -0.1415
vn 0.0543 0.0724 -0.9959
vn -0.8199 0.5725 -0.0048
vn -0.6938 0.5192 0.4990
vn 0.6281 0.7628 0.1539
vn -0.0892 -0.1220 0.9885
vn -0.7878 0.6158 0.0113
vn -0.8161 0.5778 -0.0058
vn -0.0562 -0.0951 0.9939
vn -0.5719 -0.8146 -0.0966
vn -0.5265 -0.8456 -0.0886
vn -0.5395 -0.8315 -0.1326
vn -0.5486 -0.8282 -0.1143
vn -0.5419 -0.8301 -0.1318
vn 0.7591 -0.5558 -0.3389
vn 0.4350 -0.2500 -0.8651
vn 0.4974 -0.6425 0.5830
vn 0.5448 0.8296 0.1223
vn 0.5505 0.8257 0.1231
vn 0.5370 0.8347 0.1220
vn 0.3733 -0.3669 0.8521
vn 0.5407 0.8316 0.1265
vn 0.5480 0.8285 0.1151
vn 0.0805 0.1318 -0.9880
vn 0.5388 0.8339 0.1195
vn 0.0962 0.1408 -0.9854
vn 0.8792 -0.4762 0.0161
vn 0.6777 -0.5459 0.4927
vn -0.5400 -0.8348 -0.1070
vn -0.5380 -0.8227 -0.1834
vn 0.8002 -0.5964 0.0634
vn -0.2315 -0.2210 0.9474
vn 0.5316 0.8283 0.1768
vn -0.2956 -0.3174 0.9011
vn 0.5138 0.8367 0.1896
vn -0.8441 0.1182 0.5230
vn -0.8676 0.4954 0.0429
vn 0.5249 0.8294 0.1914
vn -0.6478 0.2861 -0.7060
vn 0.2127 0.1917 -0.9581
vn -0.5290 -0.8228 -0.2077
vn 0.0893 0.0072 -0.9960
vn -0.5401 -0.8189 -0.1942
vn 0.7599 0.6452 0.0790
vn -0.5663 0.8177 0.1036
vn 0.3590 0.2512 0.8989
vn 0.7699 0.6342 0.0709
vn 0.2144 0.1222 0.9691
vn -0.7719 -0.6314 -0.0748
vn -0.7607 -0.6459 -0.0647
vn 0.7856 -0.4142 0.4596
vn 0.6818 -0.7301 -0.0459
vn -0.7666 -0.6380 -0.0725
vn -0.0424 0.0229 -0.9988
vn 0.0312 0.1032 -0.9942
vn -0.7739 -0.6277 -0.0846
vn -0.7655 0.6421 0.0429
vn 0.7630 0.6453 0.0372
vn 0.7666 0.6407 0.0429
vn 0.2958 -0.5250 0.7980
vn 0.7505 0.6478 0.1311
vn 0.7356 0.6665 0.1217
vn 0.7460 0.6373 0.1931
vn 0.2857 -0.2343 -0.9292
vn -0.7365 -0.6655 -0.1211
vn -0.7261 -0.6763 -0.1237
vn -0.7116 -0.6896 -0.1346
vn -0.7366 -0.6692 -0.0977
vn -0.1044 -0.0904 0.9904
vn -0.7403 -0.6594 -0.1311
vn -0.7437 -0.6533 -0.1417
vn -0.0487 -0.0221 0.9986
vn -0.6004 0.7996 0.0142
vn 0.7394 0.6647 0.1070
vn -0.3481 0.1046 -0.9316
vn -0.0487 -0.0706 -0.9963
vn 0.7239 0.6827 0.0997
vn 0.3931 -0.9189 -0.0344
vn 0.7524 0.6425 0.1453
vn -0.1789 -0.1405 0.9738
vn 0.7077 -0.7063 0.0134
vn -0.8432 0.5340 0.0618
vn -0.5959 -0.8008 -0.0606
vn -0.6006 -0.7956 -0.0799
vn -0.6055 -0.7927 -0.0705
vn -0.6529 0.6892 0.3142
vn 0.5950 0.8013 0.0622
vn 0.6001 0.7987 0.0454
vn -0.0530 0.0764 -0.9957
vn -0.7002 -0.4078 -0.5860
vn 0.6235 0.7748 0.1046
vn 0.6062 0.7930 0.0609
vn 0.2289 0.0145 -0.9733
vn 0.4136 -0.4923 0.7659
vn 0.6095 0.7906 0.0593
vn 0.6750 -0.7322 -0.0914
vn -0.5997 -0.7981 -0.0588
vn 0.1522 -0.6796 0.7177
vn -0.5887 -0.8080 0.0233
vn -0.5988 -0.8008 0.0111
vn 0.1216 0.0627 0.9906
vn -0.0968 -0.3093 0.9460
vn 0.6004 0.7953 0.0843
vn 0.6132 0.7858 0.0805
vn -0.6883 0.4474 0.5711
vn 0.9001 -0.4235 -0.1026
vn -0.5848 -0.7991 -0.1398
vn -0.4601 -0.8202 -0.3399
vn 0.0141 0.1359 -0.9906
vn 0.0034 0.1498 -0.9887
vn 0.7926 -0.6098 -0.0027
vn 0.6601 0.7408 0.1241
vn 0.6656 0.7389 0.1044
vn 0.6697 0.7340 0.1132
vn 0.5748 -0.7921 0.2055
vn -0.6594 -0.7417 -0.1225
vn -0.6632 -0.7355 -0.1388
vn 0.1104 0.1086 -0.9879
vn 0.7664 0.4463 -0.4619
vn -0.6884 -0.7212 -0.0773
vn -0.6698 -0.7323 -0.1228
vn -0.1665 0.1903 -0.9675
vn -0.4214 0.3739 0.8262
vn -0.6728 -0.7294 -0.1240
vn -0.6076 0.7940 0.0201
vn 0.6636 0.7375 0.1256
vn -0.1435 0.5426 0.8276
vn 0.6482 0.7327 0.2074
vn 0.6585 0.7270 0.1945
vn -0.1894 -0.2375 0.9528
vn 0.0602 0.1150 0.9915
vn -0.6657 -0.7395 -0.1000
vn -0.6775 -0.7283 -0.1025
vn 0.6126 -0.6074 0.5057
vn -0.8552 0.5146 -0.0614
vn 0.6540 0.7551 0.0456
vn 0.5445 0.8248 -0.1523
vn 0.0386 0.0555 -0.9977
vn 0.0481 0.0406 -0.9980
usemtl defaultMat.004
s off
f 1/1/1 2/2/1 3/3/1 4/4/1
f 5/5/2 6/6/2 7/7/2 8/8/2
f 9/9/3 10/10/3 5/5/3 8/8/3
f 7/11/4 6/6/4 1/1/4 4/4/4
f 11/12/5 1/1/5 6/6/5 5/5/5
f 12/13/6 2/2/6 1/1/6 11/12/6
f 13/14/7 14/15/7 11/12/7 15/16/7
f 11/12/8 5/5/8 10/10/8 15/16/8
f 16/17/9 13/14/9 15/16/9 17/18/9
f 18/19/10 16/17/10 17/18/10 19/20/10
f 20/21/11 14/15/11 13/14/11 21/22/11
f 22/23/12 3/3/12 2/2/12 12/13/12
f 23/24/13 4/4/13 3/3/13 22/23/13
f 22/23/14 24/25/14 20/26/14 23/24/14
f 8/27/15 7/11/15 4/4/15 23/24/15
f 21/22/16 13/14/16 16/17/16 18/19/16
f 25/28/17 23/24/17 20/26/17 21/29/17
f 21/29/18 18/30/18 19/31/18 25/28/18
f 15/16/19 10/10/19 9/32/19 25/33/19
f 25/28/20 9/34/20 8/27/20 23/24/20
f 25/33/21 19/35/21 17/18/21 15/16/21
f 14/15/22 20/21/22 24/36/22 26/37/22
f 26/37/23 24/36/23 22/38/23 12/13/23
f 26/37/24 12/13/24 11/12/24 14/15/24
f 27/39/25 28/40/25 29/41/25 30/42/25
f 31/43/26 32/44/26 33/45/26 34/46/26
f 35/47/27 36/48/27 31/43/27 34/46/27
f 33/49/28 32/44/28 27/39/28 30/42/28
f 37/50/29 27/39/29 32/44/29 31/43/29
f 38/51/30 28/40/30 27/39/30 37/50/30
f 39/52/31 40/53/31 37/50/31 41/54/31
f 37/50/32 31/43/32 36/48/32 41/54/32
f 42/55/33 39/52/33 41/54/33 43/56/33
f 44/57/34 42/55/34 43/56/34 45/58/34
f 46/59/35 40/53/35 39/52/35 47/60/35
f 48/61/36 29/62/36 28/40/36 38/51/36
f 49/63/37 30/42/37 29/41/37 48/64/37
f 48/64/38 50/65/38 46/66/38 49/63/38
f 34/67/39 33/49/39 30/42/39 49/63/39
f 47/60/40 39/52/40 42/55/40 44/57/40
f 51/68/41 49/63/41 46/66/41 47/69/41
f 47/69/42 44/70/42 45/71/42 51/68/42
f 41/54/43 36/48/43 35/72/43 51/73/43
f 51/68/44 35/74/44 34/67/44 49/63/44
f 51/73/45 45/75/45 43/56/45 41/54/45
f 40/53/46 46/59/46 50/76/46 52/77/46
f 52/77/47 50/76/47 48/61/47 38/51/47
f 52/77/48 38/51/48 37/50/48 40/53/48
f 53/78/49 54/79/49 55/80/49 56/81/49
f 57/82/50 58/83/50 59/84/50 60/85/50
f 61/86/51 62/87/51 57/82/51 60/85/51
f 59/84/52 58/88/52 53/78/52 56/81/52
f 63/89/53 53/90/53 58/91/53 57/92/53
f 64/93/54 54/94/54 53/90/54 63/89/54
f 65/95/55 66/96/55 63/89/55 67/97/55
f 63/89/56 57/92/56 62/98/56 67/97/56
f 68/99/57 65/95/57 67/97/57 69/100/57
f 70/101/58 68/102/58 69/103/58 71/104/58
f 72/105/59 66/106/59 65/107/59 73/108/59
f 74/109/60 55/80/60 54/110/60 64/111/60
f 75/112/61 56/81/61 55/80/61 74/109/61
f 74/109/62 76/113/62 72/105/62 75/112/62
f 60/85/63 59/84/63 56/81/63 75/112/63
f 73/108/64 65/107/64 68/102/64 70/101/64
f 77/114/65 75/112/65 72/105/65 73/108/65
f 73/108/66 70/101/66 71/104/66 77/114/66
f 67/97/67 62/98/67 61/86/67 77/114/67
f 77/114/68 61/86/68 60/85/68 75/112/68
f 77/114/69 71/104/69 69/100/69 67/97/69
f 66/106/70 72/105/70 76/113/70 78/115/70
f 78/115/71 76/113/71 74/109/71 64/111/71
f 78/116/72 64/93/72 63/89/72 66/96/72
f 79/117/73 80/118/73 81/119/73 82/120/73
f 81/121/74 80/122/74 83/123/74 84/124/74
f 82/120/75 81/119/75 84/124/75 85/125/75
f 85/125/76 84/124/76 83/123/76 86/126/76
f 85/125/77 87/127/77 88/128/77 82/120/77
f 89/129/78 87/127/78 85/125/78 86/126/78
f 90/130/79 88/131/79 87/127/79 89/129/79
f 89/129/80 91/132/80 92/133/80 90/130/80
f 86/126/81 93/134/81 91/132/81 89/129/81
f 93/134/82 94/135/82 92/136/82 91/132/82
f 79/137/83 94/135/83 93/134/83 86/126/83
f 92/138/84 94/139/84 79/117/84 82/120/84
f 83/123/85 80/140/85 79/137/85 86/126/85
f 82/120/86 88/128/86 90/141/86 92/138/86
f 95/142/87 96/143/87 97/144/87 98/145/87
f 98/145/88 97/144/88 99/146/88 100/147/88
f 101/148/89 95/142/89 98/145/89 100/149/89
f 95/142/90 102/150/90 103/151/90 96/143/90
f 101/148/91 104/152/91 102/150/91 95/142/91
f 100/153/92 99/154/92 105/155/92 101/156/92
f 105/155/93 106/157/93 104/158/93 101/156/93
f 106/159/94 103/151/94 102/150/94 104/160/94
f 107/161/95 103/151/95 106/159/95 108/162/95
f 108/163/96 106/157/96 105/155/96 109/164/96
f 109/164/97 110/165/97 107/161/97 108/163/97
f 109/164/98 111/166/98 112/167/98 110/165/98
f 105/155/99 99/154/99 111/166/99 109/164/99
f 97/144/100 112/167/100 111/168/100 99/146/100
f 110/165/101 112/167/101 97/144/101 96/143/101
f 110/165/102 96/143/102 103/151/102 107/161/102
f 113/169/103 114/170/103 115/171/103 116/172/103
f 116/172/104 115/171/104 117/173/104 118/174/104
f 119/175/105 116/172/105 118/174/105 120/176/105
f 119/175/106 121/177/106 122/178/106 116/172/106
f 116/172/107 122/178/107 123/179/107 113/169/107
f 124/180/108 125/181/108 113/182/108 126/183/108
f 125/181/109 127/184/109 114/185/109 113/182/109
f 126/183/110 113/182/110 123/186/110 128/187/110
f 129/188/111 124/180/111 126/183/111 128/187/111
f 124/180/112 129/188/112 130/189/112 120/176/112
f 131/190/113 132/191/113 124/180/113 133/192/113
f 124/180/114 132/191/114 127/184/114 125/181/114
f 133/192/115 124/180/115 120/176/115 134/193/115
f 131/194/116 133/195/116 134/193/116 135/196/116
f 136/197/117 135/196/117 134/193/117 120/176/117
f 135/196/118 136/197/118 132/198/118 131/199/118
f 127/200/119 132/198/119 136/197/119 117/173/119
f 118/174/120 117/173/120 136/197/120 120/176/120
f 117/173/121 115/171/121 114/170/121 127/201/121
f 121/177/122 119/175/122 120/176/122 130/189/122
f 128/187/123 121/177/123 130/189/123 129/188/123
f 128/202/124 123/179/124 122/178/124 121/177/124
f 137/203/125 138/204/125 139/205/125 140/206/125
f 139/207/126 138/208/126 141/209/126 142/210/126
f 143/211/127 139/207/127 142/210/127 144/212/127
f 145/213/128 146/214/128 139/207/128 143/211/128
f 140/206/129 139/205/129 146/215/129 147/216/129
f 148/217/130 137/203/130 140/206/130 147/216/130
f 148/217/131 149/218/131 150/219/131 137/203/131
f 150/219/132 142/210/132 141/209/132 137/203/132
f 137/203/133 141/209/133 138/208/133
f 151/220/134 152/221/134 149/218/134 148/217/134
f 147/216/135 153/222/135 151/220/135 148/217/135
f 154/223/136 155/224/136 143/225/136 151/220/136
f 151/220/137 143/225/137 156/226/137 152/221/137
f 153/222/138 157/227/138 154/223/138 151/220/138
f 157/227/139 158/228/139 155/224/139 154/223/139
f 143/211/140 155/229/140 158/230/140 145/213/140
f 157/227/141 159/231/141 160/232/141 158/233/141
f 145/213/142 158/230/142 160/234/142 161/235/142
f 162/236/143 146/214/143 145/213/143 161/235/143
f 163/237/144 164/238/144 162/239/144 161/240/144
f 161/240/145 160/232/145 159/231/145 163/237/145
f 147/216/146 164/238/146 163/237/146 153/222/146
f 153/222/147 163/237/147 159/231/147 157/227/147
f 147/216/148 146/215/148 162/241/148 164/238/148
f 152/221/149 156/226/149 149/218/149
f 144/212/150 165/242/150 156/243/150 143/211/150
f 149/218/151 156/243/151 165/242/151
f 149/218/152 165/242/152 144/212/152 150/219/152
f 144/212/153 142/210/153 150/219/153
f 166/244/154 167/245/154 168/246/154 169/247/154
f 168/246/155 167/245/155 170/248/155 171/249/155
f 172/250/156 168/246/156 171/249/156 173/251/156
f 174/252/157 175/253/157 168/246/157 172/250/157
f 169/247/158 168/246/158 175/253/158 176/254/158
f 177/255/159 166/244/159 169/256/159 176/257/159
f 177/255/160 178/258/160 179/259/160 166/244/160
f 179/259/161 171/249/161 170/248/161 166/244/161
f 166/244/162 170/248/162 167/245/162
f 180/260/163 181/261/163 178/258/163 177/255/163
f 176/257/164 182/262/164 180/260/164 177/255/164
f 183/263/165 184/264/165 172/250/165 180/265/165
f 180/265/166 172/250/166 185/266/166 181/267/166
f 182/262/167 186/268/167 183/269/167 180/260/167
f 186/270/168 187/271/168 184/264/168 183/263/168
f 172/250/169 184/264/169 187/271/169 174/252/169
f 186/272/170 188/273/170 189/274/170 187/271/170
f 174/252/171 187/271/171 189/274/171 190/275/171
f 191/276/172 175/253/172 174/252/172 190/275/172
f 192/277/173 193/278/173 191/276/173 190/275/173
f 190/275/174 189/274/174 188/273/174 192/277/174
f 176/257/175 193/279/175 192/280/175 182/262/175
f 182/262/176 192/280/176 188/281/176 186/268/176
f 176/254/177 175/253/177 191/276/177 193/282/177
f 181/267/178 185/266/178 178/258/178
f 173/251/179 194/283/179 185/266/179 172/250/179
f 178/258/180 185/266/180 194/283/180
f 178/258/181 194/283/181 173/251/181 179/259/181
f 173/251/182 171/249/182 179/259/182
