# Blender v2.93.5 OBJ File: ''
# www.blender.org
mtllib Dachspitze_LP.mtl
o Dachspitze__LP_Dach_spitze:001_Cube:028
v 0.379192 -0.222099 -0.538419
v 0.379192 -0.266603 -0.538419
v 0.151482 -0.039061 -0.538419
v 0.151482 0.005789 -0.538419
v -0.379189 -0.222099 0.538417
v -0.379189 -0.266604 0.538417
v -0.151478 -0.039062 0.538417
v -0.151478 0.005789 0.538417
v 0.102661 -0.003399 0.538417
v 0.128380 -0.019464 0.538417
v 0.128380 0.026222 0.538417
v 0.102661 0.043206 0.538417
v -0.151478 0.005789 -0.538419
v -0.128380 0.026222 -0.538419
v -0.128380 -0.019463 -0.538419
v -0.151478 -0.039061 -0.538419
v -0.128380 -0.019464 0.538417
v -0.102661 -0.003399 0.538417
v -0.102661 0.043206 0.538417
v -0.128380 0.026222 0.538417
v -0.074860 0.008903 0.538417
v -0.074860 0.056297 0.538417
v -0.045540 0.017233 0.538417
v -0.045540 0.065190 0.538417
v -0.015278 0.021438 0.538417
v -0.015278 0.069685 0.538417
v 0.015282 0.021438 0.538417
v 0.015282 0.069685 0.538417
v 0.045540 0.017233 0.538417
v 0.045540 0.065190 0.538417
v 0.074860 0.008903 0.538417
v 0.074860 0.056297 0.538417
v 0.151482 0.005789 0.538417
v 0.151482 -0.039062 0.538417
v 0.379192 -0.266604 0.538417
v 0.379192 -0.222099 0.538417
v -0.102661 0.043206 -0.538419
v -0.102661 -0.003399 -0.538419
v -0.151478 -0.062199 0.518875
v -0.384911 -0.295637 0.518875
v -0.384911 -0.295637 -0.518876
v -0.151478 -0.062199 -0.518875
v 0.102661 0.043206 -0.538419
v 0.128380 0.026222 -0.538419
v 0.128380 -0.019463 -0.538419
v 0.102661 -0.003399 -0.538419
v 0.074860 0.056297 -0.538419
v 0.074860 0.008904 -0.538419
v 0.045540 0.065190 -0.538419
v 0.045540 0.017233 -0.538419
v 0.015282 0.069685 -0.538419
v 0.015282 0.021438 -0.538419
v -0.015278 0.069685 -0.538419
v -0.015278 0.021438 -0.538419
v -0.045540 0.065190 -0.538419
v -0.045540 0.017233 -0.538419
v -0.074860 0.056297 -0.538419
v -0.074860 0.008904 -0.538419
v -0.128380 -0.042183 -0.518875
v -0.128380 -0.042183 0.518875
v 0.151482 -0.062199 -0.518875
v 0.384911 -0.295637 -0.518876
v 0.384911 -0.295637 0.518875
v 0.151482 -0.062199 0.518875
v -0.102661 -0.025658 -0.518875
v -0.102661 -0.025658 0.518875
v -0.074860 -0.012961 -0.518875
v -0.074860 -0.012961 0.518875
v -0.045540 -0.004350 -0.518875
v -0.045540 -0.004350 0.518875
v -0.015278 0.000000 -0.518875
v -0.015278 -0.000000 0.518875
v 0.015282 0.000000 -0.518875
v 0.015282 -0.000000 0.518875
v 0.045540 -0.004350 -0.518875
v 0.045540 -0.004350 0.518875
v 0.074860 -0.012961 -0.518875
v 0.074860 -0.012961 0.518875
v 0.102661 -0.025658 -0.518875
v 0.102661 -0.025658 0.518875
v 0.128380 -0.042183 -0.518875
v 0.128380 -0.042183 0.518875
v -0.379189 -0.266603 -0.538419
v -0.379189 -0.222099 -0.538419
v 0.398731 -0.289913 -0.518876
v 0.398731 -0.237875 -0.518876
v 0.398731 -0.237875 0.518875
v 0.398731 -0.289913 0.518875
v -0.398739 -0.237875 0.518875
v -0.393009 -0.229987 0.532693
v -0.392231 -0.220041 0.530158
v -0.394688 -0.220009 0.518875
v -0.384651 -0.211146 0.532731
v -0.398739 -0.237875 -0.518876
v -0.394688 -0.220009 -0.518876
v -0.392231 -0.220041 -0.530159
v -0.393009 -0.229987 -0.532695
v -0.384651 -0.211146 -0.532732
v 0.395870 -0.220414 0.518875
v 0.391682 -0.220338 0.530158
v 0.391830 -0.232849 0.532693
v 0.382050 -0.209259 0.532693
v 0.393009 -0.229987 -0.532695
v 0.392231 -0.220041 -0.530159
v 0.394691 -0.220009 -0.518876
v 0.384651 -0.211146 -0.532732
v -0.398739 -0.289913 -0.518876
v -0.393009 -0.278258 -0.532695
v -0.391060 -0.291881 -0.530159
v -0.394688 -0.299684 -0.518876
v -0.379028 -0.282877 -0.532720
v -0.398739 -0.289913 0.518875
v -0.394688 -0.299685 0.518875
v -0.391060 -0.291882 0.530158
v -0.393009 -0.278258 0.532693
v -0.379028 -0.282877 0.532719
v 0.394691 -0.299684 -0.518876
v 0.391060 -0.291881 -0.530159
v 0.393009 -0.278258 -0.532695
v 0.379032 -0.282877 -0.532720
v 0.379032 -0.282877 0.532719
v 0.391060 -0.291882 0.530158
v 0.393009 -0.278258 0.532693
v 0.394691 -0.299685 0.518875
v -0.128380 0.042287 0.532693
v -0.151478 0.022148 0.532693
v -0.151478 0.022148 -0.532695
v -0.128380 0.042287 -0.532695
v -0.102661 0.058946 0.532693
v -0.102661 0.058946 -0.532695
v -0.074860 0.071759 0.532693
v -0.074860 0.071759 -0.532695
v -0.045540 0.080452 0.532693
v -0.045540 0.080452 -0.532695
v -0.015278 0.084844 0.532693
v -0.015278 0.084845 -0.532695
v 0.015282 0.084844 0.532693
v 0.015282 0.084845 -0.532695
v 0.045540 0.080452 0.532693
v 0.045540 0.080452 -0.532695
v 0.074860 0.071759 0.532693
v 0.074860 0.071759 -0.532695
v 0.102661 0.058946 0.532693
v 0.102661 0.058946 -0.532695
v 0.128380 0.042287 0.532693
v 0.128380 0.042287 -0.532695
v 0.151482 0.022148 0.532693
v 0.151482 0.022148 -0.532695
v 0.151482 -0.055422 -0.532695
v 0.128380 -0.035528 -0.532695
v 0.102661 -0.019138 -0.532695
v 0.074860 -0.006556 -0.532695
v 0.045540 0.001970 -0.532695
v 0.015282 0.006279 -0.532695
v -0.015278 0.006279 -0.532695
v -0.045540 0.001970 -0.532695
v -0.074860 -0.006556 -0.532695
v -0.102661 -0.019138 -0.532695
v -0.128380 -0.035528 -0.532695
v -0.151478 -0.055422 -0.532695
v 0.151482 -0.055422 0.532693
v 0.128380 -0.035528 0.532693
v 0.102661 -0.019138 0.532693
v 0.074860 -0.006557 0.532693
v 0.045540 0.001970 0.532693
v 0.015282 0.006279 0.532693
v -0.015278 0.006279 0.532693
v -0.045540 0.001970 0.532693
v -0.074860 -0.006557 0.532693
v -0.102661 -0.019138 0.532693
v -0.128380 -0.035528 0.532693
v -0.151478 -0.055422 0.532693
v -0.151478 0.028925 -0.518875
v -0.384911 -0.204513 -0.518876
v -0.384911 -0.204514 0.518875
v -0.151478 0.028925 0.518875
v -0.128380 0.048941 0.518875
v -0.128380 0.048941 -0.518875
v -0.102661 0.065465 0.518875
v -0.102661 0.065465 -0.518875
v -0.074860 0.078162 0.518875
v -0.074860 0.078162 -0.518875
v -0.045540 0.086774 0.518875
v -0.045540 0.086774 -0.518875
v -0.015278 0.091123 0.518875
v -0.015278 0.091124 -0.518875
v 0.015282 0.091123 0.518875
v 0.015282 0.091124 -0.518875
v 0.045540 0.086774 0.518875
v 0.045540 0.086774 -0.518875
v 0.074860 0.078162 0.518875
v 0.074860 0.078162 -0.518875
v 0.102661 0.065465 0.518875
v 0.102661 0.065465 -0.518875
v 0.128380 0.048941 0.518875
v 0.128380 0.048941 -0.518875
v 0.151482 0.028925 0.518875
v 0.151482 0.028925 -0.518875
v 0.384911 -0.204514 0.518875
v 0.384911 -0.204513 -0.518876
vt 0.171405 0.648966
vt 0.175496 0.651241
vt 0.139939 0.654203
vt 0.136605 0.650768
vt 0.063066 0.534537
vt 0.058960 0.532280
vt 0.094803 0.529171
vt 0.098182 0.532589
vt 0.131636 0.528304
vt 0.135633 0.528707
vt 0.132617 0.532483
vt 0.129138 0.532505
vt 0.098712 0.650919
vt 0.102249 0.650854
vt 0.099276 0.654643
vt 0.095407 0.654382
vt 0.098693 0.528862
vt 0.102684 0.528428
vt 0.105211 0.532606
vt 0.101734 0.532613
vt 0.106758 0.528027
vt 0.108645 0.532593
vt 0.110898 0.527727
vt 0.112059 0.532583
vt 0.115072 0.527568
vt 0.115470 0.532581
vt 0.119242 0.527486
vt 0.118884 0.532610
vt 0.123416 0.527659
vt 0.122285 0.532545
vt 0.127558 0.527934
vt 0.125701 0.532520
vt 0.136170 0.532429
vt 0.139529 0.528988
vt 0.175426 0.531847
vt 0.171320 0.534139
vt 0.105717 0.650828
vt 0.103251 0.655035
vt 0.250481 0.646348
vt 0.215174 0.646348
vt 0.215174 0.535363
vt 0.250481 0.535363
vt 0.129602 0.650733
vt 0.133068 0.650732
vt 0.136071 0.654497
vt 0.132099 0.654918
vt 0.126174 0.650743
vt 0.128041 0.655310
vt 0.122766 0.650752
vt 0.123916 0.655605
vt 0.119362 0.650753
vt 0.119753 0.655775
vt 0.115952 0.650720
vt 0.115596 0.655832
vt 0.112555 0.650786
vt 0.111438 0.655673
vt 0.109147 0.650811
vt 0.107311 0.655400
vt 0.253749 0.535363
vt 0.253749 0.646348
vt 0.286438 0.535363
vt 0.321744 0.535363
vt 0.321744 0.646348
vt 0.286438 0.646348
vt 0.257018 0.535363
vt 0.257018 0.646348
vt 0.260287 0.535363
vt 0.260287 0.646348
vt 0.263556 0.535363
vt 0.263556 0.646348
vt 0.266825 0.535363
vt 0.266825 0.646348
vt 0.270094 0.535363
vt 0.270094 0.646348
vt 0.273363 0.535363
vt 0.273363 0.646348
vt 0.276631 0.535363
vt 0.276631 0.646348
vt 0.279900 0.535363
vt 0.279900 0.646348
vt 0.283169 0.535363
vt 0.283169 0.646348
vt 0.059811 0.651706
vt 0.063894 0.649399
vt 0.179570 0.648002
vt 0.174115 0.647043
vt 0.174056 0.536030
vt 0.179570 0.535063
vt 0.060348 0.536478
vt 0.061603 0.535315
vt 0.062508 0.535749
vt 0.062294 0.536703
vt 0.063652 0.535614
vt 0.061182 0.647495
vt 0.063120 0.647242
vt 0.063336 0.648194
vt 0.062434 0.648639
vt 0.064477 0.648314
vt 0.172186 0.536264
vt 0.171861 0.535311
vt 0.173008 0.534717
vt 0.170398 0.535165
vt 0.172862 0.648194
vt 0.171958 0.647756
vt 0.172170 0.646804
vt 0.170816 0.647885
vt 0.055675 0.648510
vt 0.057798 0.650445
vt 0.056745 0.651428
vt 0.055461 0.651371
vt 0.058293 0.652724
vt 0.056480 0.653964
vt 0.054888 0.535560
vt 0.054619 0.532695
vt 0.055901 0.532608
vt 0.056967 0.533574
vt 0.055594 0.530064
vt 0.057428 0.531281
vt 0.179827 0.650858
vt 0.178548 0.650934
vt 0.177487 0.649964
vt 0.178841 0.653471
vt 0.177019 0.652246
vt 0.176955 0.530836
vt 0.178507 0.532139
vt 0.177453 0.533117
vt 0.178782 0.529604
vt 0.179792 0.532204
vt 0.102643 0.534121
vt 0.099334 0.534008
vt 0.099831 0.649484
vt 0.103133 0.649337
vt 0.105899 0.534182
vt 0.106385 0.649247
vt 0.109130 0.534223
vt 0.109613 0.649176
vt 0.112350 0.534247
vt 0.112829 0.649119
vt 0.115567 0.534257
vt 0.116042 0.649056
vt 0.118794 0.534276
vt 0.119266 0.649078
vt 0.122010 0.534214
vt 0.122479 0.649089
vt 0.125229 0.534156
vt 0.125695 0.649114
vt 0.128461 0.534087
vt 0.128923 0.649158
vt 0.131719 0.533999
vt 0.132174 0.649222
vt 0.135029 0.533859
vt 0.135475 0.649343
vt 0.141314 0.655511
vt 0.137368 0.655892
vt 0.142009 0.657040
vt 0.138059 0.657415
vt 0.133202 0.656404
vt 0.133825 0.657943
vt 0.128873 0.656899
vt 0.129360 0.658470
vt 0.124433 0.657275
vt 0.124745 0.658878
vt 0.119936 0.657489
vt 0.120053 0.659131
vt 0.115432 0.657561
vt 0.115333 0.659176
vt 0.110930 0.657348
vt 0.110630 0.658952
vt 0.106489 0.656995
vt 0.106012 0.658569
vt 0.102158 0.656529
vt 0.101546 0.658073
vt 0.097990 0.656048
vt 0.097312 0.657577
vt 0.094042 0.655701
vt 0.093361 0.657236
vt 0.137622 0.525783
vt 0.141604 0.526146
vt 0.140911 0.527677
vt 0.136934 0.527308
vt 0.133358 0.525271
vt 0.132740 0.526812
vt 0.128866 0.524766
vt 0.128386 0.526340
vt 0.124226 0.524383
vt 0.123926 0.525987
vt 0.119508 0.524169
vt 0.119408 0.525788
vt 0.114771 0.524186
vt 0.114885 0.525825
vt 0.110059 0.524454
vt 0.110375 0.526056
vt 0.105425 0.524871
vt 0.105918 0.526440
vt 0.100940 0.525409
vt 0.101570 0.526946
vt 0.096684 0.525952
vt 0.097383 0.527473
vt 0.092709 0.526343
vt 0.093412 0.527869
vt 0.053401 0.648525
vt 0.052614 0.535577
vt 0.053751 0.535569
vt 0.054538 0.648517
vt 0.181843 0.535067
vt 0.181843 0.648004
vt 0.180706 0.648003
vt 0.180706 0.535066
vt 0.100179 0.647827
vt 0.065065 0.647050
vt 0.064244 0.536869
vt 0.099713 0.535657
vt 0.102903 0.535709
vt 0.103369 0.647746
vt 0.106086 0.535758
vt 0.106552 0.647669
vt 0.109261 0.535797
vt 0.109727 0.647602
vt 0.112432 0.535821
vt 0.112897 0.647550
vt 0.115601 0.535830
vt 0.116066 0.647515
vt 0.118770 0.535820
vt 0.119232 0.647506
vt 0.121939 0.535785
vt 0.122400 0.647516
vt 0.125111 0.535733
vt 0.125569 0.647542
vt 0.128287 0.535667
vt 0.128743 0.647582
vt 0.131471 0.535590
vt 0.131924 0.647634
vt 0.134662 0.535511
vt 0.135114 0.647689
vt 0.170137 0.536451
vt 0.170220 0.646626
vn -0.0000 0.0000 -1.0000
vn -0.0000 0.0000 1.0000
vn 0.7071 -0.7071 -0.0000
vn 0.6549 -0.7557 -0.0000
vn -0.7071 -0.7071 -0.0000
vn 0.5406 -0.8413 -0.0000
vn 0.4154 -0.9096 -0.0000
vn 0.2818 -0.9595 -0.0000
vn 0.1423 -0.9898 -0.0000
vn 0.0000 -1.0000 -0.0000
vn -0.1423 -0.9898 -0.0000
vn -0.2818 -0.9595 -0.0000
vn -0.4154 -0.9096 -0.0000
vn -0.5406 -0.8413 -0.0000
vn -0.6548 -0.7558 -0.0000
vn 1.0000 0.0000 0.0000
vn -0.9496 0.1878 0.2510
vn -0.4972 0.2189 0.8396
vn -0.9496 0.1878 -0.2510
vn -0.4972 0.2189 -0.8396
vn 0.9167 0.1242 0.3797
vn 0.5175 0.2145 0.8284
vn 0.9496 0.1880 -0.2508
vn 0.9496 0.1877 -0.2509
vn 0.4973 0.2189 -0.8395
vn -0.8180 -0.2651 -0.5105
vn -0.0911 -0.2704 -0.9584
vn 0.4080 -0.7762 -0.4807
vn -0.8180 -0.2651 0.5105
vn 0.4081 -0.7761 0.4807
vn -0.0911 -0.2704 0.9584
vn 0.8179 -0.2657 -0.5104
vn 0.8179 -0.2656 -0.5104
vn -0.4080 -0.7761 -0.4807
vn 0.0911 -0.2704 -0.9584
vn 0.0911 -0.2704 0.9584
vn -0.4081 -0.7761 0.4807
vn 0.8183 -0.2648 0.5102
vn -0.9754 0.2207 0.0000
vn 0.9814 0.1917 -0.0005
vn -0.2806 0.3195 0.9051
vn -0.2806 0.3196 -0.9051
vn -0.2163 0.3307 0.9186
vn -0.2163 0.3307 -0.9186
vn -0.1584 0.3401 0.9269
vn -0.1584 0.3401 -0.9269
vn -0.1041 0.3473 0.9320
vn -0.1041 0.3473 -0.9320
vn -0.0516 0.3517 0.9347
vn -0.0517 0.3517 -0.9347
vn 0.0000 0.3533 0.9355
vn 0.0000 0.3532 -0.9355
vn 0.0517 0.3517 0.9347
vn 0.0517 0.3517 -0.9347
vn 0.1041 0.3473 0.9320
vn 0.1041 0.3473 -0.9320
vn 0.1584 0.3401 0.9269
vn 0.1584 0.3401 -0.9269
vn 0.2163 0.3307 0.9186
vn 0.2163 0.3307 -0.9186
vn 0.2806 0.3196 0.9051
vn 0.2806 0.3196 -0.9051
vn 0.3194 0.3186 0.8925
vn 0.3125 0.3124 -0.8971
vn -0.3125 0.3123 -0.8971
vn -0.3124 0.3123 0.8971
vn -0.3827 0.0000 -0.9239
vn -0.9237 0.0000 -0.3830
vn -0.9237 0.0000 0.3830
vn -0.3827 0.0000 0.9239
vn 0.9239 0.0000 -0.3826
vn 0.3827 0.0000 -0.9239
vn 0.4009 0.0053 0.9161
vn 0.9119 0.0111 0.4102
vn -0.2737 -0.3202 -0.9070
vn -0.6135 -0.7103 -0.3452
vn -0.2090 -0.3312 -0.9201
vn -0.5002 -0.7817 -0.3726
vn -0.1524 -0.3405 -0.9278
vn -0.3808 -0.8376 -0.3917
vn -0.0999 -0.3474 -0.9324
vn -0.2566 -0.8780 -0.4042
vn -0.0495 -0.3518 -0.9348
vn -0.1291 -0.9023 -0.4113
vn 0.0000 -0.3533 -0.9355
vn 0.0000 -0.9104 -0.4136
vn 0.0495 -0.3518 -0.9348
vn 0.1291 -0.9023 -0.4113
vn 0.0999 -0.3474 -0.9324
vn 0.2566 -0.8780 -0.4042
vn 0.1524 -0.3405 -0.9278
vn 0.3808 -0.8376 -0.3917
vn 0.2090 -0.3312 -0.9201
vn 0.5002 -0.7817 -0.3726
vn 0.2737 -0.3202 -0.9069
vn 0.6136 -0.7102 -0.3451
vn -0.6135 -0.7102 0.3452
vn -0.2737 -0.3202 0.9069
vn -0.5002 -0.7816 0.3726
vn -0.2090 -0.3312 0.9201
vn -0.3808 -0.8376 0.3917
vn -0.1524 -0.3405 0.9278
vn -0.2566 -0.8779 0.4042
vn -0.0999 -0.3474 0.9324
vn -0.1291 -0.9023 0.4113
vn -0.0495 -0.3518 0.9348
vn 0.0000 -0.9104 0.4137
vn 0.0000 -0.3533 0.9355
vn 0.1291 -0.9023 0.4113
vn 0.0495 -0.3518 0.9348
vn 0.2566 -0.8779 0.4042
vn 0.0999 -0.3474 0.9324
vn 0.3808 -0.8376 0.3917
vn 0.1524 -0.3405 0.9278
vn 0.5002 -0.7816 0.3726
vn 0.2090 -0.3312 0.9201
vn 0.6136 -0.7102 0.3452
vn 0.2737 -0.3202 0.9069
vn 0.3123 -0.3125 -0.8971
vn 0.6675 -0.6677 -0.3296
vn -0.3123 -0.3125 -0.8971
vn -0.6675 -0.6676 -0.3296
vn 0.3123 -0.3125 0.8971
vn 0.6675 -0.6677 0.3296
vn 0.3825 -0.9240 -0.0000
vn -0.9240 -0.3824 -0.0000
vn -0.3824 -0.9240 -0.0000
vn 0.9238 -0.3829 -0.0000
vn -0.3123 -0.3125 0.8971
vn -0.6675 -0.6676 0.3297
vn -1.0000 0.0000 0.0000
vn -0.6693 0.7230 -0.1712
vn -0.7618 0.6310 -0.1466
vn -0.7618 0.6310 0.1466
vn -0.6693 0.7230 0.1712
vn -0.5854 0.7900 0.1823
vn -0.5854 0.7900 -0.1822
vn -0.4671 0.8627 0.1939
vn -0.4671 0.8627 -0.1939
vn -0.3401 0.9185 0.2020
vn -0.3401 0.9185 -0.2019
vn -0.2066 0.9563 0.2071
vn -0.2066 0.9563 -0.2070
vn -0.0693 0.9753 0.2095
vn -0.0693 0.9753 -0.2095
vn 0.0693 0.9753 0.2095
vn 0.0693 0.9753 -0.2095
vn 0.2066 0.9563 0.2071
vn 0.2066 0.9563 -0.2070
vn 0.3401 0.9185 0.2020
vn 0.3401 0.9185 -0.2019
vn 0.4671 0.8627 0.1939
vn 0.4671 0.8627 -0.1939
vn 0.5854 0.7900 0.1823
vn 0.5854 0.7900 -0.1822
vn 0.6690 0.7225 0.1745
vn 0.6693 0.7230 -0.1712
vn 0.7556 0.6332 0.1678
vn 0.7584 0.6351 -0.1466
vn -0.9180 0.3771 0.1226
vn -0.7884 0.3394 0.5130
vn -0.6115 0.4696 0.6368
vn -0.6115 0.4697 -0.6368
vn -0.7884 0.3395 -0.5130
vn -0.9180 0.3771 -0.1226
vn 0.5887 0.4748 0.6542
vn 0.7592 0.3181 0.5679
vn 0.9153 0.3608 0.1789
vn 0.9188 0.3751 -0.1231
vn 0.7884 0.3393 -0.5131
vn 0.6115 0.4695 -0.6369
vn -0.5093 0.5448 0.6662
vn -0.4418 0.5847 0.6804
vn -0.4417 0.5847 -0.6804
vn -0.5093 0.5449 -0.6661
vn -0.3458 0.6266 0.6984
vn -0.3458 0.6266 -0.6984
vn -0.2485 0.6586 0.7103
vn -0.2485 0.6586 -0.7103
vn -0.1497 0.6802 0.7176
vn -0.1497 0.6802 -0.7176
vn -0.0500 0.6911 0.7210
vn -0.0500 0.6911 -0.7210
vn 0.0500 0.6911 0.7210
vn 0.0500 0.6911 -0.7210
vn 0.1497 0.6802 0.7176
vn 0.1497 0.6802 -0.7176
vn 0.2485 0.6586 0.7103
vn 0.2485 0.6586 -0.7103
vn 0.3458 0.6266 0.6984
vn 0.3458 0.6266 -0.6984
vn 0.4417 0.5847 0.6804
vn 0.4417 0.5848 -0.6804
vn 0.5079 0.5429 0.6687
vn 0.5093 0.5448 -0.6662
usemtl None:004
s off
f 1/1/1 2/2/1 3/3/1 4/4/1
f 5/5/2 6/6/2 7/7/2 8/8/2
f 9/9/2 10/10/2 11/11/2 12/12/2
f 13/13/1 14/14/1 15/15/1 16/16/1
f 17/17/2 18/18/2 19/19/2 20/20/2
f 18/18/2 21/21/2 22/22/2 19/19/2
f 21/21/2 23/23/2 24/24/2 22/22/2
f 23/23/2 25/25/2 26/26/2 24/24/2
f 25/25/2 27/27/2 28/28/2 26/26/2
f 27/27/2 29/29/2 30/30/2 28/28/2
f 29/29/2 31/31/2 32/32/2 30/30/2
f 31/31/2 9/9/2 12/12/2 32/32/2
f 7/7/2 17/17/2 20/20/2 8/8/2
f 33/33/2 34/34/2 35/35/2 36/36/2
f 14/14/1 37/37/1 38/38/1 15/15/1
f 39/39/3 40/40/3 41/41/3 42/42/3
f 43/43/1 44/44/1 45/45/1 46/46/1
f 47/47/1 43/43/1 46/46/1 48/48/1
f 49/49/1 47/47/1 48/48/1 50/50/1
f 51/51/1 49/49/1 50/50/1 52/52/1
f 53/53/1 51/51/1 52/52/1 54/54/1
f 55/55/1 53/53/1 54/54/1 56/56/1
f 57/57/1 55/55/1 56/56/1 58/58/1
f 37/37/1 57/57/1 58/58/1 38/38/1
f 44/44/1 4/4/1 3/3/1 45/45/1
f 39/39/4 42/42/4 59/59/4 60/60/4
f 61/61/5 62/62/5 63/63/5 64/64/5
f 60/60/6 59/59/6 65/65/6 66/66/6
f 66/66/7 65/65/7 67/67/7 68/68/7
f 68/68/8 67/67/8 69/69/8 70/70/8
f 70/70/9 69/69/9 71/71/9 72/72/9
f 72/72/10 71/71/10 73/73/10 74/74/10
f 74/74/11 73/73/11 75/75/11 76/76/11
f 76/76/12 75/75/12 77/77/12 78/78/12
f 78/78/13 77/77/13 79/79/13 80/80/13
f 80/80/14 79/79/14 81/81/14 82/82/14
f 10/10/2 34/34/2 33/33/2 11/11/2
f 13/13/1 16/16/1 83/83/1 84/84/1
f 64/64/15 82/82/15 81/81/15 61/61/15
f 85/85/16 86/86/16 87/87/16 88/88/16
f 89/89/17 90/90/17 91/91/17 92/92/17
f 5/5/18 93/93/18 91/91/18 90/90/18
f 94/94/19 95/95/19 96/96/19 97/97/19
f 84/84/20 97/97/20 96/96/20 98/98/20
f 87/87/21 99/99/21 100/100/21 101/101/21
f 36/36/22 101/101/22 100/100/22 102/102/22
f 86/86/23 103/103/24 104/104/23 105/105/24
f 1/1/25 106/106/25 104/104/25 103/103/25
f 107/107/26 108/108/26 109/109/26 110/110/26
f 83/83/27 111/111/27 109/109/27 108/108/27
f 41/112/28 110/110/28 109/109/28 111/111/28
f 112/113/29 113/114/29 114/115/29 115/116/29
f 40/117/30 116/118/30 114/115/30 113/114/30
f 6/6/31 115/116/31 114/115/31 116/118/31
f 85/85/32 117/119/33 118/120/32 119/121/33
f 62/122/34 120/123/34 118/120/34 117/119/34
f 2/2/35 119/121/35 118/120/35 120/123/35
f 35/35/36 121/124/36 122/125/36 123/126/36
f 63/127/37 124/128/37 122/125/37 121/124/37
f 88/88/38 123/126/38 122/125/38 124/128/38
f 94/94/39 89/89/39 92/92/39 95/95/39
f 87/87/40 86/86/40 105/105/40 99/99/40
f 125/129/41 126/130/41 8/8/41 20/20/41
f 127/131/42 128/132/42 14/14/42 13/13/42
f 129/133/43 125/129/43 20/20/43 19/19/43
f 128/132/44 130/134/44 37/37/44 14/14/44
f 131/135/45 129/133/45 19/19/45 22/22/45
f 130/134/46 132/136/46 57/57/46 37/37/46
f 133/137/47 131/135/47 22/22/47 24/24/47
f 132/136/48 134/138/48 55/55/48 57/57/48
f 135/139/49 133/137/49 24/24/49 26/26/49
f 134/138/50 136/140/50 53/53/50 55/55/50
f 137/141/51 135/139/51 26/26/51 28/28/51
f 136/140/52 138/142/52 51/51/52 53/53/52
f 139/143/53 137/141/53 28/28/53 30/30/53
f 138/142/54 140/144/54 49/49/54 51/51/54
f 141/145/55 139/143/55 30/30/55 32/32/55
f 140/144/56 142/146/56 47/47/56 49/49/56
f 143/147/57 141/145/57 32/32/57 12/12/57
f 142/146/58 144/148/58 43/43/58 47/47/58
f 145/149/59 143/147/59 12/12/59 11/11/59
f 144/148/60 146/150/60 44/44/60 43/43/60
f 147/151/61 145/149/61 11/11/61 33/33/61
f 146/150/62 148/152/62 4/4/62 44/44/62
f 102/102/63 147/151/63 33/33/63 36/36/63
f 148/152/64 106/106/64 1/1/64 4/4/64
f 98/98/65 127/131/65 13/13/65 84/84/65
f 126/130/66 93/93/66 5/5/66 8/8/66
f 84/84/67 83/83/67 108/108/67 97/97/67
f 97/97/68 108/108/68 107/107/68 94/94/68
f 89/89/69 112/113/69 115/116/69 90/90/69
f 90/90/70 115/116/70 6/6/70 5/5/70
f 86/86/71 85/85/71 119/121/71 103/103/71
f 103/103/72 119/121/72 2/2/72 1/1/72
f 36/36/73 35/35/73 123/126/73 101/101/73
f 101/101/74 123/126/74 88/88/74 87/87/74
f 45/45/75 3/3/75 149/153/75 150/154/75
f 150/154/76 149/153/76 61/155/76 81/156/76
f 46/46/77 45/45/77 150/154/77 151/157/77
f 151/157/78 150/154/78 81/156/78 79/158/78
f 48/48/79 46/46/79 151/157/79 152/159/79
f 152/159/80 151/157/80 79/158/80 77/160/80
f 50/50/81 48/48/81 152/159/81 153/161/81
f 153/161/82 152/159/82 77/160/82 75/162/82
f 52/52/83 50/50/83 153/161/83 154/163/83
f 154/163/84 153/161/84 75/162/84 73/164/84
f 54/54/85 52/52/85 154/163/85 155/165/85
f 155/165/86 154/163/86 73/164/86 71/166/86
f 56/56/87 54/54/87 155/165/87 156/167/87
f 156/167/88 155/165/88 71/166/88 69/168/88
f 58/58/89 56/56/89 156/167/89 157/169/89
f 157/169/90 156/167/90 69/168/90 67/170/90
f 38/38/91 58/58/91 157/169/91 158/171/91
f 158/171/92 157/169/92 67/170/92 65/172/92
f 15/15/93 38/38/93 158/171/93 159/173/93
f 159/173/94 158/171/94 65/172/94 59/174/94
f 16/16/95 15/15/95 159/173/95 160/175/95
f 160/175/96 159/173/96 59/174/96 42/176/96
f 82/177/97 64/178/97 161/179/97 162/180/97
f 162/180/98 161/179/98 34/34/98 10/10/98
f 80/181/99 82/177/99 162/180/99 163/182/99
f 163/182/100 162/180/100 10/10/100 9/9/100
f 78/183/101 80/181/101 163/182/101 164/184/101
f 164/184/102 163/182/102 9/9/102 31/31/102
f 76/185/103 78/183/103 164/184/103 165/186/103
f 165/186/104 164/184/104 31/31/104 29/29/104
f 74/187/105 76/185/105 165/186/105 166/188/105
f 166/188/106 165/186/106 29/29/106 27/27/106
f 72/189/107 74/187/107 166/188/107 167/190/107
f 167/190/108 166/188/108 27/27/108 25/25/108
f 70/191/109 72/189/109 167/190/109 168/192/109
f 168/192/110 167/190/110 25/25/110 23/23/110
f 68/193/111 70/191/111 168/192/111 169/194/111
f 169/194/112 168/192/112 23/23/112 21/21/112
f 66/195/113 68/193/113 169/194/113 170/196/113
f 170/196/114 169/194/114 21/21/114 18/18/114
f 60/197/115 66/195/115 170/196/115 171/198/115
f 171/198/116 170/196/116 18/18/116 17/17/116
f 39/199/117 60/197/117 171/198/117 172/200/117
f 172/200/118 171/198/118 17/17/118 7/7/118
f 83/83/119 16/16/119 160/175/119 111/111/119
f 111/111/120 160/175/120 42/176/120 41/112/120
f 3/3/121 2/2/121 120/123/121 149/153/121
f 149/153/122 120/123/122 62/122/122 61/155/122
f 7/7/123 6/6/123 116/118/123 172/200/123
f 172/200/124 116/118/124 40/117/124 39/199/124
f 41/201/125 40/202/125 113/203/125 110/204/125
f 110/204/126 113/203/126 112/113/126 107/107/126
f 63/205/127 62/206/127 117/207/127 124/208/127
f 124/208/128 117/207/128 85/85/128 88/88/128
f 35/35/129 34/34/129 161/179/129 121/124/129
f 121/124/130 161/179/130 64/178/130 63/127/130
f 107/107/131 112/113/131 89/89/131 94/94/131
s 1
f 173/209/132 174/210/133 175/211/134 176/212/135
f 176/212/135 177/213/136 178/214/137 173/209/132
f 177/213/136 179/215/138 180/216/139 178/214/137
f 179/215/138 181/217/140 182/218/141 180/216/139
f 181/217/140 183/219/142 184/220/143 182/218/141
f 183/219/142 185/221/144 186/222/145 184/220/143
f 185/221/144 187/223/146 188/224/147 186/222/145
f 187/223/146 189/225/148 190/226/149 188/224/147
f 189/225/148 191/227/150 192/228/151 190/226/149
f 191/227/150 193/229/152 194/230/153 192/228/151
f 193/229/152 195/231/154 196/232/155 194/230/153
f 195/231/154 197/233/156 198/234/157 196/232/155
f 199/235/158 200/236/159 198/234/157 197/233/156
f 175/211/134 92/92/160 91/91/161 93/93/162
f 174/210/133 98/98/163 96/96/164 95/95/165
f 199/235/158 102/102/166 100/100/167 99/99/168
f 200/236/159 105/105/169 104/104/170 106/106/171
f 95/95/165 92/92/160 175/211/134 174/210/133
f 99/99/168 105/105/169 200/236/159 199/235/158
f 177/213/136 176/212/135 126/130/172 125/129/173
f 173/209/132 178/214/137 128/132/174 127/131/175
f 179/215/138 177/213/136 125/129/173 129/133/176
f 178/214/137 180/216/139 130/134/177 128/132/174
f 181/217/140 179/215/138 129/133/176 131/135/178
f 180/216/139 182/218/141 132/136/179 130/134/177
f 183/219/142 181/217/140 131/135/178 133/137/180
f 182/218/141 184/220/143 134/138/181 132/136/179
f 185/221/144 183/219/142 133/137/180 135/139/182
f 184/220/143 186/222/145 136/140/183 134/138/181
f 187/223/146 185/221/144 135/139/182 137/141/184
f 186/222/145 188/224/147 138/142/185 136/140/183
f 189/225/148 187/223/146 137/141/184 139/143/186
f 188/224/147 190/226/149 140/144/187 138/142/185
f 191/227/150 189/225/148 139/143/186 141/145/188
f 190/226/149 192/228/151 142/146/189 140/144/187
f 193/229/152 191/227/150 141/145/188 143/147/190
f 192/228/151 194/230/153 144/148/191 142/146/189
f 195/231/154 193/229/152 143/147/190 145/149/192
f 194/230/153 196/232/155 146/150/193 144/148/191
f 197/233/156 195/231/154 145/149/192 147/151/194
f 196/232/155 198/234/157 148/152/195 146/150/193
f 199/235/158 197/233/156 147/151/194 102/102/166
f 198/234/157 200/236/159 106/106/171 148/152/195
f 174/210/133 173/209/132 127/131/175 98/98/163
f 176/212/135 175/211/134 93/93/162 126/130/172
