# Blender v2.93.5 OBJ File: 'Wändgruppen.blend'
# www.blender.org
mtllib Plank06_LP.mtl
o Plank06_LP_Test_no_back_Plank_06_NEU:006
v 3.084230 -0.083600 -0.007433
v 3.045594 -0.060126 -0.019964
v 3.042314 -0.059658 -0.004827
v 3.082261 -0.086438 0.014606
v 3.106416 -0.122015 -0.013277
v 3.105622 -0.123411 0.006951
v 3.037400 0.208287 -0.021441
v 3.029969 0.204048 -0.006805
v 3.033921 0.140901 -0.011169
v 3.041719 0.139896 -0.025902
v 3.043977 0.142626 -0.041596
v 3.037187 0.207225 -0.040494
v 3.040711 0.019074 -0.026444
v 3.034867 0.020087 -0.007330
v -3.468459 0.024761 -0.017741
v -3.462142 0.022667 -0.033779
v -3.464614 -0.003248 -0.035848
v -3.468261 -0.009200 -0.018348
v -2.358870 -0.181889 0.007604
v -2.278029 -0.186796 0.002160
v -2.293395 -0.141422 0.004534
v -2.358718 -0.092257 0.000525
v 3.112382 -0.163610 -0.002979
v 3.117143 -0.167520 -0.019299
v 2.984559 0.040402 -0.006585
v 2.988481 0.040879 -0.025353
v 2.975892 -0.100298 0.015482
v 2.959321 -0.074154 0.000638
v 3.016587 0.125287 -0.023774
v 3.012528 0.130865 -0.003728
v 2.685746 -0.067192 0.000025
v 2.822587 0.108376 0.000013
v 3.004747 0.215936 -0.010059
v 2.686784 -0.077623 0.007029
v 2.461396 -0.087163 0.000906
v 2.623292 0.133349 0.000005
v 0.147126 -0.109062 0.003912
v 0.147477 -0.094272 0.002597
v 0.043153 -0.179292 -0.003850
v 0.059205 -0.188163 -0.008038
v 0.383302 -0.158860 0.003334
v 0.382264 -0.179871 -0.000833
v 0.307374 -0.096843 0.005542
v 0.301744 -0.081418 0.002733
v 0.000367 0.115960 0.001075
v 0.587327 0.062145 0.000015
v 0.573915 -0.085326 0.003292
v 0.622544 -0.158720 0.000412
v 0.874345 0.034791 0.000497
v 0.892518 0.191404 -0.003047
v 0.628083 0.216839 -0.004684
v 0.903093 -0.174980 -0.001972
v 1.173005 0.030336 0.000016
v 1.369615 0.215182 -0.002989
v 1.136186 0.214908 -0.003612
v 1.490037 -0.010206 -0.000016
v 1.377366 0.242140 -0.000537
v 1.549318 -0.178928 -0.003402
v 3.098298 -0.123938 -0.030674
v 3.081147 -0.081805 -0.025500
v 3.044831 -0.061740 -0.042006
v 3.042085 0.017796 -0.042610
v 3.038270 -0.136471 -0.029928
v 2.994844 0.040782 -0.042898
v 3.017152 0.124128 -0.042865
v 3.021531 0.215621 -0.023810
v 2.616349 0.216639 -0.003919
v 3.025163 0.214622 -0.041918
v 2.450608 0.214226 -0.003324
v 2.772660 0.216210 -0.042181
v 2.883241 0.095075 -0.046134
v 2.910585 -0.052579 -0.046134
v 3.109071 -0.177828 -0.022767
v 3.114564 -0.173380 -0.036260
v 3.098542 -0.176361 -0.001755
v 2.984086 -0.182914 0.006834
v 2.982942 -0.182349 -0.028447
v 2.692979 -0.165069 0.005115
v 2.453584 -0.178480 -0.002491
v -3.429900 0.096579 -0.035779
v -3.430831 0.098740 -0.017668
v -3.377654 0.119431 -0.022744
v -3.377318 0.117244 -0.042450
v -3.380919 -0.026698 -0.042544
v -3.381621 -0.029518 -0.022100
v -3.319564 0.077113 -0.037353
v -3.381560 -0.066785 -0.042403
v -3.385497 -0.067809 -0.019883
v -3.493758 -0.185686 -0.002096
v -3.490111 -0.186298 0.017754
v -3.518844 -0.178569 0.012782
v -3.517913 -0.182775 0.000512
v -3.494216 -0.181048 -0.014960
v -3.176284 0.087350 -0.040315
v -3.006347 -0.076048 -0.046134
v -3.156142 -0.071290 -0.046134
v -3.009490 0.097166 -0.046112
v 2.032716 -0.053294 0.000015
v 2.026979 0.212531 -0.003056
v 2.440354 0.216466 -0.040673
v 2.441911 0.098389 -0.046134
v 2.027177 -0.173240 -0.007676
v 2.451295 -0.177654 -0.039989
v 2.452668 -0.064418 -0.046134
v -3.011260 0.214899 -0.043693
v -3.365722 0.203388 -0.039819
v -3.365539 0.205428 -0.024900
v -2.999419 -0.172574 -0.041817
v -3.157027 -0.173870 -0.038432
v -3.455367 -0.185658 0.018099
v -3.479690 -0.134746 0.016634
v -3.384551 -0.179882 0.015567
v -3.381057 -0.095413 0.015716
v -3.375045 0.119486 -0.005431
v -3.363707 0.202859 -0.010696
v -3.331679 -0.112883 -0.035110
v -3.495284 -0.146221 0.003267
v -3.442885 -0.090981 0.011421
v -3.443969 -0.094484 -0.007669
v -3.476134 -0.143188 -0.018578
v -3.439940 -0.094379 -0.023866
v -3.466643 -0.006233 -0.002297
v -3.470580 0.024887 -0.000588
v -3.426925 0.099237 0.001446
v -3.379653 -0.069806 -0.000177
v -3.379607 -0.029592 -0.005988
v -2.986113 0.099082 0.000016
v -3.003097 0.215877 -0.003607
v -2.953414 -0.093847 0.000720
v -2.954711 -0.170129 -0.000582
v -1.863219 0.013739 0.000552
v -1.717788 -0.007769 0.000376
v -1.862777 0.026895 0.002165
v -1.868438 -0.178824 -0.003298
v -1.642577 -0.176917 -0.009489
v -2.270720 -0.179014 -0.002297
v -2.289702 -0.128672 -0.000191
v -2.262786 0.062626 0.003983
v -2.252486 0.034597 0.000094
v -2.083480 -0.177814 -0.002753
v -2.858947 -0.027435 0.000757
v -2.865050 0.218141 -0.005923
v -2.481505 0.030368 0.006597
v -2.480834 0.216902 -0.003810
v -2.019225 0.217694 -0.004220
v -1.708693 0.217783 -0.004288
v -2.357345 -0.084440 -0.000159
v -2.475493 0.008213 0.002244
v -2.464522 -0.070429 0.000175
v -2.487731 -0.173790 0.005892
v -2.853957 -0.170532 -0.003315
v -2.513961 -0.062665 -0.000062
v -0.288054 0.221474 -0.000365
v -1.111419 0.019161 0.000181
v -1.113601 -0.177296 -0.002682
v -0.486373 0.081106 0.004650
v -0.223723 0.088543 0.005476
v -1.091765 0.216321 -0.004174
v -0.220565 0.073543 0.002830
v -0.068282 -0.087277 0.000013
v -0.201369 -0.087848 0.000011
v -0.476622 0.055332 -0.000018
v -0.459533 -0.179213 -0.006384
vt 0.899953 0.373370
vt 0.894593 0.369836
vt 0.895503 0.367526
vt 0.901031 0.370904
vt 0.905960 0.376220
vt 0.906010 0.373552
vt 0.854959 0.356158
vt 0.856761 0.355134
vt 0.863347 0.359097
vt 0.862192 0.361042
vt 0.860771 0.362833
vt 0.852920 0.357361
vt 0.884138 0.366662
vt 0.885018 0.364242
vt 0.913758 0.172059
vt 0.914583 0.174031
vt 0.909054 0.174711
vt 0.909309 0.172541
vt 0.751728 0.629855
vt 0.750965 0.618531
vt 0.757257 0.620725
vt 0.764264 0.629656
vt 0.911206 0.374182
vt 0.912825 0.375802
vt 0.880455 0.357826
vt 0.879156 0.360654
vt 0.901535 0.357157
vt 0.897579 0.354839
vt 0.866568 0.360295
vt 0.866589 0.357334
vt 0.902476 0.316288
vt 0.875567 0.332333
vt 0.856576 0.352121
vt 0.904206 0.316607
vt 0.908501 0.285412
vt 0.875905 0.304090
vt 0.759756 0.281274
vt 0.761823 0.281226
vt 0.750083 0.295820
vt 0.748735 0.293581
vt 0.752623 0.248511
vt 0.749644 0.248667
vt 0.761310 0.259003
vt 0.763492 0.259774
vt 0.791192 0.301508
vt 0.783176 0.219949
vt 0.762679 0.221953
vt 0.752431 0.215251
vt 0.779106 0.180078
vt 0.800864 0.177409
vt 0.804648 0.214141
vt 0.749919 0.176269
vt 0.778217 0.138567
vt 0.803737 0.111074
vt 0.803911 0.143518
vt 0.772299 0.094532
vt 0.807485 0.109948
vt 0.748786 0.086447
vt 0.905932 0.378975
vt 0.898696 0.375156
vt 0.893222 0.372680
vt 0.883204 0.368646
vt 0.933363 0.369573
vt 0.929286 0.374576
vt 0.922983 0.375833
vt 0.923065 0.367249
vt 0.878217 0.363276
vt 0.866132 0.362972
vt 0.854375 0.354112
vt 0.864611 0.301419
vt 0.851865 0.354875
vt 0.850655 0.356461
vt 0.841613 0.356523
vt 0.839478 0.352573
vt 0.867632 0.278884
vt 0.856370 0.321446
vt 0.837606 0.334084
vt 0.948735 0.364271
vt 0.944480 0.370511
vt 0.937448 0.350956
vt 0.958380 0.349300
vt 0.959869 0.368789
vt 0.914147 0.375069
vt 0.915846 0.376735
vt 0.912453 0.372531
vt 0.913301 0.358198
vt 0.918151 0.358640
vt 0.916430 0.318526
vt 0.921001 0.285659
vt 0.923619 0.167217
vt 0.921792 0.165523
vt 0.924825 0.159246
vt 0.926957 0.161099
vt 0.969649 0.160385
vt 0.965320 0.171765
vt 0.961725 0.171118
vt 0.951830 0.165679
vt 0.899656 0.163364
vt 0.898998 0.166280
vt 0.949525 0.158006
vt 0.955973 0.150652
vt 0.895932 0.166471
vt 0.894766 0.163899
vt 0.871628 0.170453
vt 0.874098 0.169848
vt 0.873752 0.173224
vt 0.872709 0.174257
vt 0.869903 0.170288
vt 0.855503 0.152495
vt 0.849933 0.151561
vt 0.836682 0.140890
vt 0.838037 0.120759
vt 0.863963 0.100832
vt 0.860385 0.121404
vt 0.840091 0.097090
vt 0.765796 0.019137
vt 0.802752 0.019682
vt 0.862699 0.276830
vt 0.846451 0.274193
vt 0.910854 0.225468
vt 0.874090 0.220387
vt 0.749095 0.020017
vt 0.927700 0.226772
vt 0.926125 0.285874
vt 0.964368 0.286766
vt 0.941721 0.287013
vt 0.941077 0.107826
vt 0.957455 0.108416
vt 0.956682 0.131155
vt 0.937776 0.154760
vt 0.935860 0.154093
vt 0.877373 0.102247
vt 0.874615 0.123826
vt 0.875103 0.165857
vt 0.880559 0.170183
vt 0.877207 0.156695
vt 0.889703 0.159001
vt 0.922525 0.157444
vt 0.933990 0.153446
vt 0.862980 0.146575
vt 0.878684 0.173023
vt 0.887034 0.167351
vt 0.888000 0.169655
vt 0.881452 0.175484
vt 0.889385 0.171124
vt 0.875222 0.177343
vt 0.909714 0.170792
vt 0.912767 0.170032
vt 0.920047 0.163595
vt 0.893863 0.160876
vt 0.900171 0.160678
vt 0.919703 0.103613
vt 0.935572 0.106298
vt 0.894103 0.097590
vt 0.883761 0.096794
vt 0.778607 0.560650
vt 0.775496 0.540449
vt 0.780447 0.560578
vt 0.751846 0.561537
vt 0.751879 0.530139
vt 0.752085 0.617371
vt 0.759099 0.620065
vt 0.785753 0.616162
vt 0.781808 0.614757
vt 0.752191 0.591408
vt 0.904118 0.084703
vt 0.938007 0.087589
vt 0.917738 0.033002
vt 0.943572 0.035150
vt 0.807108 0.582140
vt 0.807485 0.646263
vt 0.781542 0.646595
vt 0.806845 0.538979
vt 0.765354 0.629449
vt 0.914751 0.031884
vt 0.778400 0.645772
vt 0.767467 0.644347
vt 0.753118 0.647755
vt 0.884411 0.082207
vt 0.904487 0.036269
vt 0.889746 0.030998
vt 0.904297 0.029292
vt 0.806134 0.341505
vt 0.778698 0.456132
vt 0.751388 0.456609
vt 0.786777 0.369192
vt 0.787583 0.332688
vt 0.806096 0.453231
vt 0.785464 0.332257
vt 0.762984 0.311222
vt 0.763014 0.329723
vt 0.783129 0.367858
vt 0.750504 0.365691
vt 0.858680 0.161311
vt 0.864907 0.167148
vt 0.944598 0.227783
vt 0.837606 0.213624
vt 0.969649 0.035963
vt 0.865164 0.024737
vt 0.861918 0.024930
vt 0.876187 0.025267
vn 0.4979 0.8582 0.1250
vn 0.8594 0.5002 0.1063
vn 0.8864 0.0247 0.4623
vn 0.9948 0.0805 0.0624
vn 0.9634 0.0890 0.2528
vn -0.9590 0.0489 -0.2793
vn 0.0237 0.0375 0.9990
vn 0.9753 0.1736 0.1363
vn 0.3799 0.9211 0.0849
vn -0.0471 0.5071 0.8606
vn 0.4940 -0.8079 0.3213
vn 0.0485 0.0455 0.9978
vn 0.9250 -0.3024 0.2300
vn 0.0164 0.0157 0.9997
vn 0.0170 0.0167 0.9997
vn 0.0174 0.0175 0.9997
vn 0.0902 0.0204 0.9957
vn 0.0176 0.0178 0.9997
vn 0.0135 0.5175 0.8555
vn -0.0460 0.5537 0.8315
vn 0.0021 0.0007 1.0000
vn 0.0050 -0.1172 0.9931
vn -0.0221 -0.1397 0.9899
vn -0.0161 0.1324 0.9911
vn 0.0019 0.0113 0.9999
vn 0.0006 0.1793 0.9838
vn 0.0032 -0.0317 0.9995
vn 0.0122 -0.0683 0.9976
vn -0.0008 0.0232 0.9997
vn 0.0015 0.0287 0.9996
vn -0.0006 0.0223 0.9998
vn -0.0013 0.0267 0.9996
vn 0.0044 0.0278 0.9996
vn 0.0117 -0.0157 0.9998
vn -0.0062 0.0109 0.9999
vn -0.0023 0.0174 0.9998
vn -0.0011 0.0194 0.9998
vn -0.0057 0.0091 0.9999
vn -0.0061 0.0091 0.9999
vn 0.0008 -0.0148 0.9999
vn 0.0017 0.0030 1.0000
vn 0.8501 0.4521 -0.2701
vn 0.5149 0.8560 -0.0455
vn 0.9987 0.0485 0.0123
vn 0.1579 -0.0440 -0.9865
vn 0.4103 0.9102 0.0570
vn 0.5374 -0.8433 0.0055
vn 0.9402 -0.2844 0.1875
vn 0.3406 0.8473 0.4076
vn 0.0131 0.0612 0.9980
vn 0.0655 0.0127 -0.9978
vn 0.4676 0.8839 -0.0060
vn 0.0020 0.9998 -0.0197
vn 0.0015 0.9998 -0.0211
vn 0.0019 0.9998 -0.0200
vn -0.0085 0.0217 0.9997
vn -0.0081 0.0197 0.9998
vn -0.0096 0.0208 0.9997
vn 0.0035 0.9999 -0.0154
vn 0.0072 0.0267 -0.9996
vn 0.0253 0.0034 -0.9997
vn 0.0249 0.0035 -0.9997
vn 0.0272 0.0021 -0.9996
vn 0.0294 0.0008 -0.9996
vn 0.7661 -0.6344 0.1027
vn 0.6572 -0.6599 0.3642
vn 0.0431 -0.1238 0.9914
vn 0.0393 -0.1315 -0.9905
vn 0.8911 0.2955 -0.3444
vn 0.0227 -0.9969 -0.0756
vn 0.1012 -0.1746 0.9794
vn -0.0517 0.0641 -0.9966
vn -0.0212 -0.9997 -0.0153
vn -0.0281 -0.0294 0.9992
vn -0.0220 -0.0638 0.9977
vn -0.8794 0.4124 -0.2380
vn -0.3730 0.9203 -0.1183
vn -0.0883 0.0314 -0.9956
vn -0.2553 -0.9352 -0.2455
vn -0.0141 0.0010 -0.9999
vn -0.9933 0.0542 -0.1024
vn -0.2011 -0.9715 0.1257
vn -0.1480 -0.9320 -0.3308
vn -0.0114 0.0400 -0.9991
vn -0.0186 0.0163 -0.9997
vn 0.0025 0.0075 1.0000
vn -0.0018 0.0385 -0.9993
vn -0.0002 0.0129 0.9999
vn -0.0040 0.9981 0.0609
vn -0.0043 0.9999 0.0157
vn 0.0028 -0.0378 0.9993
vn -0.0095 -0.0518 0.9986
vn 0.0049 -0.9697 0.2443
vn 0.0000 0.0000 -1.0000
vn 0.0123 -0.0940 -0.9955
vn -0.0184 -0.0026 -0.9998
vn -0.9904 0.1365 -0.0210
vn 0.0082 -0.0166 -0.9998
vn -0.0117 -0.0606 -0.9981
vn 0.0895 -0.9816 -0.1688
vn -0.0792 0.0376 0.9961
vn 0.0171 0.0123 0.9998
vn -0.9786 0.1420 0.1492
vn -0.0168 -0.0129 -0.9998
vn -0.7933 0.6028 0.0850
vn -0.7286 0.6824 0.0595
vn -0.7238 0.5663 -0.3943
vn -0.6386 0.3414 -0.6897
vn -0.9980 -0.0631 -0.0092
vn -0.3577 0.9325 0.0498
vn -0.8766 0.4799 0.0349
vn -0.3610 0.9322 0.0283
vn -0.0435 0.3126 0.9489
vn -0.2377 -0.9647 0.1136
vn 0.0032 -0.0038 1.0000
vn -0.0163 0.0439 0.9989
vn 0.0310 -0.0471 0.9984
vn 0.0156 0.3128 0.9497
vn -0.9734 0.0709 0.2177
vn 0.0364 -0.0101 0.9993
vn -0.0167 -0.1211 0.9925
vn 0.0153 -0.0349 0.9993
vn 0.4792 0.1313 0.8678
vn -0.0079 -0.1342 0.9909
vn 0.0079 -0.0128 0.9999
vn -0.0005 -0.0167 0.9999
vn 0.0030 -0.0166 0.9999
vn 0.0074 -0.0088 0.9999
vn 0.0096 -0.0120 0.9999
vn -0.0130 0.0015 0.9999
vn 0.0198 0.0297 0.9994
vn -0.0134 0.0393 0.9991
vn 0.0081 0.0401 0.9992
vn 0.0019 0.0531 0.9986
vn 0.0063 0.0287 0.9996
vn 0.0063 0.0284 0.9996
vn 0.0029 0.0250 0.9997
vn 0.1276 0.2228 0.9665
vn 0.0138 -0.1891 0.9819
vn 0.0309 -0.1522 0.9879
vn 0.0070 -0.0083 0.9999
vn 0.0142 0.0846 0.9963
vn -0.0003 0.0662 0.9978
vn 0.0220 -0.0241 0.9995
vn -0.0007 -0.0297 0.9996
vn -0.0214 0.0485 0.9986
vn 0.0047 0.0280 0.9996
vn -0.0050 -0.0358 0.9993
vn 0.0041 0.0459 0.9989
vn -0.0004 0.0219 0.9998
vn -0.0068 0.0319 0.9995
vn -0.0073 0.0325 0.9994
vn 0.0396 -0.1655 0.9854
vn -0.0126 -0.0185 0.9997
vn 0.0064 -0.0115 0.9999
vn 0.0095 -0.1743 0.9846
vn 0.0017 -0.1760 0.9844
vn 0.0024 -0.1757 0.9844
vn -0.0128 -0.0244 0.9996
vn 0.0103 -0.1744 0.9846
vn 0.0036 -0.0213 0.9998
vn -0.0039 -0.0527 0.9986
vn -0.4340 0.8987 -0.0631
vn -0.1507 -0.3115 -0.9382
vn -0.1063 -0.0356 -0.9937
vn -0.0565 -0.1078 -0.9926
vn -0.0120 -0.9997 -0.0213
vn -0.0924 0.0093 -0.9957
vn -0.1094 -0.0072 -0.9940
vn -0.1080 -0.0049 -0.9941
vn -0.1088 -0.0062 -0.9940
vn -0.1021 0.0043 -0.9948
vn -0.0309 0.9989 0.0350
vn -0.0336 0.9903 -0.1350
vn -0.0020 0.9970 -0.0779
vn 0.0855 -0.0258 -0.9960
vn 0.0278 -0.9977 -0.0616
vn 0.0188 -0.9998 -0.0014
vn -0.0090 -0.9962 0.0869
vn 0.0946 0.0267 -0.9952
vn -0.0091 -0.0276 0.9996
vn -0.0003 -0.0264 0.9997
vn -0.0847 -0.0380 0.9957
vn 0.0890 -0.0572 -0.9944
usemtl Default_OBJ:020
s 1
f 1/1/1 2/2/1 3/3/1 4/4/1
f 5/5/2 1/1/2 4/4/2 6/6/2
f 7/7/3 8/8/3 9/9/3 10/10/3
f 7/7/4 10/10/4 11/11/4 12/12/4
f 13/13/5 14/14/5 3/3/5 2/2/5
f 15/15/6 16/16/6 17/17/6 18/18/6
f 19/19/7 20/20/7 21/21/7 22/22/7
f 6/6/8 23/23/8 24/24/8 5/5/8
f 25/25/9 14/14/9 13/13/9 26/26/9
f 27/27/10 4/4/10 3/3/10 28/28/10
f 29/29/11 10/10/11 9/9/11 30/30/11
f 28/28/12 3/3/12 14/14/12 25/25/12
f 26/26/13 29/29/13 30/30/13 25/25/13
f 31/31/14 28/28/14 25/25/15 32/32/16
f 30/30/17 9/9/17 8/8/17 33/33/17
f 32/32/16 25/25/15 30/30/18 33/33/18
f 27/27/19 28/28/19 31/31/19 34/34/19
f 34/34/20 31/31/20 35/35/20
f 35/35/21 31/31/21 32/32/21 36/36/21
f 37/37/22 38/38/22 39/39/22 40/40/22
f 41/41/23 37/37/23 40/40/23 42/42/23
f 38/38/24 37/37/24 43/43/24 44/44/24
f 45/45/25 38/38/25 44/44/25 46/46/25
f 44/44/26 43/43/26 47/47/26
f 47/47/27 43/43/27 37/37/27 41/41/27
f 47/47/28 41/41/28 42/42/28 48/48/28
f 49/49/29 46/46/30 44/44/31 47/47/31
f 50/50/32 51/51/33 46/46/30 49/49/29
f 49/49/34 47/47/34 48/48/34 52/52/34
f 53/53/35 54/54/36 55/55/37 50/50/37
f 56/56/38 57/57/39 54/54/36 53/53/35
f 53/53/40 52/52/40 58/58/40 56/56/40
f 53/53/41 50/50/41 49/49/41 52/52/41
f 59/59/42 60/60/42 1/1/42 5/5/42
f 2/2/43 1/1/43 60/60/43 61/61/43
f 61/61/44 62/62/44 13/13/44 2/2/44
f 61/63/45 60/64/45 59/65/45 63/66/45
f 64/67/46 26/26/46 13/13/46 62/62/46
f 65/68/47 11/11/47 10/10/47 29/29/47
f 65/68/48 29/29/48 26/26/48 64/67/48
f 66/69/49 33/33/49 8/8/49 7/7/49
f 36/36/50 32/32/50 33/33/50 67/70/50
f 68/71/51 12/72/51 11/73/51 65/74/51
f 66/69/52 7/7/52 12/12/52 68/71/52
f 67/70/53 33/33/54 66/69/55
f 69/75/56 35/35/57 36/36/58 67/70/58
f 67/70/53 66/69/55 68/71/59 70/76/59
f 70/76/60 68/71/60 65/74/60 71/77/60
f 64/78/61 62/79/62 61/63/62 72/80/63
f 71/81/64 65/82/64 64/78/61 72/80/63
f 73/83/65 74/84/65 24/24/65
f 24/24/66 23/23/66 75/85/66 73/83/66
f 76/86/67 6/6/67 4/4/67 27/27/67
f 72/80/68 61/63/68 63/66/68 77/87/68
f 74/84/69 59/59/69 5/5/69 24/24/69
f 74/84/70 73/83/70 75/85/70 76/86/70
f 76/86/71 75/85/71 23/23/71 6/6/71
f 63/66/72 59/65/72 74/84/72 77/87/72
f 77/87/73 74/84/73 76/86/73 78/88/73
f 78/88/74 34/34/74 35/35/74 79/89/74
f 76/86/75 27/27/75 34/34/75 78/88/75
f 80/90/76 16/16/76 15/15/76 81/91/76
f 80/90/77 81/91/77 82/92/77 83/93/77
f 84/94/78 17/95/78 16/96/78 80/97/78
f 85/98/79 18/18/79 17/17/79 84/99/79
f 84/94/80 80/97/80 83/100/80 86/101/80
f 87/102/81 88/103/81 85/98/81 84/99/81
f 89/104/82 90/105/82 91/106/82 92/107/82
f 93/108/83 89/104/83 92/107/83
f 87/109/84 84/110/84 86/111/84 94/112/84
f 95/113/85 96/114/85 94/112/85 97/115/85
f 57/57/39 56/56/38 98/116/86 99/117/86
f 100/118/87 70/76/87 71/77/87 101/119/87
f 98/120/88 35/35/57 69/75/56 99/121/88
f 99/121/89 69/75/89 100/118/89
f 100/118/90 69/75/90 67/70/90 70/76/90
f 102/122/91 98/116/91 56/56/91 58/58/91
f 79/89/92 35/35/92 98/120/92 102/123/92
f 77/87/93 78/88/93 79/89/93 103/124/93
f 101/125/94 71/81/94 72/80/94 104/126/94
f 104/126/95 72/80/95 77/87/95 103/124/95
f 105/127/96 97/128/96 94/129/96 106/130/96
f 106/130/97 83/93/97 82/92/97 107/131/97
f 94/129/98 86/101/98 83/100/98 106/130/98
f 108/132/99 109/133/99 96/114/99 95/113/99
f 90/105/100 89/104/100 93/108/100 110/134/100
f 111/135/101 91/106/101 90/105/101 110/134/101
f 112/136/102 113/137/102 111/135/102 110/134/102
f 107/131/103 82/92/103 114/138/103 115/139/103
f 116/140/104 87/109/104 94/112/104 96/114/104
f 92/107/105 91/106/105 111/135/105 117/141/105
f 117/141/106 111/135/106 118/142/106 119/143/106
f 120/144/107 117/141/107 119/143/107 121/145/107
f 120/144/108 93/146/108 92/107/108 117/141/108
f 15/15/109 18/18/109 122/147/109 123/148/109
f 124/149/110 114/138/110 82/92/110 81/91/110
f 81/91/111 15/15/111 123/148/111 124/149/111
f 88/103/112 119/143/112 118/142/112 125/150/112
f 125/150/113 118/142/113 111/135/113 113/137/113
f 126/151/114 122/147/114 18/18/114 85/98/114
f 127/152/115 114/138/115 124/149/115 126/151/115
f 128/153/116 115/139/116 114/138/116 127/152/116
f 124/149/117 123/148/117 122/147/117 126/151/117
f 126/151/118 125/150/118 113/137/118 129/154/118
f 85/98/119 88/103/119 125/150/119 126/151/119
f 129/154/120 113/137/120 112/136/120 130/155/120
f 131/156/121 132/157/121 133/158/121
f 134/159/122 135/160/122 132/157/122 131/156/122
f 21/21/123 20/20/123 136/161/123 137/162/123
f 138/163/124 139/164/124 131/156/124 133/158/124
f 140/165/125 134/159/126 131/156/126 139/164/127
f 137/162/128 136/161/129 140/165/125 139/164/127
f 127/152/130 126/151/130 129/154/130 141/166/130
f 128/153/131 127/152/131 141/166/131 142/167/131
f 142/167/132 141/166/132 143/168/132 144/169/132
f 145/170/133 138/163/133 133/158/133
f 144/171/134 143/172/134 138/163/134 145/170/134
f 145/170/135 133/158/135 132/157/136 146/173/137
f 22/22/138 21/21/138 137/162/138 147/174/138
f 143/168/139 141/166/139 148/175/139
f 148/176/140 139/164/140 138/163/140 143/172/140
f 147/174/141 137/162/128 139/164/127 148/176/141
f 22/22/142 147/174/142 149/177/142
f 150/178/143 19/19/143 22/22/143 149/177/143
f 151/179/144 141/166/144 129/154/144 130/155/144
f 152/180/145 148/175/145 141/166/145 151/179/145
f 151/179/146 150/181/146 149/182/146 152/180/146
f 153/183/147 45/45/147 46/46/30 51/51/33
f 154/184/148 132/157/148 135/160/148 155/185/148
f 156/186/149 157/187/149 45/45/149 153/183/149
f 158/188/150 146/173/137 132/157/136 154/184/151
f 156/186/152 153/183/152 158/188/150 154/184/151
f 45/45/153 157/187/153 159/189/153
f 160/190/154 39/39/154 38/38/154 45/45/154
f 160/190/155 45/45/155 159/189/155 161/191/155
f 162/192/156 159/189/157 157/187/157 156/186/158
f 163/193/159 161/191/159 159/189/159 162/192/159
f 162/192/156 156/186/158 154/184/160
f 162/192/161 154/184/161 155/185/161 163/193/161
f 163/193/162 39/39/162 160/190/162 161/191/162
f 119/143/163 88/103/163 87/102/163 121/145/163
f 121/194/164 87/109/164 116/140/164
f 116/140/165 93/108/165 120/195/165 121/194/165
f 96/114/166 109/133/166 93/108/166 116/140/166
f 102/123/167 103/124/167 79/89/167
f 98/196/168 104/126/168 103/124/168 102/123/168
f 104/126/169 98/196/170 101/125/171
f 99/121/172 100/118/172 101/119/171 98/197/170
f 115/139/173 128/153/173 105/127/173 107/131/173
f 106/130/174 107/131/174 105/127/174
f 142/167/175 144/169/175 105/127/175 128/153/175
f 143/198/176 97/128/176 105/127/176 144/169/176
f 109/133/177 112/136/177 110/134/177 93/108/177
f 108/132/178 130/155/178 112/136/178 109/133/178
f 151/179/179 130/155/179 108/132/179 150/181/179
f 148/199/180 95/113/180 97/115/180 143/200/180
f 152/180/181 149/182/181 148/175/181
f 148/176/182 149/177/182 147/174/182
f 148/199/183 95/113/183 149/201/183
f 95/113/184 149/201/184 150/181/184 108/132/184
