# This file uses centimeters as units for non-parametric coordinates.

v 0.393088 0.205515 0.400465
v 0.393088 0.000050 -0.001287
v 0.393088 0.180130 -0.001287
v 0.393088 0.109123 0.310477
v 0.393088 0.049561 0.215684
v 0.393088 0.012585 0.110013
v 0.393088 0.170887 0.087827
v 0.393088 0.202488 0.172435
v 0.385908 0.247071 0.248334
v 0.393088 0.311673 0.320384
v -0.007615 0.000050 0.401326
v 0.304148 0.109123 0.401326
v 0.209355 0.049561 0.401326
v 0.103684 0.012585 0.401326
v -0.007615 0.176557 0.401326
v 0.081499 0.170699 0.396976
v 0.166106 0.210551 0.410732
v 0.242005 0.247336 0.396354
v 0.314055 0.311673 0.401326
v -0.408319 0.205515 0.400465
v -0.408319 0.000050 -0.001287
v -0.405263 0.172436 0.002065
v -0.408319 0.109123 0.310477
v -0.408319 0.049561 0.215684
v -0.408319 0.012585 0.110013
v -0.419243 0.185163 0.081523
v -0.405195 0.217092 0.172435
v -0.408319 0.251446 0.248334
v -0.408319 0.311673 0.320384
v -0.319379 0.109123 0.401326
v -0.224586 0.049561 0.401326
v -0.118915 0.012585 0.401326
v -0.096730 0.169993 0.401326
v -0.181337 0.210551 0.393723
v -0.257236 0.242442 0.401326
v -0.329286 0.311673 0.401326
v 0.393088 0.205515 -0.403039
v 0.393088 0.109123 -0.313050
v 0.393088 0.049561 -0.218257
v 0.393088 0.012585 -0.112586
v 0.393088 0.162478 -0.090401
v 0.393088 0.196180 -0.175008
v 0.395973 0.251446 -0.250907
v 0.393088 0.311673 -0.322958
v -0.007615 0.000050 -0.403900
v 0.304148 0.109123 -0.403900
v 0.209355 0.049561 -0.403900
v 0.103684 0.012585 -0.403900
v -0.007615 0.164556 -0.397398
v 0.081499 0.185163 -0.410586
v 0.166106 0.220887 -0.386363
v 0.242005 0.240710 -0.403900
v 0.314055 0.311673 -0.403900
v -0.408319 0.205515 -0.403039
v -0.408319 0.109123 -0.313050
v -0.408319 0.049561 -0.218257
v -0.408319 0.012585 -0.112586
v -0.412254 0.173067 -0.090401
v -0.406005 0.216383 -0.175008
v -0.408319 0.244143 -0.250907
v -0.408319 0.311673 -0.322958
v -0.319379 0.109123 -0.403900
v -0.224586 0.049561 -0.403900
v -0.118915 0.012585 -0.403900
v -0.096730 0.175755 -0.416735
v -0.181337 0.219505 -0.394832
v -0.257236 0.251446 -0.403900
v -0.329286 0.311673 -0.403900
vt 0.446160 0.996094
vt 0.351911 0.979498
vt 0.385890 0.857952
vt 0.458518 0.869614
vt 0.263611 0.942515
vt 0.320434 0.834324
vt 0.187629 0.882665
vt 0.269680 0.799748
vt 0.135628 0.777499
vt 0.247188 0.751247
vt 0.003906 0.460162
vt 0.153163 0.471823
vt 0.149916 0.539588
vt 0.003906 0.538383
vt 0.156787 0.604668
vt 0.018930 0.616955
vt 0.175584 0.661932
vt 0.053675 0.695170
vt 0.214895 0.705669
vt 0.553849 0.003906
vt 0.541488 0.130394
vt 0.467499 0.131646
vt 0.457826 0.006685
vt 0.397866 0.145468
vt 0.364044 0.029973
vt 0.339782 0.171642
vt 0.277597 0.076371
vt 0.304941 0.214785
vt 0.202127 0.169190
vt 0.020155 0.383033
vt 0.164039 0.404816
vt 0.051619 0.307838
vt 0.184565 0.342225
vt 0.103004 0.236250
vt 0.215589 0.289533
vt 0.262801 0.252147
vt 0.532497 0.868367
vt 0.542143 0.993331
vt 0.602120 0.854563
vt 0.635899 0.970073
vt 0.660198 0.828411
vt 0.722340 0.923711
vt 0.695043 0.785282
vt 0.797824 0.830920
vt 0.996081 0.540011
vt 0.979820 0.617136
vt 0.835949 0.595305
vt 0.846829 0.528301
vt 0.948343 0.692323
vt 0.815418 0.657890
vt 0.896946 0.763896
vt 0.784393 0.710571
vt 0.737184 0.747940
vt 0.648131 0.020527
vt 0.614126 0.142063
vt 0.736449 0.057545
vt 0.679586 0.165712
vt 0.812429 0.117430
vt 0.730341 0.200310
vt 0.864409 0.222621
vt 0.752827 0.248825
vt 0.850082 0.460534
vt 0.996094 0.461788
vt 0.843216 0.395449
vt 0.981084 0.383211
vt 0.824422 0.338175
vt 0.946354 0.304984
vt 0.785114 0.294420
vn -1.000000 0.000000 0.000000
vn -1.000000 0.000000 0.000000
vn -1.000000 0.000000 0.000000
vn -1.000000 0.000000 0.000000
vn -1.000000 0.000000 0.000000
vn -1.000000 0.000000 0.000000
vn -1.000000 0.000000 0.000000
vn -1.000000 0.000000 0.000000
vn -1.000000 0.000000 0.000000
vn -1.000000 0.000000 0.000000
vn -1.000000 0.000000 0.000000
vn -1.000000 0.000000 0.000000
vn -1.000000 0.000000 0.000000
vn -0.708411 -0.063109 -0.702973
vn -0.979305 -0.121883 -0.161574
vn -1.000000 0.000000 0.000000
vn -0.000000 0.000000 -1.000000
vn -0.000000 0.000000 -1.000000
vn 0.000000 0.000000 -1.000000
vn 0.000000 0.000000 -1.000000
vn 0.000000 0.000000 -1.000000
vn 0.000000 0.000000 -1.000000
vn 0.000000 0.000000 -1.000000
vn 0.000000 0.000000 -1.000000
vn 0.000000 0.000000 -1.000000
vn 0.000000 0.000000 -1.000000
vn -0.003112 0.000152 -0.999995
vn -0.002254 0.000110 -0.999997
vn -0.002254 0.000110 -0.999997
vn -0.003112 0.000152 -0.999995
vn -0.173088 -0.123904 -0.977082
vn -0.708411 -0.063109 -0.702973
vn -0.979305 -0.121883 -0.161574
vn -0.708411 -0.063109 -0.702973
vn -0.173088 -0.123904 -0.977082
vn 1.000000 0.000000 0.000000
vn 1.000000 0.000000 0.000000
vn 1.000000 0.000000 0.000000
vn 1.000000 0.000000 0.000000
vn 1.000000 0.000000 0.000000
vn 1.000000 0.000000 0.000000
vn 1.000000 0.000000 0.000000
vn 1.000000 0.000000 0.000000
vn 1.000000 0.000000 0.000000
vn 1.000000 0.000000 0.000000
vn 1.000000 0.000000 0.000000
vn 1.000000 0.000000 0.000000
vn 1.000000 0.000000 0.000000
vn 1.000000 0.000000 0.000000
vn 0.979305 -0.121884 -0.161574
vn 0.708411 -0.063109 -0.702974
vn -0.000000 0.000000 -1.000000
vn -0.000001 0.000000 -1.000000
vn -0.000001 0.000000 -1.000000
vn -0.000000 0.000000 -1.000000
vn -0.000001 0.000000 -1.000000
vn -0.000001 0.000000 -1.000000
vn -0.000001 0.000000 -1.000000
vn -0.000001 0.000000 -1.000000
vn -0.000001 0.000000 -1.000000
vn 0.002253 0.000110 -0.999997
vn 0.003111 0.000152 -0.999995
vn -0.000001 0.000000 -1.000000
vn 0.002253 0.000110 -0.999997
vn 0.708411 -0.063109 -0.702974
vn 0.173088 -0.123905 -0.977082
vn 0.003111 0.000152 -0.999995
vn 0.979305 -0.121884 -0.161574
vn 0.173088 -0.123905 -0.977082
vn 0.708411 -0.063109 -0.702974
vn -1.000000 0.000000 0.000000
vn -1.000000 0.000000 0.000000
vn -1.000000 0.000000 0.000000
vn -1.000000 0.000000 0.000000
vn -1.000000 0.000000 0.000000
vn -1.000000 0.000000 0.000000
vn -1.000000 0.000000 0.000000
vn -1.000000 0.000000 0.000000
vn -1.000000 0.000000 0.000000
vn -1.000000 0.000000 0.000000
vn -1.000000 0.000000 0.000000
vn -1.000000 0.000000 0.000000
vn -1.000000 0.000000 0.000000
vn -1.000000 0.000000 0.000000
vn -0.979305 -0.121883 0.161574
vn -0.708411 -0.063109 0.702973
vn 0.000000 0.000000 1.000000
vn 0.000000 0.000000 1.000000
vn 0.000000 0.000000 1.000000
vn 0.000000 0.000000 1.000000
vn 0.000000 0.000000 1.000000
vn 0.000000 0.000000 1.000000
vn 0.000000 0.000000 1.000000
vn 0.000000 0.000000 1.000000
vn 0.000000 0.000000 1.000000
vn -0.002252 0.000110 0.999997
vn -0.003110 0.000152 0.999995
vn 0.000000 0.000000 1.000000
vn -0.002252 0.000110 0.999997
vn -0.708411 -0.063109 0.702973
vn -0.173088 -0.123904 0.977082
vn -0.003110 0.000152 0.999995
vn -0.979305 -0.121883 0.161574
vn -0.173088 -0.123904 0.977082
vn -0.708411 -0.063109 0.702973
vn 1.000000 0.000000 0.000000
vn 1.000000 0.000000 0.000000
vn 1.000000 0.000000 0.000000
vn 1.000000 0.000000 0.000000
vn 1.000000 0.000000 0.000000
vn 1.000000 0.000000 0.000000
vn 1.000000 0.000000 0.000000
vn 1.000000 0.000000 0.000000
vn 1.000000 0.000000 0.000000
vn 1.000000 0.000000 0.000000
vn 1.000000 0.000000 0.000000
vn 1.000000 0.000000 0.000000
vn 1.000000 0.000000 0.000000
vn 0.708410 -0.063109 0.702974
vn 0.979305 -0.121883 0.161574
vn 1.000000 0.000000 0.000000
vn 0.000000 0.000000 1.000000
vn 0.000000 0.000000 1.000000
vn 0.000000 0.000000 1.000000
vn 0.000000 0.000000 1.000000
vn 0.000000 0.000000 1.000000
vn 0.000000 0.000000 1.000000
vn 0.000000 0.000000 1.000000
vn 0.000000 0.000000 1.000000
vn 0.000000 0.000000 1.000000
vn 0.000000 0.000000 1.000000
vn 0.003109 0.000152 0.999995
vn 0.002251 0.000110 0.999997
vn 0.002251 0.000110 0.999997
vn 0.003109 0.000152 0.999995
vn 0.173087 -0.123905 0.977082
vn 0.708410 -0.063109 0.702974
vn 0.173087 -0.123905 0.977082
vn 0.979305 -0.121883 0.161574
vn 0.708410 -0.063109 0.702974
s off
f 2/1/1 6/2/2 7/3/3 3/4/4
f 6/2/5 5/5/6 8/6/7 7/3/8
f 5/5/9 4/7/10 9/8/11 8/6/12
f 4/7/13 1/9/14 10/10/15 9/8/16
f 11/11/17 15/12/18 16/13/19 14/14/20
f 14/14/21 16/13/22 17/15/23 13/16/24
f 13/16/25 17/15/26 18/17/27 12/18/28
f 12/18/29 18/17/30 19/19/31 1/9/32
f 10/10/33 1/9/34 19/19/35
f 21/20/36 22/21/37 26/22/38 25/23/39
f 25/23/40 26/22/41 27/24/42 24/25/43
f 24/25/44 27/24/45 28/26/46 23/27/47
f 23/27/48 28/26/49 29/28/50 20/29/51
f 11/11/52 32/30/53 33/31/54 15/12/55
f 32/30/56 31/32/57 34/33/58 33/31/59
f 31/32/60 30/34/61 35/35/62 34/33/63
f 30/34/64 20/29/65 36/36/66 35/35/67
f 29/28/68 36/36/69 20/29/70
f 2/1/71 3/4/72 41/37/73 40/38/74
f 40/38/75 41/37/76 42/39/77 39/40/78
f 39/40/79 42/39/80 43/41/81 38/42/82
f 38/42/83 43/41/84 44/43/85 37/44/86
f 45/45/87 48/46/88 50/47/89 49/48/90
f 48/46/91 47/49/92 51/50/93 50/47/94
f 47/49/95 46/51/96 52/52/97 51/50/98
f 46/51/99 37/44/100 53/53/101 52/52/102
f 44/43/103 53/53/104 37/44/105
f 21/20/106 57/54/107 58/55/108 22/21/109
f 57/54/110 56/56/111 59/57/112 58/55/113
f 56/56/114 55/58/115 60/59/116 59/57/117
f 55/58/118 54/60/119 61/61/120 60/59/121
f 45/45/122 49/48/123 65/62/124 64/63/125
f 64/63/126 65/62/127 66/64/128 63/65/129
f 63/65/130 66/64/131 67/66/132 62/67/133
f 62/67/134 67/66/135 68/68/136 54/60/137
f 68/68/138 61/61/139 54/60/140
