#File written by RizomUV 2022.0.11.g5424fda. Compilation :Nov 24 2021,04:16:21
mtllib Trampolin_LP:mtl
#begin vertices
v 0 0.013491 -1
v 0 0.440143 -1
v 0.19509 0.013491 -0.980785
v 0.19509 0.440143 -0.980785
v 0.382683 0.013491 -0.92388
v 0.382683 0.440143 -0.92388
v 0.55557 0.013491 -0.83147
v 0.55557 0.440143 -0.83147
v 0.707107 0.013491 -0.707107
v 0.707107 0.440143 -0.707107
v 0.83147 0.013491 -0.55557
v 0.83147 0.440143 -0.55557
v 0.92388 0.013491 -0.382683
v 0.92388 0.440143 -0.382683
v 0.980785 0.013491 -0.19509
v 0.980785 0.440143 -0.19509
v 1 0.013491 0
v 1 0.440143 0
v 0.980785 0.013491 0.19509
v 0.980785 0.440143 0.19509
v 0.92388 0.013491 0.382683
v 0.92388 0.440143 0.382683
v 0.83147 0.013491 0.55557
v 0.83147 0.440143 0.55557
v 0.707107 0.013491 0.707107
v 0.707107 0.440143 0.707107
v 0.55557 0.013491 0.83147
v 0.55557 0.440143 0.83147
v 0.382683 0.013491 0.92388
v 0.382683 0.440143 0.92388
v 0.19509 0.013491 0.980785
v 0.19509 0.440143 0.980785
v -0 0.013491 1
v -0 0.440143 1
v -0.19509 0.013491 0.980785
v -0.19509 0.440143 0.980785
v -0.382683 0.013491 0.92388
v -0.382683 0.440143 0.92388
v -0.55557 0.013491 0.83147
v -0.55557 0.440143 0.83147
v -0.707107 0.013491 0.707107
v -0.707107 0.440143 0.707107
v -0.831469 0.013491 0.55557
v -0.831469 0.440143 0.55557
v -0.92388 0.013491 0.382684
v -0.92388 0.440143 0.382684
v -0.980785 0.013491 0.19509
v -0.980785 0.440143 0.19509
v -1 0.013491 -0
v -1 0.440143 -0
v -0.980785 0.013491 -0.19509
v -0.980785 0.440143 -0.19509
v -0.923879 0.013491 -0.382684
v -0.923879 0.440143 -0.382684
v -0.83147 0.013491 -0.55557
v -0.83147 0.440143 -0.55557
v -0.707107 0.013491 -0.707107
v -0.707107 0.440143 -0.707107
v -0.55557 0.013491 -0.83147
v -0.55557 0.440143 -0.83147
v -0.382683 0.013491 -0.92388
v -0.382683 0.440143 -0.92388
v -0.19509 0.013491 -0.980785
v -0.19509 0.440143 -0.980785
#end vertices

#begin 130 textures vertices 
vt 0.07138787 0.5620116 0
vt 0.00390625 0.5620116 0
vt 0.07138787 0.5310058 0
vt 0.00390625 0.5310058 0
vt 0.07138787 0.5 0
vt 0.00390625 0.5 0
vt 0.07138787 0.4689941 0
vt 0.00390625 0.4689941 0
vt 0.07138787 0.4379882 0
vt 0.00390625 0.4379882 0
vt 0.07138787 0.4069823 0
vt 0.00390625 0.4069823 0
vt 0.07138787 0.3759764 0
vt 0.00390625 0.3759764 0
vt 0.07138787 0.3449706 0
vt 0.00390625 0.3449706 0
vt 0.07138787 0.3139648 0
vt 0.00390625 0.3139648 0
vt 0.07138787 0.2829589 0
vt 0.00390625 0.2829589 0
vt 0.07138787 0.2519531 0
vt 0.00390625 0.2519531 0
vt 0.07138787 0.2209472 0
vt 0.00390625 0.2209472 0
vt 0.07138787 0.1899413 0
vt 0.00390625 0.1899413 0
vt 0.07138787 0.1589354 0
vt 0.00390625 0.1589354 0
vt 0.07138787 0.1279295 0
vt 0.00390625 0.1279295 0
vt 0.07138787 0.09692368 0
vt 0.00390625 0.09692368 0
vt 0.07138787 0.06591787 0
vt 0.00390625 0.06591787 0
vt 0.07138787 0.03491206 0
vt 0.00390625 0.03491206 0
vt 0.07138787 0.9960937 0
vt 0.00390625 0.00390625 0
vt 0.07138787 0.9650879 0
vt 0.00390625 0.9650879 0
vt 0.07138787 0.9340819 0
vt 0.00390625 0.9340819 0
vt 0.07138787 0.9030761 0
vt 0.00390625 0.9030761 0
vt 0.07138787 0.8720703 0
vt 0.00390625 0.8720703 0
vt 0.07138787 0.8410643 0
vt 0.00390625 0.8410643 0
vt 0.07138787 0.8100585 0
vt 0.00390625 0.8100585 0
vt 0.07138787 0.7790527 0
vt 0.00390625 0.7790527 0
vt 0.07138787 0.7480467 0
vt 0.00390625 0.7480467 0
vt 0.07138787 0.717041 0
vt 0.00390625 0.717041 0
vt 0.07138787 0.6860351 0
vt 0.00390625 0.6860351 0
vt 0.07138787 0.6550291 0
vt 0.00390625 0.6550291 0
vt 0.07138787 0.6240233 0
vt 0.00390625 0.6240233 0
vt 0.07138787 0.5930174 0
vt 0.7220421 0.1768127 0
vt 0.4642992 0.2835739 0
vt 0.7220421 0.1458069 0
vt 0.4900797 0.3007996 0
vt 0.715993 0.1153969 0
vt 0.7041277 0.08675125 0
vt 0.5187253 0.3126652 0
vt 0.6869017 0.06097082 0
vt 0.5491356 0.318714 0
vt 0.6649772 0.03904633 0
vt 0.5801414 0.318714 0
vt 0.6105514 0.3126649 0
vt 0.00390625 0.5930174 0
vt 0.7159933 0.2072228 0
vt 0.7041279 0.2358685 0
vt 0.6391972 0.3007994 0
vt 0.6649775 0.2835736 0
vt 0.686902 0.2616491 0
vt 0.6391966 0.02182042 0
vt 0.6105509 0.009955029 0
vt 0.4132834 0.2072233 0
vt 0.4251487 0.235869 0
vt 0.00390625 0.9960938 0
vt 0.5801408 0.00390625 0
vt 0.549135 0.00390625 0
vt 0.4072343 0.1458075 0
vt 0.4072343 0.1768133 0
vt 0.518725 0.00995528 0
vt 0.4423747 0.2616494 0
vt 0.4132831 0.1153974 0
vt 0.4251485 0.08675167 0
vt 0.4900793 0.02182063 0
vt 0.4642989 0.03904662 0
vt 0.4423744 0.06097114 0
vt 0.1001366 0.2358685 0
vt 0.08827141 0.1153969 0
vt 0.1173625 0.2616491 0
vt 0.08222238 0.1458069 0
vt 0.139287 0.2835736 0
vt 0.08222238 0.1768127 0
vt 0.1650672 0.3007994 0
vt 0.08827116 0.2072228 0
vt 0.193713 0.3126649 0
vt 0.2241231 0.318714 0
vt 0.2551289 0.318714 0
vt 0.2855391 0.3126652 0
vt 0.3141847 0.3007996 0
vt 0.3399652 0.2835739 0
vt 0.3618897 0.2616494 0
vt 0.3791157 0.235869 0
vt 0.07138787 0.00390625 0
vt 0.1937135 0.009955029 0
vt 0.1650678 0.02182042 0
vt 0.1392873 0.03904633 0
vt 0.1173628 0.06097082 0
vt 0.1001368 0.08675125 0
vt 0.2241236 0.00390625 0
vt 0.2551294 0.00390625 0
vt 0.3909811 0.2072233 0
vt 0.3970301 0.1768133 0
vt 0.3970301 0.1458075 0
vt 0.3909813 0.1153974 0
vt 0.3791159 0.08675167 0
vt 0.36189 0.06097114 0
vt 0.3399655 0.03904662 0
vt 0.3141851 0.02182063 0
vt 0.2855394 0.00995528 0
#end 130 textures vertices 

#begin 34 normals 
vn 0.098 0 -0.9952
vn 0.2903 0 -0.9569
vn 0.4714 0 -0.8819
vn 0.6344 0 -0.773
vn 0.773 0 -0.6344
vn 0.8819 0 -0.4714
vn 0.9569 0 -0.2903
vn 0.9952 0 -0.098
vn 0.9952 0 0.098
vn 0.9569 0 0.2903
vn 0.8819 0 0.4714
vn 0.773 0 0.6344
vn 0.6344 0 0.773
vn 0.4714 0 0.8819
vn 0.2903 0 0.9569
vn 0.098 0 0.9952
vn -0.098 0 0.9952
vn -0.2903 0 0.9569
vn -0.4714 0 0.8819
vn -0.6344 0 0.773
vn -0.773 0 0.6344
vn -0.8819 0 0.4714
vn -0.9569 0 0.2903
vn -0.9952 0 0.098
vn -0.9952 0 -0.098
vn -0.9569 0 -0.2903
vn -0.8819 0 -0.4714
vn -0.773 0 -0.6344
vn -0.6344 0 -0.773
vn -0.4714 0 -0.8819
vn 0 1 0
vn -0.2903 0 -0.9569
vn -0.098 0 -0.9952
vn 0 -1 0
#end 34 normals 

#begin 34 faces
o Cylinder
usemtl None
s off
f 1/1/1 2/2/1 4/4/1 3/3/1 
f 3/3/2 4/4/2 6/6/2 5/5/2 
f 5/5/3 6/6/3 8/8/3 7/7/3 
f 7/7/4 8/8/4 10/10/4 9/9/4 
f 9/9/5 10/10/5 12/12/5 11/11/5 
f 11/11/6 12/12/6 14/14/6 13/13/6 
f 13/13/7 14/14/7 16/16/7 15/15/7 
f 15/15/8 16/16/8 18/18/8 17/17/8 
f 17/17/9 18/18/9 20/20/9 19/19/9 
f 19/19/10 20/20/10 22/22/10 21/21/10 
f 21/21/11 22/22/11 24/24/11 23/23/11 
f 23/23/12 24/24/12 26/26/12 25/25/12 
f 25/25/13 26/26/13 28/28/13 27/27/13 
f 27/27/14 28/28/14 30/30/14 29/29/14 
f 29/29/15 30/30/15 32/32/15 31/31/15 
f 31/31/16 32/32/16 34/34/16 33/33/16 
f 33/33/17 34/34/17 36/36/17 35/35/17 
f 35/35/18 36/36/18 38/38/18 37/114/18 
f 37/37/19 38/86/19 40/40/19 39/39/19 
f 39/39/20 40/40/20 42/42/20 41/41/20 
f 41/41/21 42/42/21 44/44/21 43/43/21 
f 43/43/22 44/44/22 46/46/22 45/45/22 
f 45/45/23 46/46/23 48/48/23 47/47/23 
f 47/47/24 48/48/24 50/50/24 49/49/24 
f 49/49/25 50/50/25 52/52/25 51/51/25 
f 51/51/26 52/52/26 54/54/26 53/53/26 
f 53/53/27 54/54/27 56/56/27 55/55/27 
f 55/55/28 56/56/28 58/58/28 57/57/28 
f 57/57/29 58/58/29 60/60/29 59/59/29 
f 59/59/30 60/60/30 62/62/30 61/61/30 
f 4/68/31 2/66/31 64/64/31 62/77/31 60/78/31 58/81/31 56/80/31 54/79/31 52/75/31 50/74/31 48/72/31 46/70/31 44/67/31 42/65/31 40/92/31 38/85/31 36/84/31 34/90/31 32/89/31 30/93/31 28/94/31 26/97/31 24/96/31 22/95/31 20/91/31 18/88/31 16/87/31 14/83/31 12/82/31 10/73/31 8/71/31 6/69/31 
f 61/61/32 62/62/32 64/76/32 63/63/32 
f 63/63/33 64/76/33 2/2/33 1/1/33 
f 1/101/34 3/99/34 5/119/34 7/118/34 9/117/34 11/116/34 13/115/34 15/120/34 17/121/34 19/130/34 21/129/34 23/128/34 25/127/34 27/126/34 29/125/34 31/124/34 33/123/34 35/122/34 37/113/34 39/112/34 41/111/34 43/110/34 45/109/34 47/108/34 49/107/34 51/106/34 53/104/34 55/102/34 57/100/34 59/98/34 61/105/34 63/103/34 
#end 34 faces

#ZOMPROPERTIES_04{
#ZOMPROPERTIES_04 table {Mesh table {SymPlane table {Point vector3d 0 0 0 Normal vector3d 1 0 0 Threshold double 0.01 
#ZOMPROPERTIES_04 Enabled bool false EdgeID int -1 SymEdgeID int -1 UPos double 0.5 LocalMode bool false } RootGroup C
#ZOMPROPERTIES_04 SubMeshGroup {Children table {Tile_0_0 CSubMeshGroup {Children table {} BBoxUV box3d 0 0 0 0 0 0 BBo
#ZOMPROPERTIES_04 x3D box3d 0 0 0 0 0 0 Area3D double 0 AreaUV double 0.223129 IsRoot bool false TopoStable table {Sel
#ZOMPROPERTIES_04 ected bool false Box box3d 0 1 0 1 0 1 U int 0 V int 0 NU int 0 NV int 0 Tiling vector3d 1 1 1 TileR
#ZOMPROPERTIES_04 atioMode string "1:1" Pack table {BoxFrameLocked bool false BoxFrameEdit bool false } } IsTile bool 
#ZOMPROPERTIES_04 true PolyIDs ints { 0 32 31 29 28 27 26 25 24 23 22 21 20 19 18 1 2 3 4 5 6 7 8 9 10 11 12 13 14 15 
#ZOMPROPERTIES_04 16 17 30 33 } } } BBoxUV box3d 0 0 0 0 0 0 BBox3D box3d 0 0 0 0 0 0 Area3D double 0 AreaUV double 0.
#ZOMPROPERTIES_04 780361 IsRoot bool true TopoStable table {Selected bool false Box box3d 0 1 0 1 0 1 U int 0 V int 0 
#ZOMPROPERTIES_04 NU int 1 NV int 1 Tiling vector3d 1 1 1 TileRatioMode string "1:1" Pack table {Rotate table {Mode in
#ZOMPROPERTIES_04 t 2 Min double 0 Max double 90 Step double 0 } PaddingSize double 0.0078125 MarginSize double 0.0039
#ZOMPROPERTIES_04 0625 Resolution int 256 MapResolution int 2048 Scaling table {TexelDensity double 1024 Mode int 0 } 
#ZOMPROPERTIES_04 LayoutScalingMode int 2 MaxMutations int 1 } } IsTile bool false PolyIDs ints { } } Maps table {Dens
#ZOMPROPERTIES_04 ity table {PrimType string "Polygon" Size int 1 DefaultValue double 1 ScaleType string "Log" MergeMo
#ZOMPROPERTIES_04 de string "Average" MinValue double 0.1 MaxValue double 4 Data doubles { r 34 1 } } Pin table {PrimT
#ZOMPROPERTIES_04 ype string "Vertex" Size int 1 DefaultValue double 0 ScaleType string "Normalized" MergeMode string 
#ZOMPROPERTIES_04 "Max" MinValue double 0 MaxValue double 1 Data doubles { r 130 0 } } Protect table {PrimType string 
#ZOMPROPERTIES_04 "Vertex" Size int 1 DefaultValue double 0 ScaleType string "Normalized" MergeMode string "Average" M
#ZOMPROPERTIES_04 inValue double -1 MaxValue double 1 Data doubles { r 130 0 } } } } }
#ZOMPROPERTIES_04}


#ZOMSCENE_01{
#ZOMSCENE_01 CScene {Settings table {AxisSystem table {UpVector string "y" } Unit string "cm" } }
#ZOMSCENE_01}

#begin 0 fatal error vertex (that RizomUV cannot handle)
#end 0 fatal error vertex (that RizomUV cannot handle)

#begin 0 error vertex
#end 0 error vertex
